<mxfile host="Electron" agent="Mozilla/5.0 (Windows NT 10.0; Win64; x64) AppleWebKit/537.36 (KHTML, like Gecko) draw.io/24.7.5 Chrome/126.0.6478.183 Electron/31.3.0 Safari/537.36" version="24.7.5">
  <diagram name="第 1 页" id="Vw7QwQjcX5caH_4RAe6T">
    <mxGraphModel dx="744" dy="433" grid="1" gridSize="10" guides="1" tooltips="1" connect="1" arrows="1" fold="1" page="1" pageScale="1" pageWidth="827" pageHeight="1169" math="0" shadow="0">
      <root>
        <mxCell id="0" />
        <mxCell id="1" parent="0" />
        <mxCell id="Jk-irx_BUGMkfZiygmR6-1" value="OS" style="rounded=1;whiteSpace=wrap;html=1;fontFamily=Source Code Pro;fontSize=16;" vertex="1" parent="1">
          <mxGeometry x="140" y="450" width="310" height="30" as="geometry" />
        </mxCell>
        <mxCell id="Jk-irx_BUGMkfZiygmR6-2" value="Docker" style="rounded=1;whiteSpace=wrap;html=1;fontFamily=Source Code Pro;fontSize=16;" vertex="1" parent="1">
          <mxGeometry x="140" y="390" width="310" height="50" as="geometry" />
        </mxCell>
        <mxCell id="Jk-irx_BUGMkfZiygmR6-15" style="edgeStyle=orthogonalEdgeStyle;rounded=0;orthogonalLoop=1;jettySize=auto;html=1;entryX=0.5;entryY=0;entryDx=0;entryDy=0;exitX=0.5;exitY=0;exitDx=0;exitDy=0;startArrow=openThin;startFill=0;endArrow=none;endFill=0;" edge="1" parent="1" source="Jk-irx_BUGMkfZiygmR6-3" target="Jk-irx_BUGMkfZiygmR6-14">
          <mxGeometry relative="1" as="geometry" />
        </mxCell>
        <mxCell id="Jk-irx_BUGMkfZiygmR6-16" style="edgeStyle=orthogonalEdgeStyle;rounded=0;orthogonalLoop=1;jettySize=auto;html=1;endArrow=openThin;endFill=0;" edge="1" parent="1" source="Jk-irx_BUGMkfZiygmR6-3">
          <mxGeometry relative="1" as="geometry">
            <mxPoint x="250" y="345" as="targetPoint" />
          </mxGeometry>
        </mxCell>
        <mxCell id="Jk-irx_BUGMkfZiygmR6-3" value="Spider" style="rounded=1;whiteSpace=wrap;html=1;fontFamily=Source Code Pro;fontSize=16;" vertex="1" parent="1">
          <mxGeometry x="145" y="310" width="80" height="70" as="geometry" />
        </mxCell>
        <mxCell id="Jk-irx_BUGMkfZiygmR6-17" style="edgeStyle=orthogonalEdgeStyle;rounded=0;orthogonalLoop=1;jettySize=auto;html=1;endArrow=openThin;endFill=0;" edge="1" parent="1" source="Jk-irx_BUGMkfZiygmR6-4">
          <mxGeometry relative="1" as="geometry">
            <mxPoint x="360" y="345" as="targetPoint" />
          </mxGeometry>
        </mxCell>
        <mxCell id="Jk-irx_BUGMkfZiygmR6-4" value="Tshark" style="rounded=1;whiteSpace=wrap;html=1;fontFamily=Source Code Pro;fontSize=16;" vertex="1" parent="1">
          <mxGeometry x="255" y="310" width="80" height="70" as="geometry" />
        </mxCell>
        <mxCell id="Jk-irx_BUGMkfZiygmR6-6" value="" style="shape=image;verticalLabelPosition=bottom;labelBackgroundColor=default;verticalAlign=top;aspect=fixed;imageAspect=0;image=data:image/png,iVBORw0KGgoAAAANSUhEUgAAAMgAAADICAYAAACtWK6eAAAAAXNSR0IArs4c6QAAEiNJREFUeF7tXQuS5LYNbd8kPkmSk2xykmRPkvgkiU+S5CTOYGe4q5FFfEiAfJDQVVNrV1MS+ICHH0n1T6/6FAKFQBeBnwqbQqAQ6CNQBCnrKAQYBIogZR6FQBGkbKAQGEOgIsgYbnXVQxAogjxE0TXNMQSKIGO41VUPQaAI8hBF1zTHECiCjOFWVz0EgSLIQxRd0xxDoAgyhltd9RAEiiAPUXRNcwyBIsgYbnXVQxAogjxE0TXNMQQyEOQPr9frT29//369Xv8dm2ZdBYoA6Zb+6EP6hfugE+RfH+Qg4Igc/3y9Xl/hUCyBRhAgp0f6bR/S75/RnCAyQf7xBtZfTshDgjhiHXXN67cLDMgB/hUJG2SC/OcQfo+YkZeBDMdBiqUU5G6pJTk+coDnD83z5yAch26LTJBjenWc3N9vkGaR0X/5SB8p1eA8Z4ukZDzkGCjFzE6YIsgQXT9fdFeCXBmHhiDHXD17LVYEKYJcInBVV9FAC0HajeHydYPO//Y2ljKB84ciJKXQMB/kFGvEmGCAvRDk3LU5DhkhCF1PBS1dm+2TRrfIBEnjZZTW2Ws6jEYQui5rV68IojQabtidCNLLuTXpUs+Y2rUZmxa9OcHNBTmCpCnkFM5AMvLRFIseDZe3K/BI04BBJkgvZ4frlSsMgkuvZlKslmZBrR1M4AFXUyEThNYKyLCuPtkWC69WjT2K9HYPZD2e9cfplYgOtcaDDmzPsOByVcFrFkF+AMTVY3D2CCfQydB6uWq2vLsI8kOxvXoMUqfoBOl1srLVIRJByDjaJr22/bvVF4TBedPmOWCh6/Eob68eg1z4RAeWW1xDl/1oFBJBFHUtO+QOWMAV6IQ4OrB3KdSLIO/85hweXIGegSAkY6qQ3PHzRZB3YLj1IEhnDSmUslDPUIdQBCSjIM8Z+cmy5SSds8tAEC4sI6+HcHJHkAX9SDLX3oWsP7KkWFwdAtkafL1eve5bBDHO90RdI0qXXmUhCJe7IqZZO8nRyILYMu3VYYiyfnc6GVIsqfuBFJ6lXbsrIggiSThckNNk+Dbv0aDQV9VX1xwasqGkWz3dwWcxWSIIAcmlLru9ECI5GoF2R9jRk5QaBxA+JhNBuGJ9dy3CechwJQoP2N0C5rDZ7dhE3WQiCE2GA3uXp0SqO3oK31UIc9EDtQP5CcNsBEGMItGr5KKXUw7Y4a1TRw/4AqmjeKQoIh2lVdrukmGrPTYXWVfLMgxwtghCE0WKItJR2mHFBF24Mopw2KyUYwrKjAThFg7pu1X5doba42wcq9q+XMdxlX6miNEu9iLI8VDPitdiclGE5rbCQ2VKr5q+V3T7pJb3im3tR+c11cXzIMhVTbCio8R58ClQlK4nW3rVphXtPEZfkKeEXRx2RdBhxzBLkJ2v5qEoQuQ8HlE9ojcMiqgC/uCP4vKtQyKdl7QetCJ69GQYcgxRBCELWAGGFM6jcu6M9UdjZRQm0ibNIQMdcCW9tvuQY5glCMKRWE4xFEUIGO8f3JGMYUCvyy6JaLFKjmpVYc45riGHPUsQ0uruTYTSqb2IeiRjgR5VqEupbgQhe97E/cyJB0EQXs0jKcmbJEWQdxOVnNOqjmIjjPuRXg+CoByJlcK8J0mkYnRZvjTwIK/mBRo5CArX+oNu6EEQrg6JKgh7diHVBl4keTpBNORYVXc0W3CvP7wIwtUhXt5K6yg1ivMgyZNTLA3GK+uOZhs9pzVFVI8IQgIiHanUKHCWJFKk0hJ6x7gZg9Fgu4McXHo9lcV4EQTtzSMaRc68JifzOsgoQaQaj8i+gxz0XC6iD7V3m+fyIoiUZkWsRUjeV0MSuseIh9EYiyTfru9HFsw0EXMXObjifNQZfNeNJ0EQzx5rSWJNuaTNkruMX/Nci0fV4reTHKHvKvAkiBRFdv1MmFbJ1pQraydLq3NtlNxJDrK53tqHS4NIC5bGM0nF+kho1z5XGkck+fKRTkljtdtTtAYkPW/l95qUQ+tQdtYcmtaui715E0Q67Ucb1nb+Bp0ml27gt3MtPXkzpllcemVxIqO1m7cz4LbWu9i2y01Os0Y/TSZtSzlOp6Vdv3SInWk9pJcKWYmhjbDeZDjfb4mdRRBE8qyrtj1zChoxiquTktJco43Ecv8z7lYMEFKqNl8Jd0sjgsUwgiBSLeJSPFksgxlrSbnoNlcRJcOayDF6jBADJaVqquQaJCNt+66JRBFEKvRcCignkpCsmh/KPKdeZHQt9eJONjqJOXWb1kHUNiqOD2s/MLqzdjzKIx21du2WRhGEJsR1eazrDlPWobxYInXvNpR6Sb9CqxQhZBhhTX/WX7lCqTXOoCx9nVAkQWhiXChESrXOHooiChHmiR/retBKjDh7ClmPiSaIVExp+vIrFXAsAkfSkR2yej0TmRg0R6leDGn+RBNEMzHXosrLWj7u0wpaSqHuGlHQiSGl6/R9mKNdQRApt0fNdY9cy7TeYfURyA6K5iJlISGpVQNxBUHaJKV3WO1eZb8yLIncVmNEHY/YNGlYSXve3NY8rpSziiAaT4BWtGdY3/AkHGKqJZEjpO44grqSIPRcyehQPNmdUyqJVKEpi/Tww/cSOZakhqsJoinad5NEUoxBx2mH7ozmmrR2GYl3EEQDwA6SaORKa/EDgqPqYCl5dxBEU7TTmJUKKnJcMwhNB8s7nrsIYiFJ9O+NFDn48LKCJJrDZ0sjx+o2b08F2rMZkQVZ1Rxy/hVJEmmFvGUTrpsQ5Sm/j9gZQZqMWpJEKKnIobWU95TX00i1kdv7ufoZgxCkpVvUWpV2nHr26p/cyjUZyWGw15YOTUq1NXKgpFhHRVkO8kjnxSUDkNZjpOuf/P1MumvR8bJWLqdMhBTrLJ8mJ23ehYjSOy/em7fWez2ZBNLcrSvYFmLQs2dIKMlu+h6RINoOV5uoNe2qusNkIpeDLXWB1uE1p7fjLZxdRFAJ0khiOZOhIYpFWfNmdO87cPWINWIQUhAp1VllyARpslqNmohCYP/6cU6g3adSK3/CerwpBSqlykiQFk00Xa7z/FpUIbIQ0aQumb8J3fuOrfVOkX7kUNnylXGrOjJEkOOcSAlPPi9u1S/qeCLG11OEh5Q1G0GOtcmIx4JUwoOE0tSJUHBkJEgDcKQQhAL/YcLAtG4tuGcmyJEoVFtQHlw1hkX78WPTRYysRbpWlSNvSdTeu8bpEaBoQY0R6iam/twhglwpgIhC0YQ6X/VZh0DKNIqD564EoTnXfqt1xGhPQnrnssvs70yQ2q3rYiKmm0CuhptmcBp8Z4JwLzmewayu7SNg2aOVAse7EqTSq33mZ93pu09SxZPvSpBKrxTKDxpyqzTrrgSp9CrI+hW3vVWadUeCVHqlsOLgIbdJs+5IkEqvgq1fcfvbpFl3JEidGFRYcPCQ26RZdyRI1R/B1q+8/S1s6xaTOCnsN6UCa1gsAreoQ+5GEOnXiGJNou5+RKAIAmgP1cHCUcotNi7eLYJYX/CAY073k8TrLYxbkbkbQarFu9WcPj38Fq3euxGkWrw4BLlFq/cuBKnz6TjEOErSXg2b9mRhdoIUMTCJcZYqLVGyEqTOnucgRnqiZCNIESMnMc5SU8pFx3OpToH+ZCJItXChTcksXIpXAmUgiPanuswaqgsgEIj4aT23iaETpKKGm6qhbwQbTVAJYo0a7S3h9QZ3HB60yGB5Kz9cNEEkiGXD4fkt4RVxcAhy3GpieSs/FEnQCKL9kZteSC6CYBKEpGpvu9T8fAVMyoVEEK1xc3t8tATDMaP7StJ7y6JlcXf7jmAUgmj3UEmAWdKz+5omxsyk15B6OMTwmSIQREMObV5aBAk3GfUDflYsBGqbMdt2Bu8miIYc1nMFmnuqtVwDhxGw2JYmmljtYFjw44WWSbg88HATzdkNKUxfyaQB23sudb/PCIwYs0ZvI/ed0s0ugmjIMXqmuQr1KZNwuXjEsdGDNbqT6lCXCbSb7CCIdG589qeBqw5xNZGhm2nqj96NSX+UJtO/vc8ykqwmiMZDjEaOI5hVhwzZtdtFs3alIclolDJNcnYilodpPLsHOUgmTT5rkb3G6hHwqhMke9F2NvWSX4xcSRDJq3uRg6YpgTsFWl3MIuDp2SU9hp97X0UQyaN7kqNpTyJk2XkMAt42JdWsXhHrEg3vyVw9RKo7ogouCdgY83j2XT2jxxHJHQ722/NXEIR7mXTkCqmm0Hu2OfvPfqZ7JUnDLQ2E1SPRBJHWO6KfL3keSSn1vR6B0FTno67k2r8hz480UKnAiqg7zuqUZNCrv0ZKCKzQp5Suu8sQSRCuSA5he0eDUhSTFF/fywhEpsrnp3NZgbscUQThmB7emjshWlFENvDZEe6emxFI2gHsKksUQbjo4ToBpWaro6UEamDYymygibfMAUcQhDNG9xCoVGh1tJRADQyL7Fxx4nBO2K3dHEEQrq27I3o0kCuKDFi/cEnUGpZGUi51dkvjvQnCGeGOUHwGulbXNaanG+NmhLrHXY7iGjAuztibIJwB7grFmrx1QkePvRThzSNcFHFJ570J0vuF2d3RQ+qfP9bKJyeOQJLQKOJJkFBBJxRZtccEeMpLUWuRacfsSZBece4S6pSKOg+rRcJB4AYu20mSXmo/XSd5EYTz0m4tN6PSihxGwByGT3vsQRm4FHrK/rwIwhmj1zMs2GnSKlLm19frRZGvPjIC1BX649swihTcZ0ckCSvWvYy3l17t8CiagvzoVWorio4c7Yc4NTukd5CkJ9dUmuVBEM5bu/SiZf19H6Ehx5VMRZI+yFd4SRH6/NZ9gwqHh3I6HLbDaIJ43F+LmMbIOaA012tlucu4GbxmX980gmFvmWE4onkYcK+DsDq9klbJNV6k9mz9MEsNXlLEnkpvBhji3s3yIEiPtVPdAyM4UsfKIsvTSWL1/FK6tdJRcoQd2skxSxB3gYzEoOGSFxtRkOU3LAZEhr1kdM1KKtwtDmoGHPc6JJIgs/fWAtWLYHT9qMLbsyXFa2XMMG44T/+YHIdV2EsVLoDtpVlDJJ014h5jZ8HWGhRXd3jlv9IJNq2sqOOsKVVvHhJOs85Ki18v5duSYpHQ55x9NxANSE2RqQX9rimXtyOTOoFDXlyrpI9xZ11NOYDZCNJkJ6Hoj4ShvxUf7mCWt+KP8/zy9j/SavKK+c88g5wYGWuErrii3Suqa+bebLItcGqu+d0YL4IMPXziot3Hegl8yrlJjkyfKW9qmCjKG20MIl8PzUoQrjD3TK0kgLMQZRUxjpG2t8dtZcEu6U/8PiNBuG7JSEtXBEkxoOW9FFHovxE+7TDTL0GplDRH9OPXkvzfvs9GEKkIRJgPrctQnbIj/Wo1IJGCnMXOD7fgujqiDeOAYFAW4bkV86jC3CLfeSwZSSMM/RvxaZHi1491n4hnjN4zfRTJRhCuc4U+l5Z6NaLQ2YrWaZHSstZtoo4M/ff/Pv6d6tCMWr3hOm5tZGVHyyDy56HoRnWUFvHU4jDwnQuPRIlowXrLq7lf2Gk/zcNnx2QiCNc6zDSPWZ1luz51FMliWJwX2tW5ymaoO+XlOo8r2/JmDLIQhCvOh/bYmJGqC2YQ4LqPq7YmDcmfhSBIZ96HgK6LXu6HmVZgmoEgTyjOV+h69zO4NBk2zcpOkAzy7zZMpOe7nxmPnlwGA0M58x6tiyfcP12alYEgCGfen2C8K+aYLs1CJwhXf1T3aoVJ+z6D62YhbhWC36yI9kpTX3N55t1SpczoEaRHkFoczEuu3qIh5HoIOkF66x8rzjbnNUFsyXt1COTmRXSC9Ap02L45tm1CSMfVIXB1JTJBEF5KB2FRNxPC/eVukfggE4TrYCHLHamvu9y7lzrDdbKQDS1VMXcXy100jzSdLGSCVAdrkbVueEwa3RZBNlhHPfLbO8WuXr4H1+pFJkgvDMPlqWXwZgSKIGbIfn9BEcQBRNBb9BowcGshyBGkFglBrdtBrCKIA4hFEAcQQW+RZjUdOYL0Uiy41VZQI0QWq7dYCLfHDpkgVyDCdTmQrRBctqtCHW4LETJBSL/t7en0L5HjK7jSSzwbAlSL0BsmqThHfHUq/HkQG9w1uhBwRgA9gjhPt25XCNgQKILY8KrRD0OgCPIwhdd0bQgUQWx41eiHIVAEeZjCa7o2BIogNrxq9MMQKII8TOE1XRsCRRAbXjX6YQgUQR6m8JquDYH/AwJ0VgUYXRCWAAAAAElFTkSuQmCC;fontFamily=Source Code Pro;" vertex="1" parent="1">
          <mxGeometry x="145" y="351" width="30" height="30" as="geometry" />
        </mxCell>
        <mxCell id="Jk-irx_BUGMkfZiygmR6-7" value="" style="shape=image;verticalLabelPosition=bottom;labelBackgroundColor=default;verticalAlign=top;aspect=fixed;imageAspect=0;image=data:image/png,iVBORw0KGgoAAAANSUhEUgAAAMgAAADICAYAAACtWK6eAAAAAXNSR0IArs4c6QAAFQhJREFUeF7tXVuMXlUV3kMvjBQSFBoUxBYSBFQ0mtJYI7f4QHzwweBDEwTbxBAf1CeJMUhagsQH9EHlgfjSIhDnAfRBE4IPlosRbYkKqAginVqohRaslJa/naFj1zn/6r9mzz7n7Ou5fn/SzExnX7+9vr3Wt/Y+Z6YUPkAACBQiMAVsgAAQKEYABIF1AIESBEAQmAcQAEFgA0DADwF4ED/cUGsgCIAgA1loTNMPARDEDzfUGggCIMhAFhrT9EMABPHDDbUGggAIMpCFxjT9EABB/HBDrYEgAIIMZKExTT8EQBA/3FBrIAiAIANZaEzTDwEQxA831BoIAiDIQBa6K9Oc3rjr2nysC2uXjnlqNv+/+ezraGbD+Od0swNB0mGLlg0ITG98aq1Sy8YkmFqj1NRapU7wzwZSlMG4MKtURprHlFKPE3FikwYEgRknQWB6485NecOnXZN7A/pHZEj+2arU/H2xiAKCJF+v/neQh0VEACIDeYNaiFAB7MLm0cz67aHogyChCA6wfu4d2kSGwkXYOpq58o6QJQJBQtAbSN0OEcKwIvMXhYRbIMhAjNxlmhMhPfWVkwJ4LKBdWmhV2SAvAoK0ai2bG0y3vUQpbo+NZq68zhdZEMQXuR7Um5BiYZxx6sGklk4BBOnlsiaaVJ5xotCpLdmmRBOdNAuCJIe4Bx2MzyW2tCMFWyug0CC1wt2hznJS9EJoe6N+Ms0bJCOCKnuPGhWTIjBgb6HjGuQ9qDEQJKmp1tv49MantynVa8HtCGjYGQgI4gh3G4tPRDeIoa1PsPcAQdpo8ZZjgr4oA2phdjSz/iJLKEuLIcSKgWKNbYyfl9jSgxPulKhF8R7wICmXKHLb+fWP5dtAjCpg43kPEKQK65b8HuLbZSHiXHPnHhFiuWBfc9npjbsolNpac7cd7i6u94AHaakpjAU4hVP4OCEQ13uAIE7gpy8MAR6CcXzvAYKErEfkutAZwYBGy1zJkUCDBK9LWAPj57m3DfASYRhwi2qn8R7wIBGXyKep6Y27diBt64PckjpJvAcIEmVt3BuBCHfHrLhGOu8BgsRcJ4u2cNhnAZJ7kWTeAwRxXwzvGuMMFYVU+ERFIPzGbtlwINKjLpa5MRz4pQI5bXgFD5Jq3cbtIqRKDLCKfzCojxgeJNEaIqRKBOypZtN7D3iQRGuIkCoRsIubTSrOuSt4kIhriZAqIpgVTYW+jMF2pCCILVIV5XAiHglIq2bqCa8QYlktRnUh6I1qjCKXqCW8AkEirBr0RgQQHZuoK7wCQRwXRi+Ou1SBAPpVD3qVqGuX0CCuiI3LgxyewAVXS3/2IYcIgjguGDJVjoBFLV6fOEea12PhQA4P0OJWqU2cgyCOCzcmx27HaigeFYF6wyuIdMvFAzksgUpcrM7sFTyI5WLijMMSqOTF6tcf8CAViwpyJLd6lw5q1x8gSMnygBwutltH2bQPRhXNAGleAzIgRx0G79JHM+EVPIiRHNlLopGtcrHf9GUbCa9AEG1hka1Kb+mePVw3mrnyMc+6QdUQYo3hy8mxbAde4BZkT0kqN5HeRZpXLCVOyJPYdaRGm9MfCLFOeQ+84TCSNadopjH9AYIopXArN4VNR22zMf0xeILgjepRDTlJY03qj0ETBE8CJrHnyI02qz8GSxAcBEa243TNNao/BkkQnHWks+YELYMgCUAtbBJnHXWiHd5X0/pjcB4EGatwo62vheb1x6AIgoxVfaYdqada315SNOZBXDXBX3SKZLL1NtO4/hiEB4Eor9eqI/YGgkQEs0SY4xpJHTgn6KPRE3SeT69DLOiOBGZbU5NtyGD1OsSC7qjJkpN0044MVm8JAt2RxGrrbLQVGaweEwS6o05rTtBXKwR6LwmCS4gJzLX2Jut/g+IgzkFwCbF2S07VYSsyWL3yINAdqWy1/nbbksHqGUF2bTk5oa31Lyd6jItAezJYvSEIQqu4JtpsayBIVPwRWkWFsw2NtSbF2wsPgqxVG2w65himto9m1m2O2WJIW52+aoLQKmTpW1u3NWcgnfcgJ73HQmuXGQPzRQAE8UVO1kNoFQPFVrbRmjOQznoQCPNWGnasQYEgoUji2fJQBNtbv02HhJ30ILjG3l7jjjEyECQARYRWAeB1omq7Dgk750EgzDth5QGDBEG8wYP38IauSxVbdYreKQ8CYd4lO/ceKwjiAx1OzH1Q62QdEMRn2aY37tyNvx3og1zn6oAgrksGYe6KWJfLt+uiYic0CO5bddngXccOgjghBu/hBFcPCoMg1ouItK41VD0qCIJYLya8hzVUfSrYqqvurdUg8B59snmnuYAgNnDBe9ig1MsyIEjVssJ7VCHU69+DIFXLC+9RhVCvfw+ClC0vvEevjd9mciBIOUHwdkQbK+pvGaR5C9cW3qO/Zm8/MxCkhCDwHvaG1NeSIIhxZeE9+mrwzvPCbV4TZMhcORtSXyuAIAUEwRsS+2rybvMCQXS84D3cLKjfpfHShiXri6cF+23ybrMDQRbhhWfN3cyn/6VBEI0gT29TamFT/xceM7RFAG9WHCOF1K6tyQyrHAhyiiA4GByW6dvOdv6i0cyGWdvSqcs18hem4D1SL2un28efP0Bqt9MGnHjwC5tHM+u3J+7EuvmGPAheBGe9QoMrOHCCILwanMU7TrhdFxZr9yAIrxztZXjFW3XdpFaCwHsMz9o9ZjxkgiC162Ewg6vSprOQmj0IxPngrN1rwu05C6mNIAivvCxlUJVuu+F89cATb6g9B4605rCwRoIgvBqUtTtO9uqPnKUevf1Sdcu9s+r+xw+05iykToLgoShHoxlKcSbHE38/rK6/8wWlVHvOQmohCK61D8XU/eb5jx9fkVW87JvPjRtoz1lIXQTZcnLmW/3gQ60+I0BhFXkQ8hzkQfLPgAgCcd5n8w6bG4ny737pfI0cWZutOQtJ7kFwch5mRH2tzbrjew/tU3c9vM8wzXakemsgCJ4a7KuR+85rqSg3tTQAgiC88jWh/tarIsdPv7ZWPfn8261J9Sb1IAiv+mvoPjOrIsdiTfL29tHMus0+/cSsk5ogO04KrmtjDhhtdROBKnIYNEkrhHoygiC86qYhpxh1FTnWrD5d0VnI5KCQR9G8DklIEFwtSWFsXWvzpmvOVaQrlhr/ZCZ0FrJm9UpxUHjqd40/n56SIAivumbNkcdLxCCCVJFj6UEhD6T5KydJCILwKrKldaw5CpmIHGT4xeccKitDBFp8ii4n2/yJeiKCILzqmE1HGy7rjT0HjmU3cyfXRxZ3weQoI1AbTtRBkGimMeyGyGt8+epzsqsjZSEVocTkyK+2H6wArlmhnooguNo+IL6wEKcpV3iE7JkP8jJl5OAQjYh218P7GhXq0QkC/TEcZkitQcZMRk+hVdHHhRyU1cpDtLcafXgqAUGgP/pOERlOVWkNwkISqViQT8pNyEHX35sV6gkIghcz9JUgOjHuf/yNgpu4EwQonCLNQXXdyZG30+RbTqISBOFVP6nhQwxCgu9WkZe5/s4XC8Mv9jCLPYfEsjmhHpkgCK/6RBG5+5OR23gMPaSqEu3V5MgQ3XrSi9zRBLaxCdLK03NahHzhVmau3vT50LkrT/33vw8ez74no9hz4Hip8Gxi0VL2Kb0FY2BLDCrPGS0bbWJzZkLjmV459YdnfnjFhpTzLmo7NkEaS++y4VMunj4EvvwaCi5nZyRh6LkF+v+iw7DQPuuqX0SK/B1VxVkpOT7pbarOQWT4VVaWCURnJbfc+1Ij78qKRpC69QctKgFIOz99ZULoOz8ZNHkEV29g8jpXXX7m2BPlXkjvk4nSZuLQvMiTXnV5jhnPgUOoJ58/7ER4maGy8Rq211Da8iqgiARJrz/0nY7JQIZJRHBd3NAdmklEi0nkYdJyu5KUTZBGkoEJLQlBmBF2PrhR27fd8IEspKJ53vXwfypPxanOo7d/uDKjZb4e30y6NyZBkugPJsVN15yTAcs7HS24+WH/arMv0iGypm1oYepNEoWIQwsu+9S9GXs5Jnz+NddBRR/yAvShdqV+KgotORQM3UiIEDQnJoatPpEZrbI7WuXPjtSfzYpJkKj6gwBlUpAhUDaEQqWquzv6rimFuQyJqmmUi3Q2Vvk9h2z0O1v9weOirzJUK0sc2IxReis5ViZCjCRDiHCX2qQqo1X1YJVSHSVITP0hiVGVWizTIVKL6N9LA5dGaPIsVcbMxMlDlTDRLnWPaVy6V4th/MUeKr98yDqF18JWuEtS2WiTanJkI6093RvFg8R4OQO7YN6VKXzSd2fpHaR34ZCFyrPx2+7sLrs0l9UFfJH+iEEan/H51JHY0o1c6ZlswyiuI8Mpm7pcviijxV7oW/ft/ctDt17ySZ/5+daJRRBv/aG7YH2H4p3IlHGhSfvokCINwnG9785sI9olaXz78V1sneAyJa5ns2zCWd3L8XV33uTyF1GXf/gCY1H4tdSz1BtmxSKIs/7Q04P6VQSZJeEQiXajMhcv43wWrqHnIVJ78Djoq204ZUMaNihuV/bjQyLdw0ksdB0mxbtt+FRGDDJ0m3bk+hfd0TKHXfU+hhtMEB/9UeSCXcSgDAlo56esiv6R2SLOCvEpuTRCvZ70MGRcMmNEZU1GxoZsQxxJGmqPQzQbwV6UXSvLzEmST85q3M47TBhJj2FLDMaPPEeZNinWJPWmeyMQxP78Q+4a0qXqxKDf6bn5shiZQCfvku/AYQtfFRLIMIUNWgp50+GhDWn0XZl+1okp07lF40x5TYbXSU+524a5cp1tTtCLy9QXZsUgiJX+4B1B7hp6pkMXdFX6oy4y2JJGksd0eMjhjCthXPuPWd60BrYpdzkO26cOLbNZtT1lGIMglfrDlKWoCrNklop2EvpnE9vmO+/iy4llOy/v0nnIlR/OmcIwHy3QRcIwIfSwtSrlXkRKGTVU3dGyeYdW3k99YVYQQWz0h56l4B2CpinDLCKMXJSqBZEhF8e1VTF8UfxOxq+HM0ULrp+Cszeg8rapZTl2PTvH7VC7OWnTXIY04aeHh+TRfb206zkIv8ghv5g4a+EE6wmzAgmyc5NSU9uKZiOfQSbj4Xcl8fPLVE8KvSJSMNhMhLJMDHsAeYBngbaxiBS+TD4W7TJjxpV9Dw1lW6YzFSYKezk9s6Z7PZPHZMxMm0isayjsvXXxXqZRpIexe8sJo11PNiuQIMUCXf5pLQaB9Qft2GUZEFPcK3fTmNcofMkj61UZuK/20NPW0svJ0LAogyU9JoeIMoyM6Z1MiZYq8W7SpVXrwXPdc+BYLS+3DiWIUaAzOW7+ycvqq59bnaVF2WswMaS3MGWo5Om4i5vXd33e1eQubFqEEI1haq+MNL6EqTKeJn7vQwzbbJY+H9Yok9A8fZgVSpAlAl2S486NF2SC+TsPvqJWnX5a9lIxeaeHyGLSHSZCsOET2TiE4HDB9RJilSGZDgdjaIIy7cEn7FWXMavGXsfvdVJU6UU5JnmlqOryoqmeplGS383yJohJoDM5bv3ZXnX3zRdmZLj3NwfU92/8YDZXPkwy6Q6ZoarSHOwNTGGDHq/bGIzpvMHlcJCvq+fPpdg9gceeTU8Hc/0QgWwzZ9cyvCb6GYitd3fJZuljK76OsjCr1LvXjWY22Kh61yln5QMIslig885ADCdXuPOfR9Ro7kQWXtH3O196W3398+dlnUovQj+zV5AZHUmCWKe/XgiJSnrYJI2ci4UIXmqfCcM3A5oIx8o8HT9kVaUvGA/XbJZcIzsBn1asBxBkItBZbD0ze1R9Yu0Zmd6g/3v1zePqt8+9deoaCHmQHX89rJYvo+sVZy163iPEsEINP0Z9adz8vU4alwPCIiPVvacM/ViAV3kxDldlZo43KlOG0Meb6cSwudVrCqnKrqPk5dOeiYQQJBPoBAT9daDXDs2p885eoV7YN1KXnj+tmCw0wV89fUgdOvKu8RlomqK+G33m0vyFC5+6+Az10Qvfoy4+b/ImkgvetyL73Tln5V/1z5nTp536r7dHJxb9+o3Dc6d+fvXNOfXya3k49Le972Rf//TyUfX7F/iP2YfTpog00ivYag6pwYqutugjpn6KMlymsuwdQh4ZoP7ko7iuxJBeow1nIiEEyQQ6xYfrL1mlplfkhklhFX1P3uNf+3MD1K9SP//KSO0/NJd5EDb+j685Q5FxL19mHtL8u5N8ABu+NPgyc9bJxCSq6ov6oT6YTESkEBKZCBNDc+gegbEwnYfIu1pUzvZwswzfIn1iG4ZR2zqxyh7LNYwlmVj3IggLdJmR4EETMQ6+NZ+FWvQhIjy75x01vWJKmUjAhk/G+Oyeo1kd2tlDjdF2/5feiuqQx6IP7dJMrLNXLVvUHI+ZjZvCHBrvPY+8ZtttVq5Kc9h6F6dOIxVmUug3AWxe3iCHEBqKjdtKdibiTZA1q1ftptCKP6PjJ9RobkGRMdH3JP/Zq1AZMioiwYv7xuHM7qPql3/876IQwOW2KvcrU7JVsXeIbehhHxNIkkcSh7wOhZa2pGl7CpjJrL9mySXFy/jH8DhL1zLNmYgnQXZu+vMPPrbtsgvy3db0ObGwoF7/33z2q2NzJ6xj4RAjLiNNjHOMorEReVgvFRGHDMnF05i8C/XPB6jcnvw5BnZS6/CGpT+Cy69Zcg2his69XNopnmMase5FkF889eaOL376vaV//1wunHyFDeXNJ4Y8ecWny+JK4Wm6ZCjvS1G7poNE9jZlL1V2GZNelj0O6SydNOxNb7j7JeukQFmWjImTf12Mqc3rgyQp9Hmwh6D/dzFk9hJUT39/QNWTof64x/ciXgQ5NndibuXyqeU0kUNH5tU9j7yezYmMP/aVDX+wFtc0pTaJXHRAGUOo2oyTPc0X1p2d6TEyONsQzNS+btj6mx/LbiibbgswmWwP/8rm/M7P12W/lul728cVbLA0l4l/JuJFkB/9ev83vv3A3uf8J4KafUfgxs+e+/4Hf3dwf73znJ+NfaruRZB6J43egEBzCIAgzWGPnjuAAAjSgUXCEJtDAARpDnv03AEEQJAOLBKG2BwCIEhz2KPnDiAAgnRgkTDE5hAAQZrDHj13AAEQpAOLhCE2hwAI0hz26LkDCIAgHVgkDLE5BECQ5rBHzx1AAATpwCJhiM0hAII0hz167gACIEgHFglDbA4BEKQ57NFzBxD4P1Ftr4yWcpQlAAAAAElFTkSuQmCC;fontFamily=Source Code Pro;" vertex="1" parent="1">
          <mxGeometry x="259" y="351" width="30" height="30" as="geometry" />
        </mxCell>
        <mxCell id="Jk-irx_BUGMkfZiygmR6-8" value="" style="shape=image;verticalLabelPosition=bottom;labelBackgroundColor=default;verticalAlign=top;aspect=fixed;imageAspect=0;image=data:image/png,iVBORw0KGgoAAAANSUhEUgAAAO4AAADICAYAAADvG90JAAAAAXNSR0IArs4c6QAAIABJREFUeF7tnXuQHEd5wL/Z3XvqLVlv2TpZxhIytvxGsohPwoYYW2cMkhOTKpBki4RAkUCFIgmplKxKSMBA5Q9SIVWhsERSiYllcDg7IQlGJ4gtxSaKTSxbFra1liXr/T7dc28nfDM7e7OzM9Nf9/TM9Oz2VIFPdz09X3/9/fr7+m2AfjKtgZU96824C2Ca8PCep3Zsjfs7On+6Bgx6Up1SRQ1ocFWslfhl0uDGr+NYv6DBjVW9ymauwVW2amiCucEduWIJjFx+Ne1FRqqJz/ZWU+hQWYpKpWaiwZWqzuQzc4Pbv6oHLt52rxQh5n7tkxpcKZqMJxMNbjx6TSxXDW5iqlbqQxpcpaqDXxgNLr/OGuENDW7Ga1GDm/EKFBRfgyuoOFVe0+CqUhPJyqHBTVbf0r+mwZWu0kxkqMHNRDUFC6nBzXgFCoqvwRVUnCqvaXBVqYlk5dDgJqtv6V/T4EpXaSYy1OBmopp0qJzxapIuvgZXukqTzVB73GT1rcrXNLiq1ISgHBpcQcVl/DUNbsYrUIOb8QoUFF+DK6g4VV7T4KpSE8nKocFNVt/Sv6bBla7STGSowc1ENelR5YxXk3TxNbjSVZpshtrjJqtvVb6mwfWpiRVr128Bw+xSpZLC5DDA2Oj8XW+kF6+xFfc90LXnyceK4jkk+6YG10ffK3vW7wSA1clWhbpfa/Sja7ChNgxzo5lvWZMVeDW4Glxmi9HI4K5Yu361YQA21NZjgrFpT+/j25hKSTmBBpcA7vDEKVKqqa3/fDWfsckzpOSZv3C6mo8sOTFDt6yNCi6Gx8ZY6aC3IrJQXg0uA1yEYe+6z0mB7Kpnn4SZr79k5XXid74CMuDtePk5mPpvj1p5Hr6+G95eLifCX7l9/PzzLBiySAWFdYlUL7MGV4Pra/ONDq7dr4WHncIPzu6CjuO1Y1MILxQK21Xs92pwNbhNB65fiHz0U98E48gBmNP7zRp9qAqvBleD23zg9qx71D2NduRjfwqt0+dZehg79IovvKrdnaTB1eA2Fbheb3vu2m4Yvf2BGh2MnHkH5v/Tn9V5XpXg1eBqcJsLXE/f9p0HH4GWjkl1OgiAd82ep3b0iQyEyX5Hg6vBbSpwvSPJJz/zrUCmfMPmfGGRCoNVGlwNbtOA6w2TT2KIfG13qDOsh9csqrDCSoOrwW0ecD1hMo4kF/KFUHBLYyXoeHYHTP2/XdV0KszxanA1uE0DLk+Y7FYKwjv3bz9bO1iVcsiswdXgNiW4lDDZrRjvYJUJ5rY9vU9skj3oRM1Pg6vBbSZwTaewvODiey0/faw2ZE7R62pwNbhNAa53YMq96ILq5XxC5r7dvTvWUN+XmU6Dq8FtDnA92/eC5m9ZcKnidTW4GtzmALfn/o0GmPY2KgAQBdfrddPq62pwNbhNCS5lKijI+3q97u7eHYlzlPgHWaGICn93Txvo/bgAKsxbRrWLFR6PGwXcuhHmFAapMg8uVkjUSvW+b0B5C4BhHRanwbW002eCsV2qnk2zmOS6X5ng1ofLyR93k3lw3ceTSjWsSmYI7oU5cg58nHysWD0SZvA9t0kRF4+uaT30mpUXyinr+BrnpA4pQvpmYhZ39z6xKL78a3P2givax3VydYfLafRzNbhJWY7+jkcDjQMuFszdz8WpJxgbWw1QthZCG5Xozc8ETBNwt9EuKBSKPJsXNLgaqJQ0kDC4nukgkXlct6K8mw/Q6xrWkb52FyvCY3dL8vm+MJAbCtyTVy2HE4uvj6Cz8Vev+Xe7S4cHup37kJyVbZ37ngM83A2f11fdJyWsnXK8CAtetBfAY/g9cI2cEHzG975u5YmhN8oq47n8pV2A3QX7SRhcz4mOx3o+C/krlgkXa3TwIsz7zheF3ye+2GeasNVvLKChwI3jlEMEF09klPHgaYwOuHvX/T4MT5waOVvsi+LpkfjEcZOBzME5bAzTAhf1s7Jn3UHHI/qdfMFTGX4b7f3eH55g1/HwpOl1f267eAbaLp2jfLbOC2twA9TmnHKowZV3PK1K4OKpjv3r/5ACjW8aP3AR0pNX3WSlPz9rEVyYcyUzfwfcycfehCnH34SZb+wNe6fqgTW4GlxfDcz92ierobKsc6XTBneF55C4KCPLDrgOrCcW3wSOd2XSGpIAQUZPPOvNvYEQV/rTUT6T/rvu6SAdKvfAxdvulVIpDQmuZ4AqSj8X+7gD+5+Hk4tvlKJvv0wQ4stf+nEdwHhNiva42uM2jceV2c89MXgJLoyOxAatkzGG0Nf857dd37EH9TS4GtymAldGuDw4VoIjly7GDi1+4MbvP1IzgGWaYJ00qcHV4DYXuJ5wmXd0OUlor3puhzdMru7/1eBqcJsKXG+4jP+mDlKNlsvwluvGxThdblCI7HxTg6vBbTpwveuWqVNDGB6jx437qYe2foeWBleD23Tg2l53PV5mXb2TlDXCnBS0OJKM/VrPU3dEjgZXg9uU4NpnUI3udK8tDoL3zPAgnBkeitvRWoNQFGhREA2uBrcpwcVCe0eY8XdeeJMajLr8F8/Agpee8dRF8HpuDa4Gt+nAXWGPLG9xh8qOEty7hpKAFr0sjh5jv7b2Cd+EocHV4DYNuJVBqQ1+wHpHl+OGFoGd9cb/+HhZqzqYx75qcDW4DQ+uDez4cUTeAnvncuOc9mEASz7fS4OrwW04cO1zyMrdrI3tOA109p5P19yPKxtaZ9PAlBMHg7yro//Avbd+FaTB1eBmGlz3MTEsUJ2CIrBn3v9xaJ0+r6bsLGidLXfePba4mwcfhLT90lnr58nHD1q7fNj7bc2iaRqbeA/OSwVcW9mjODgQ+THAqJ7yiCdgnJ8t5/wxZ3M6CijzBAznYDfcyTQ0YVrk8k85fhCcg93wBIzhy5dEzhMzwE3/ziPvBIyd1cPyMG/cnsYjrH12k1k5GobviBiE9fytPWDOv9r3ak2EFjcOBC2w8B/15ZG+Nq1d9tyuPb2Pc+nAySUdcD1n3IoXX7+pNRCsAQdWTME6poa1wMK72F9E7w6srPOkKHmnA67ngmGKoDqN1gBLAwjq8KyFMNR1HZRnXl7Tdw17lwUthsg4ZcP3mEUToA9MowiG8ZYMWN3f1+Dy1YZOnZIGEErnQTjxQUDx4YHUKz4LWkyP+2Hd86y4kR1M0zn1bjzLQsH6Hc8xq6LqVALc3R//i1D5r5ocvS8oqiD9XuNqgAIta5dOWtpJB1zX2T84Qrf3o+HHXC6cOAVacrm0dKS/24AaoECLxfbuiUVvKzqgJFONGlyZ2tR5Ka8B1uixtwAr//5Lrl8lexZ0mDI1uMqbmhZQlgZ4ofUOSql0a2Eq4NZcY6lDZVl2qfMJ0QBrcYXfq7VTQOp4W5Q1dXDx0Oh9H9gcanS6j6uZjKIBkQ0DKnvbSOBa60EZFxMFKdvtcSngzp8wCTryhSh1p99tUg2IQIuq8i64kH3rPPITZZBL2OOusBZRmBvNfMsa3nkrDW4tRbmLZ2DaD74BZz/yB1D2uWNGBeamPvlXcOmWe2B0/tUqiEOSQRTaOL2tffJG6VETzOKe3ieEb5MTB7e6bNFaJL1tz1M7tpK06Tnvh+Jxp7e1w/S2Dmb2CEDLkQMwvHQFM60qCVDmyc9st+RGaFWDV3X5gurxwugwnBgcsBZO4IVbPNeD1I4kA5j5wiJe5+Qnl/u4nKiXYQuD6775DK9M5IHXfWQIZR6XAm7n80/DhBeesoz/wh0bMuEZHJndlYzyDy69DQZuvSf1tgWhnfHdP6mRQyX5ghTknBHlnOGENoZ3+xxefgdTp97NBLJGkiunbuABdZUn2mCXELje4y3dwlAA5gUX+7fYz/V70Phb3zlgeSznUdm4EIb2V3dDx/7nAH/2e1D+kflXw9DSlak0QI6M2BAGParq2FlYgec3IYTuBwF+e/mdoff9yJ63dbqUfhdeR/G63OAGQ+tWUXWB9Xa/fYZ2YeBh5w3WksdCLgddE6dUP0AxLEysinE5IXzrkdegff8eZqvv9cD9t/YkEv6jnBOe7+WSEXU8NvkyGFy60tJ3Wn1gnO45d/IwTDrwvHUkTNg+WAT4/Jwr4eSVN9ZchSnL21rbVkulDW4bD6p0UY9OBtfpVAed1xNsja5dEgC7EGQv/LjkMagPghXQibeWnXmnzrNSCXA82Mj8JYkYl9OwoHzeaIAqszddHGVAOfMXTkHLkV+GRgA8MschZ9j3sQyFV56FCyPDdR6WIjfaHfaBR9s6YcZbL7teoYeyDqj4Mg7Y+nnXcFn4N9MzwXU2vbs3rFMUEgYymEY7GDDHSXN23rtgtMMOhdsrN3TXn3oX7ateL4ZeYswKSe2N547ncH72+5o7tEWDtw3/tJUUAXV+J0/S4JzcgLhlxnI5I9Nh8oaFwbLld3Tr1Td+B+Wl6Bx1iw82MjIbxKCyGmCeMwHOARhFHAF2p7M39OODm/r5NvQzAYbcVso0UR24ldYDBeumuHrZlazz0xrQGqhEqSEnZBgeUPFKhuq1DFqBWgNaAypoYBxkZ9ETM1SOS2z3dNIbN90DJybMDf9ULgf5yRPjEkfnmxENmKUSlPsHpEk7eeA0XPPzH7jzY55pLO3jETJKEdzxS5dOL1gGB668jVmM3MROMAp66SNTUQ2aoDw0DObQsLTS5QyA9+6qv+1d2gdizCg1cN1TQtYijFUfBxgaDC2q0doKuc72GNWhs1ZSA+UylAeGAL2tzKfr8F6Y++beapaiUzMyZaLmlSa4eH9LdSXJ3jWbYXiMIbYOl6n12jDpZIfGjmImjPbDdbsfy1yI7AicGrgowMqe9aYjCKmfCwA6XG4YJpkFkR0aOx/McoisCLjrDjrzYBenzYOXr72bWZlGexvk2tuY6XSCDGsgptDY0ci7DuyCy47Z88H4ZClEVgJc7/2ku28P31BvCa3D5QwTyRbdHBmx+rNxPbNOH4TF+2rWMGdiFNmrj1RDZe/SxxdWb4ZSmV1lepCKraPMpYjZy6I+2kpDcONz/+BSDX1Zo2r6TBVcu587Hi4fWnY7HLmMsFFbe13V7CiSPHH1Zd1C1fdrrRB5De9lW5EKKvHl1MGt2+JHmBbC8muvK9EK0soqAS/bSP1adzWlD+7a9TXTQi+v+i24mO9kmxJ63YmdVp9X9efmyzphSmseXjwzCKeH5M5Fql72IPmS8LLOt73ztZQb31XXa+rgesNl6uhyFrzuby+dCZ9ZNqvGBn709nn41qsnodgvbwWQ6kbmls+al8XBpzJhMENCweoHo7Lbr1XK46Iw3o311EEq9La4kkrFZZBfe+/l8MH5k+GHT/4QDuzfD6dPnYKNmx+CJUuXwKVSGe5/5nU4cmlUgmlmJIsEw2JHIx3D/XD9f9csssh0v1ZFcGvC5aNX3gjFBTfSLFLBgapVsyfC36xaCF//yiPw2v7XrHJcdtkM+MuvP1It0w+K5+DhvUdoZcx4qiTDYkdVLWYJbv5Z7Z3RWR6M8pqAEqGyN1zGtcsvrvgYlEdpHkm1gaov3zwfVnSOwR9/YfwyMwR37X0fhiVLl1reFz3vrf/yKgyPJRMypsG+BezIaGJhsVPGQg7glj735gEAVS7rklUPyoDrDZffuPYDcGKafQ8q5VFpRdW/3nU1FPc+D9u+/R1f0RHaL/zRF+Ghnx6En5+St0WNoqck0iTdj3WXyXfaB8xtUc4wTkJnvN9QBlyv18VBqn3XrwWT6pEU6u/+45pFUDj+thUq+z23vW8VbNr8INz7H7+Et/pHeOtM3fQp9GObEVoss1LgRvW61nJIBaaIPvGuGbBhbgt84ytfhVOn7DOp3A96W/S6y7+/T10IeSRDYIdGAJcrpvX4edpGmPYJ0qdS4Pp53f3L7yYtg6wWUIHBqracAT++ewmMXDhXB+/GzQ/Cqvetgi+9cBiefvt8WnYu57sI7Mio1M3tIoI1G7TKeVwUyOt1eeZ1a+BN2fN2z50ED984D8oXz1uDUfigl8Xn26+dgm/uOy5io2q8owiwqIxmhFZJcP3gfeXW9XC+fSqf0SYUNhumCflSCcxcDsby+ToZ1y+aBnfMmwwTCjl44dQAPHXoHBy8mNHFFwoBi4r2m/Jp5PDYbVzKhcqOcO7NB+h1uUNmqznOgdHaInf/Lq74MU1oK5uw9Cffgbbh/qo+933os3CppYWvgclA6rSmdcJU026OwA0/+643SSa36ImYgLLgerf8CYXMEeFFb4qQto6Voe3CKZi3bydMPnc0UM+v3PlJ6O/0v+NIpHJSfUcx7+rWxfQLR2HJi083LbTKhspOjfiNMg93TIFSvgBjhVYr2Rjk8BpE6+dy9SCcepM3OjoA8jkwDNyUYAJCia2WUS5DHgwwy2Mw4eIpKAz1w7x9u2o8KQugwdldcPiGu+FsawMcZKcwsFgPPhsGIMrlWay6VfXvynpcv5BZFSV2XXc9XJi1GD6y5jZ4e7AEf/6LDA80VZRqnTwxNJL4KidqneIg1Ltferou4snisTPUMoelUx5c+15R81G5d7TwqW7Gr90F6+66w/LuS6Z3wLSO8TOvRkpluOWHr/JlqEpqxb2ro6aAQaiG2TAgYg7Kg4uF8obM+Ltp06bVlPfs2bNc5cf3p0+fBv2zF8EV8+fBnCsWwuzpUzGItuDEZ0JLC7TiwlfG83evHoe/ftWe8lH+yQisjh79+7P8t9spXy+cAmYCXAvennWPum8M7F57L/z6+28PLO6xgfEN63M6/W8/yOdz0N7aCm2tbYA/iz7Ke92MwYr1gKHx4tdqT2Os1E/TjBxnOlR2C++eIsLfv+/D6+Du7pWivFXfQ2hbCi3Q3toCLYLTOf/8+kn48i9ORJZFSgblMpj4v9JYKrtzopbB57ByK8tm7c/66TMzHtcRPi54nfwdL9xSKHBBjF73vrQ2x7tABYRV8lUdUUGkvm/kc3DVqztrzjx23m2kvbRUfTSMx00KXjfE6IlbCnnI53JMkN84NwAf/clBGfUSnkeDgOou5JShc7Ds+R1+5e4z84VNe558rOZy6fiVrPYXMudxrf7ufQ90GWOjO90jzXOuvxV+7xO/Eau2nZDaARk/5g2t/2LvYfheUdLmATeg+LEMe9Ogignpyzb1qDHLkDMJbhC8LV1L4Xcf2gBzJiS77BCBzhk5yOfzcHJgBD717NtwzDnN0ecUSiOXs/qgzoFpprNyBP9bOUQtq+Euy+Ccv2NYPPPEG95bBZw/ay/LUGRmwQ2D993vvwseeM8Cqg1JT/fiqQH4/H8dkp5vI2SIwE6+dCYoLNZelljJmQY3CF78/XUPfi5VeLftPwXb92dkbpdoLFGThfRjrWWLkG/ZqvuyNC1nHlynmH6LNKzQefMGmNOZbOjsyKThtTWBwC5+6UdB67/7frVsfGtWrwKhYSY/VcOAa3nfnvs3GlDe4h60QnjTCp2PXRoFPAC9GT0vKyQG0KufouDcUOBa8AasbUaAP/3QJ2D2BHtXUVJPs8GLwE47e8Rv211V5Y12VGpStuT+TsOBWw2dPUsk8fe4Prlr7QNw/w2LE9V1M8BbMEsw8+gB6Hr9uUDd6pVP8syuYcENCp3x92mFz43W52WHw6hts2hCbuue3sdrrxWQZ8NNmVNDg1vrfWG1d2sgArys+074zeVdiVV+1uF1YJ116CXfpYkuRepBpxitqinAHe/7wpZfHSa22qvPCbMXwNUf7IHbl1wBsxMYgcbQ+fPPHoJjA7QrVmKsf1LWDqzTTr0Jc9/cG/qONa1jGtv1KDFJtcKJmgbcqvdlbMzHpZPLbr8D7uyaIaxUyouq93txKeKkwXOw4MCzoedsVcraZ4KxHfL5Pj0PS6n96GmaDtzx8Ll+6sitTvTC869dDjfdcjNcOzO+A+BwldVX9x5N3fvyeFVHT3rRRHQARXNoWnBrPTCG0GZX0PE42Beef+0NsGjxlTCrsw2WX9Ypqm/f95L2vghp6/AAtJeGgBL+uoXWobDUqhfOrOnBdQMMAN2GYW5knW+FIF+x7D2waPFimDFpgjSQEeDtr52CHx2StLuocpJEx0g/FMZK3JBaY8J2n7UIhcJ2HQYLcyb9RQ2uj0rtRRzhXtj9Gp75PH3KZGjtWgLTp02FqxYusM6umt3ZKgQ1AvzV/z0KGEaHPeg5reNlyyVoLQ1ZcE48dxQ6L5xgjfiyB5ggt0v3WaXzJi1DDS5DlQgxGOYGwxqNNoTmjRDsiTPnQKljgvW1qdOmQ6mlHWZNbIexXAHKlTOi8W+50viNd6cv9MMv3zpsvdNSGoSWgYsw6exRrjOfCZbSZ4JZBA0qQVXqJNHgctSFDbHRZYC5IaxPzJFlwklxMQT0WZCaZlFP2SSsfomf0+BGUKYFsv10GwZ6ZBzgwkfMM0cQpeZVq19qPbld1n/0NI0s1SqTjwY3hqrAo3WgVEKIu22OzS6jBmYH8DDIMXx1P4b1bzusxR+MIhjGWw6Y+F89eBRDZSqapQZX0YrRYmkNhGlAg6vtQ2sggxrQ4Gaw0rTIWgMaXG0DWgMZ1IAGN4OVpkXWGtDgahvQGsigBjS4Gaw0LbLWgAZX24DWQAY1oCS41gKGsbHVAOVua6EBwC69PC9d66qrE71bKNUKUQ5c+0KvUt2Vd/qEwPTspLJbametBGbRzLes0au10qkX9cD1OVbVUY2ZLyzShpK8oazsWW8GfFXfDp98dVhfVA7cECPRF0KlYCRBEZAjyu7eHcrZUApqSvyTyildg5u4DYR+0D9MHn9Fg5tOfWlw09F7Zr6qwVWzqjS4ataLMlJpcJWpihpBNLhq1osyUmlwlakKDa6aVaGmVBpcNetFe1w160UZqTS4ylSF9rhqVoWaUmlw1awX7XHVrBdlpNLgKlMV2uOqWRVqSqXBVbNeYvG41oL0ysO7RDHtBRiO7Lxyp129zpnPlhymiVeGFGWUoRHArerGNBfihhVLR5L0k1a9RwJ3Rc/9G60dPPbayZCT/vFIUaNIuYoxKXArZyJ320enOnfmes9DduQ2iyrtUnL0Hix3jTn12SxDn8j9P7LBRdkNKOM9xWg1RTNf2CSjgXGXeMXa9Vsod0BV3lHuitCahqbWPqsMCYG7wtoIIH4lx68ulw68rTxucG3DwZsI6i+4JraeqVX0uNGLH7jOezWmTHBX9qzHHUZ1F4vL2DwyflWMsZFYj37JLLtMwxuP31fFtkvcKUcGV5JivMqqAzgucDlbYVLd80JAytQnkd1QRjLIulypsssCNwhaKxoAc9ue3ic2ieiHx+A58u+LIxLw+76o/CRwK17qUY6CcyV1G5FscCu7W1D2upaeS8jAxPHtS41fdgCWt5MBbhi0tlrN4u7eJxbx1kccDZpbBvRsIt0LSjlEgXXyZoLLVjpFTEoaGwC/TfTO26YJa3hOwmAZHUUqahoTjE17eh+v3NlDfSs4XVKys+RmycHaHUS0H659vVGNnrN2pHtfO/qDhznlqEkeCG7CyiGVgQdcosGQvktNJKuFllGxZJkZYWoUcKl1wFOvLHmo5eZNx2rgqPnJiRLMoi+4rM3TVCFlp6NWMNVgZMtnBX0mPLznqR1bRfOODq01Ek6+x5clLwuUII9LrQPW9916ZMkSrnP3JWp0/dSEzhFPYKHqJKwcznhAHbg2tKM7uSofr3V0bo/L563ph8ptdfiTa8pFTGE8obKA4eMAWZ91811l/rMqv2F0gWku5JhasF7lMcYaw7RHvMljCfZ1mvbN8ZiPe1qlMt0FhgFbwu7yZTWGLFi84PL0y3kGpfidiVk0TWMb1qtfF8aZDuSrW/HxDH5oK3cZe25ldOq4DlyeD1BHJh3jjDqNFNXIalpPu7HZTu0z2waMUNEaH9agj7dV5TFMXr3jt3xG1QOn5Hi8nBtcRaAllau+jLS6FekO8TgTq24JdlkDLscHuAYT6oxUcB44DFy64Vst8SYqsHWykwGmt85JyV5tQO97oIu66IHqcXmgxXn83b071lC7E1S7FI10qnohLtzg+U5cdVsFl/oBnvAmrGJEFhOEgUuMFLgMJkh+aneCWsE0w6Q3BFQgKOko4MYKbcBxvbWyR2uMRbwvNaJa2bPuICFK47bLcXAJQ9SyRtZcLRxf+BkwHURsdLiVwzJsygghq4JpsovNc7Lkp/ydBS6WzxgrUefJueuA3ajJ1w2lTiiNMlt28cUnFrgkQSOsbgn1vByDYUEelw2Q/Mp1ysRqUVkVTKrciKOZFEADowurawCew9BrUuPAGGVxCz+0BG/LGvcQKTsleqNEnmGLiSpycevEKY8NLtPbxmf4tO/b4vpVEqnR4Vy4wVPZlLA5zOtGBZ9HVpG0LI9LzFPIQFkNMqtRJMpWk4wCbcUWQ6f92KsNozFlgcs0HsmrgvwUypIhEFxmo8M3ECJS2ayGL6iLwW50olWuSFm870gAVwxapreVqxu+fjr724RGh2sVoLdeDFWMh2Igfh6XBTxrSZ4M4yY0fr7GKwq8LJkp+VDqJSQfIWitKIwxpy3T2/KVkT0QlgRTBktomQpiGQoLQn9wA++1wc8JGw5L1jrPxNjB4xcuh7fK7FadV0aR9Cz7iANaSvdJVoPMVz42tBXZQ8cFZAzyIrihC55lKYhiNCxZvOCyWjYZCqLITaosnwGm0K1uEZdOUuVmpeMz7GpukRvM8L6mnEaNZW8e3ZDLxMpXBlMscMnCsgyA8neWkfCCK0NBFLmdNLxbEnnT88giKy2rTny+I8VmGLqJtB7c7tr4b+oP0BtXmcLBldPoGCq1+iwjqQM3tB8kR0E8AISF+l7vz4wWYhwJ5ykTq05EvVKYDATdRAKXB1qRrmJYF4gyjUSpH6XArbSEQXex1k0HMUISrlaSoixWGp5THljGmXS0EFQ2DnCl6Zv1TdEuEN/IMS6OENtjnYQzNHi8BMtwZfydJ3xsZHBZK65k6JqSBwsiJw+Z8rIaNRGIhcjpAAAFXUlEQVSgqOWolidCxBPKlKSxCwa44mcBUYzCm4ZZYR5lMqYMpHkAall4W9rQRirF1VLu8nIYvNSTIkJ1w+kJOcpgHaMTZROKHTUGr08WaXT87M9IIh6nGj5LwXV7PxlzfUmHm7wDKklUMFX3EkJlzEIavLJ0wxrhjaOPLkv2sLoLBTfJeVAUkjXpXgcuYx2tzPCNBQBvtJBUy8ySm/V3VmPq874UeMONnxYJslYvxQFtUvVqsGBJ1PhDFzH4jxLLDKlYRhz2d1bLzrsAQ9boY5QyWY0pe5OB3yciw8sY+WV2g+IeOQ7TazIel+W1OPsToobC8lhB3p+x2opZwaLyet9jrfryC9tZHiHJRlNSqOzOJhK8zIYwwC65R44jDEIF6SwRcFmuPalwmVlRAaNxLGCSMH52o+MfLTCjHUkjkFEaJ0GP63wyEry8jTKvrHFsCWTxJG1wyu5bhp+UH7fxsw0/+OBuFYyfFZaFTeKr0PAwugCs/bisdkEYXh675IM2+shx6qEyrR8T77EpLMNnnXTPNP4YPRcrUkD9hjV8TOOM8TR9FnE026DkIjbazIbRtksYG1vNcTpm7N2nxEJllnu3qyYeeEmGzwCPlEcM86Jsw7L1Fna9BiUPkWV3JJwIidjykc9xFvK8rEYZ9Us406kauvMcUkdQj2+SRMElGb/k1p9tFGzDt7wC6fgbuQ0PJby3pCcM7rEjDvGzmkWNz3mPVUc46MaGqyoFN7wUu6SUMcnGL1FwaV7XUhG38v0US60QqsLJ+RFAYhkCy5jH36dtdKA1PPJ0zyqf+++ssjqj5VR4Rc4lpuYdVK64BqGCvpc4uBwGRPIkwQUjb6ni6o9QK1jEeFweiHxhE4/BUBsex4vj7QXUs5Hd3hMM625gwEO3KffAUsHlaPitmx54bsHjsUuvzVHrYPyycPvA+yjXbCYOrhV2ss9wcuuGfMkzGgAaDf2eV5q3qvEOpJDZ5Q/x1Ph8y1YKALznQFMNxi0/teGpvGNfnVIobGfJH3KZNzN64gE3Vnj57NIek4HcVtYNimG3a4jOpqQCrgC8ju3ZhoQP3sNjNVvmQjDMLpHb60UMP5LsOMjhvqelKrvVAlOOH60ySA3vvd4hgmex9G46ZbDqAPXOlp0lKy+4Nry0iIrb83LDW9Vwn6WbymPbo6Uk1uVoXBGfk39q4PK0nF7jk/FvUWidb3NGDTJErolCooxcpiB7qHGKgGs1oIy1AY7CWA2Ht3I4o5LIdSuyUSVVcHlazsjaGfdVkbdUpQkvrxEG6c2G19xI8AgyVB8LuFzwcg4YUhsFGcrJJLgRQk8RnQmFJWEf4u2XightvyN/JY7t6Wg3yInLzZ5mEvW41QaU5nm56z6JuhVtiFP3uOPKx3tby1vi8gCiCqIYbIR+IyV7TMNtdNSMeRfMU/N1pWPKHg4ubQCR7SFp+XjLF3PdMnUTpO/wI4zEjsPxfsv3Rno/gcZHhbFjz+zUk2xI5J5XUsY+iWIIP60Rddaopai87vfi8L482waDPQgduNADGyIuSa00Llt4BxH96oZ6P214pBe89l90pFoY3BpDsk6eEPXAtGF6GQYf1ADZt7TzjRQ7ecmoWNGyjRuo2SXaeIo0lkGNHu8goj+8dPhZeoviXET0EiRPSCQg7MWlgFsNoXFu1n668f8MA2FAo3Ieo1idosApIoFFA6zKEv27VcmO7NWpE0d2jCiwgalMb0Ful5VUPfm763Xu0b31z9yuqLJX9NWN00zWtBlh/ti34bSPG9qAdmLplziPzlvPNsRGF05JjuvIU6+V6b84oiaEF0qlDfhteyoqt0vmd/4f0bfbmpCyyecAAAAASUVORK5CYII=;" vertex="1" parent="1">
          <mxGeometry x="394" y="398.19" width="40" height="33.61" as="geometry" />
        </mxCell>
        <mxCell id="Jk-irx_BUGMkfZiygmR6-18" style="edgeStyle=orthogonalEdgeStyle;rounded=0;orthogonalLoop=1;jettySize=auto;html=1;entryX=0;entryY=0.5;entryDx=0;entryDy=0;endArrow=openThin;endFill=0;" edge="1" parent="1" source="Jk-irx_BUGMkfZiygmR6-11" target="Jk-irx_BUGMkfZiygmR6-13">
          <mxGeometry relative="1" as="geometry" />
        </mxCell>
        <mxCell id="Jk-irx_BUGMkfZiygmR6-11" value="Minio" style="rounded=1;whiteSpace=wrap;html=1;fontFamily=Source Code Pro;fontSize=16;" vertex="1" parent="1">
          <mxGeometry x="365" y="310" width="80" height="70" as="geometry" />
        </mxCell>
        <mxCell id="Jk-irx_BUGMkfZiygmR6-9" value="" style="shape=image;verticalLabelPosition=bottom;labelBackgroundColor=default;verticalAlign=top;aspect=fixed;imageAspect=0;image=data:image/png,iVBORw0KGgoAAAANSUhEUgAABTEAAADICAYAAAAwVqWPAAAAAXNSR0IArs4c6QAAIABJREFUeF7snQmYHGW1/t9TPZOFLSAgqCAISGCmO4gJpLsnQHKBTHciuAHi1Yui4r3iAgpIEIghEEggLIJyQVAB71UQRLZkegJIgKS7A8mFzHQPRJFdZJMdMslM1/lTIeEPkmSququqa3n7eXwMz5zvnPf8ThFm3vm+rwT8kAAJkAAJkAAJkAAJkAAJkAAJkAAJkAAJRIbAkj0O3HqwZdiWhmGOMmvGloboliI6Sk3ZEoItFLKVqI6CYBSALYE1/7/uf9u4B0Kfg8qrELwK4FVVvCLWnxWvqqGviMqrqvKKQF9RQ15NmOYrZk1e7R/R/8qkBxe+4p4OZooCAYlCE+yBBEiABEiABEiABEiABEiABEiABEiABKJOoJiavAfE+Bhq8jGBuT0g26uB7QFsJ6ofAWQ7AB+KDgd9DpBnBXgW0OdUjGdh6rNq/bMhzySk9uT4ngWPRadfdrIxAjQx+XyQAAmQAAmQAAmQAAmQAAmQAAmQAAmQQAAIFPf6zMd0sDbagLkLxPgEFDtDdGcFPiHARwIgMZgSFI9D8Bggj6uYjxmKx03o34YNN6vjlt1h7QLlJwIEGjIxl4zp3M805d+sf5EUsg1gWluSlwvwlAH9m4mWRzOVeQ9FgBNbIAESIIGGCSwde9Co2qphnzRR20VEdlGV3RX6MVF5EaIvCvRRHZSbMw8XHm+4WMQTFJP5bwj04xFvs+H2RPFwulq4tuFEEU9Qbs+3maJTRfXjENlGgQ8J8AhUnhQxnzENeUbMxDP9LW/+g8eaIv4wsD3fCJST+ckKzfpWMNSFZCBT6ZoV6hZsii+m8geI6iSb4Z6FKeTJbKXr154VYGISAFDaI7eztKINqnsCaFPIHgCSALYgINcJPKuCPlFURLHC+rNpmH0dPQued70SE3pKwLGJubhtyqeMRO1YqHwOwLY21T2tQB9Ubxk2MOy6cX+59UWb6xhGAiRAAqEl8M7fl+YXoegEsBuArew0o9AHBcYNratbLuffl+snVkrmFgHosMMzzjGquDlbLVj/vebnXwgsGn3wRxOtxrECOUyB0Q4APQbFn0Txp3RfwXoO+SEBEqiDQCnZOReQE+pYGsclb2UqhU3j0Hgx1Xm6qMwMQK+LM5XChADooISIEFiy15Tda4PmWAg+LcA4vPO/zSLSXpjbeFmgvQpULWPTMFE1geXZavdLYW4qytptm5ilVP4rUD0WQOO/MVXcCZE/qprX8eGI8uPF3kggfgTKydwYU+UwgX4Jgt0bJSDQa0xJzM32zu9tNFeU1tPEtDdNmpgf5LQ4NXl/MY3vi+AwexQ3GvUCRG8S07goXe3qcyEfU5BAbAjQxHQ0apqYjnC5EkwT0xWM8Uxyf2rqLoNq7mMZllDdl4ZlKJ+DF1XQY5i6CKKLzFdeX5R9urQylJ1ETPSQJuaiMbnRhuKPomj3oPcBAJcNtMqZ+z/Q9YIH+ZmSBEiABHwhsCQ5ZZwJcy6AA7woqIpfrnqz/7hJjy/s9yJ/2HLSxLQ5McEtmd7CZ21GRzrMus5hcFXiKsWakyTufwQFhczO9nbd7X5yZiSB6BGgielopv2ZSmGkoxUhDS6m8tNF9YwAyKeJGYAhhEHC4jGTP2zUjDQM7COKffSdHZZbh0E7NToiMAjVZSJyj6rc2zpi4B7es+mIn2vBGzUxS+35YyB6EYBNXKu4/kRvvL2Veu4mhjl3r54Fb3pci+lJgARIwDUCi5P5XRPQcxRrdnUN+YuhRgoLsMIw9Yv79nVXG8kThbU0MW1OkSbmGlDlMfm0mvoHADvaJNdIWFlF5mR6u24WQBtJxLUkEGUCNDEdTZcmpiNcrgTTxHQFY/SSWPdYohUTYa7ZuDARgp2j1yU7skHA+h6vRyELAb27JomF+/XOe9nGOoY0SGCDP3AX23OXi+DbDeZ3uvwFVT0jW+3+hdOFjCcBEiABPwnc1zZl+0Exz2jC35NQmIdkKwtu87PfoNWiiWlvIjxODpRSua9D8Rt7xNyLsn7pAOisdKX7t+5lZSYSiA4BmpiOZsnj5I5wuRJME9MVjOFPcl9y8o6DSBwM6EQAB/Ht4OGfqYcdLIfqvWoYdw4bNnAXd2p6Q3q9JmapvfMSiHzPm5JDZ1XgUShOy1QL13IXw9C8GEECJOAfgUWjD908MWz1j6H4IYBmXbK/WmFOylYWFP3rPFiVaGLanEfMd2IWU/nPieofARg2iXkR9jQUF7SOaL183LJb3/KiAHOSQBgJ0MR0NDXuxHSEy5VgmpiuYAxfEsUMY0lbOWsKpopgCoAx4euCigNAYBDAYgXmGSrzeHe6exP5gIlZSuZ++nb6Ge6VqD+T9YZeA8bJ6UrXgvqzcCUJkAAJuEOgnOw8TiGnB+Semzdg6AGZnu7/c6e7cGWhiWlvXnHeiVlK5fNvX6Y/3x4pX6JeguDS1lWtPxv3l1tf9KUii5BAgAnQxHQ0HO7EdITLlWCamK5gDEeSu9ombjZcRhwigkMVmhPIluFQTpWhIaB4HIL5IpiX7i0E6fvT0CBcJ/R9JmY5OflghRFEw/Bu0zSO7+ib/2DoCFMwCZBAqAkoIEuSnV9VlZkBvPPmaX3l1d3j+KY8mpg2/7WK6U7McvLA7RStj7x93/ZmNkn5GWbtxvyVGHJuuqfraT8LsxYJBIkATUxH0+BOTEe4XAmmiekKxuAmWTr2kE1W9w9YLz/8EgQ5AYYHVy2VRYzAywL9E2Bc92RlszuPwPW1iPXnaTvvmpjFHTIjZctRfwXwMU8r1p/cujj1ehPyk45K19/qT8OVJEACJGCPwNqdXLODfIxERC9K93ZbR9tj9aGJaXPcsTUxO//k2VvIbaK3EWYdM7q2ZuCsCT2FFTbiGUICkSJAE9PROGliOsLlSjBNTFcwBivJ/N3yw0cNxyEC/ZIIpgIYGSyFVBNDAi8A8kdAr0tXCnfzOsWhn4B3TcwQfSMx8LbResVAq8zY/4GuF4ZukREkQAIk4IzAkuSUcSbMiwB0OFvZlOiaiDk+3btgWVOqN6koTUyb4GNoYhaTkz8jMG61SSgIYQroPDFlTrqvsCgIgqiBBPwgEKKfPfzAMVQNmphDEXL/6zQx3WfatIzW9/YK81sKfBnAFk0TwsIksHECT4vqrw3RK/etLHiKsNZPYI2JWR6T30FNDRuktwC9sDYwfM6EFbe8zgGTAAmQQKMEluw1ZXezZp4D4AuN5vJzvUDvSVe6D/CzZrNr0cS0N4E43olZSuasY+S72iMUuKiyqM5NV7utlxHxQwKRJkAT09F4eSemI1yuBNPEdAVj85IsHXvQqIFVrUcB+k0AezVPCSuTgHMCAnSbiquz1cLvna+O9oo1JmYpmT8V0LNC2qp1Uf6sTG/hgpDqp2wSIIEmE3jn/rxhMwD9ryZLqbu8CdktTldt0MS096jEzcQspvIHiOpCe3QCHKX4C4CzM9XC1QFWSWkk0BABmpiO8K3MVAqbOFoR0uBiKj9dVM8IgHyamAEYQj0Sym25CWrINwA9up71XEMCASPwT4j8SgYHr0w/dLt1/WPsP2tNzNzjAHYKNQ3F4yI4fXyl8L+8RyDUk6R4EvCNQHm3/BYYodMUOA5AyH84kLMzla5TfYPX5EI0MW0OIGbHycvJzqsVcpRNOmEIewKQ8/WVV66M4wu8wjAgaqyfAE1MR+x4nNwRLleCaWK6gtGfJO+8XXz410SM/wI06U9VViEBXwlY74i5U1QvW7ntqpsnLVxo3a0ey49EZtfC/x/fclWdlq12F2I5UTZNAiQwJIFq2+HDXjde+75CfgLgQ0MuCEOA4pl0tbBDXH6JQxPT5kMZIxNz+ZjJm75pGv+M6NtFX1SRS4YNG/jZuGV3vGpz+gwjgUAToInpaDw0MR3hciWYJqYrGL1NUkxNSYmaP8A7d11u6m01ZieBYBBQ4B9QubJFalfE8e5MKSU7zwIkirt37jZgnDi+Mn9pMB41qiABEmg2AcUMo5wqHwWVMwD9eLP1uF1fVNrT1a4+t/MGMR9NTJtTiZGJWWzvzIlIl00yYQ17U0SvGFxtnjdhxe3PhLUJ6iYBiwBNTEfPAU1MR7hcCaaJ6QpGb5KUx+TTWtOzIDjQmwrMSgKhIFADcL2onBmXnwGtqUgpmbsRwOdDMaI6RKriBhWZFqe74urAxCUkEHkC77yxOHFOlI+YiOphcXkhCE1Mm//KxsjELKVyP4LifJtkwh42AMX/KnRWttptvciIHxIIHQGamI5GRhPTES5XgmliuoLR3SRr3zJ+lgKd7mZmNhIINwHrRUAKzM5UCuG/G36IUVgmZhVAW7hHNrR6Vfxy0NQZ+z/U/Y+hoxlBAiQQFQJrflNr6lwAHVHpaYN9KE7PVAthfUmbo/HQxLSHK04v9im25y4XwbftkYlQlOAW1IyzM33zl0SoK7YSAwI0MR0NmW8nd4TLlWCamK5gdCdJsS2/txjmTEA+405GZiGByBK4HypnZqpdt0a1Q8vEtC4IjcunX4AL0S+z0490vRaXptknCcSRwJK9puyutdochXwuLv0L9Jp0pftrceiXJqa9KcfJxCwlc3cBmGiPTPSiBHoPBBeke7tvjl537CiKBGhiOpoq307uCJcrwTQxXcHYWJJ3zEs9DcAXGsvE1SQQOwLL1MDJ2Z7CnVHrPG4m5rr5/ROCs7eobf7z9r7rV0dtqOyHBOJMYNHogz+aaE3MBPB1AImYsfhDplL4Uhx6polpc8pxOk6ezC2KxY7roUe/XBVznq5u/ocjcL11VxI/JBBIAjQxHY2Fx8kd4XIlmCamKxjrS2KdpIKpM3hsvD5+XEUC7yFwhwHjlCi9KyauJua6mT6Fd45fXs3HnARIINwE7k1N3apFB08F5IRwd9KIer0uU+k+spEMYVlLE9PepGK2E5Mm5vsfiydUcE62t3C5vaeFUSTgLwGamI548zi5I1yuBNPEdAWjsyRLxnTuZ5rWCzgxydlKRpMACQxB4E+q+uMo3KUedxNz3Zx7Degp4yvd8/jokwAJhIvAXTtPHDFi0+E/gMg0AFuFS73rarkT03WkIU/InZghH6Ar8p8H5GLpxyW8SscVnkziEgGamI5AciemI1yuBNPEdAWjvST3tU3ZvmaYFwKIxS/j7VFhFAm4TmA1BOf2v94/a9LjC/tdz+5TQpqY7wG95j4pwzg53dNV9ok/y5AACTRAoJjMffPtI+NnCvCRBtJEaCl3YkZomK60wp2YrmCMSpI3Ab1soIbz+ZLDqIw03H3QxHQ0P+7EdITLlWCamK5gHDpJKZX7ERTWVVCbDh3NCLcJKPQVgfECoM8r8KYBfUshb0L0LVXjrXf+Gc6v4FMdAZFNAGyigk3Emq/C+ufNAGwHYNu1f3a7JeYbmsDTIvq9sN6jThNz/QO+tWbgpAk9hRVDz58RJEACfhMotecOhehsQPb0u3aw69HEDPZ8/FdHE9N/5qGoqLhKzNrZ6Ydu/2so9FJkJAnQxHQ0VpqYjnC5EkwT0xWMG05Sas93qKGXi6Ld41IxTC9PCszHTZXnRfQFUbxgGnhBdI1Z+ZyK8c+WGl7Yt2/+s82Gc19y8o6DZmIbSZhbA8Z2amJbEcvg1A+rrvmzZXjuDGD7ZmuNYP35hmF+b3zPgsfC1BtNzI1P68raQO2nE1bc/kyYhkqtJBBVAuW23AQ1cD6AfaPaY2N90cRsjF/0VtPEjN5MXe7oWjXl3Gxf1wMu52U6EhiSAE3MIRG9N4BvJ3eEy5VgmpiuYPxgkqVjDxo1sKplLoBveVQi+mkVz0BgGU+PieqjphhPGGo+Jgl9PGyGlN1hWVeIDd982M4wZWcR4xMQ7CyqnzCBTwjwCQBb283FuPcTeHun7U+ylcI5YeFCE9POpFTnyCrjbN4lZQcWY0jAfQKl5NQ9VWvniOCz7mePUkaamFGaphu90MR0g2IsctylMC/IVhbcFotu2WQgCNDEdDQG7sR0hMuVYJqYrmB8f5JSsvMIQC4B8GEP0kcxZQ+AXhFUTFMfNBPyGE+Lrn/Md7VN3GykMWIXE9gVKnsbYqYUkoL1z/zYIdBrKr7ZUS3cbye4mTE0Me3Tfxmqs/vfXHVxmC9Btd8uI0mg+QSs4wU1NWZC8PXmqwmDApqYYZiSnxppYvpJO/y1FPogVM7NVgu/D3837CDoBGhiOpoQTUxHuFwJponpCsZ3kpTH5HcwTb1MgKkupo1SqqcB9AD6gKpUDUE1XSlYBiY/DRIo7pAZKVtsNQZSS4mBdlXZG8AYvhB2/WAV8rNNjdqpe/UseLNB9J4tp4npHO3foXJGptp1hfOlXEECJGCHwL2pqVu16OCpgJxgJ54x6wjQxOSz8H4CNDH5RNRDQIFHDcX56Wrh0nrWcw0J2CFAE9MOpXdjaGI6wuVKME1MVzACpVT+K1C9jC9xeR/Q/wOkYCruTKzCUp74dOlhc5DGMtah5lhVmQzgEAA7Olge9dAnoPKVTLVrcRAbpYlZ91T0IahMy1QLt9SdggtJgATeR2DNb8pGbfkDiJ4CYBTxOCVAE9MpsajH08SM+oS97k+fg8qcfu2/YlLfwje8rsb88SJAE9PRvGliOsLlSjBNTBcwFlO5n7/9UpnvupAq1CkU+AcEC0X1JlXcka12vxTqhiIovpiavAcgB8k7puZEAJtHsE1HLanIT7O9XTMdLfIhmCZmo5BVl0ATx2X65i9pNBXXk0BcCfwBhyd2bH/jG4DOgOCjceXgQt9/yFQKX3IhT+BTlJK5RQA6Ai+02QIFt2R6C7G4S5bPhKcP26vWLpqBYcb5+z/Q9YKnlZg8NgRoYjoadX+mUhjpaEVIg4up/HRRPSMA8mliNjCE4l6f+ZgMDt4KgXV0N4YffUhV7jUE99Zqxr0dD81/IoYQQtuyAlJKTUnCrO0vgv2gsl+Mf0ZdlID57/tWFjwVlIHSxHRvErcCiZMzlXkPuZeSmUgg+gRKydwXoDgHgt2j363XHXInpteEw5afOzHDNrHg6xXorxPSMmuf3nmPBl8tFQaZAE1MR9PhTkxHuFwJpolZJ8bF7fl/M0SvA7BNnSnCuux+Ba5vgXltkAyfsMIMmu7SmM5PiylHKuRLgH48aPq81KPQVyDG0dnerpu8rGM3N01Mu6Rsxgn0GjPR+pPs8tv+bnMJw0gglgTKbbkJauACAPvEEoAnTdPE9ARriJPSxAzx8AIuXYDra6Zxdkff/AcDLpXyAkqAJqajwdDEdITLlWCamHVgLCXzpwJ6Vh1LQ7lkzQvxBDeqGr/rqHT9LZRNULRjAsXk5KzAOBLA5wHs4DhBSBeoypnZatf0ZsunienNBPoV+HlNEmfv1zvvZW9KMCsJhJPA4jGTk4ZpzAEwJZwdBFo1j5MHejxNEMfj5E2AHq+SCixQlTkd1a4/x6tzdtsoAZqYjgjyOLkjXK4E08R0gHHp2INGDaxquQHAQQ6WhTF0AMDdgNySQO0m7rgM4wjd1Wzt0IQph0JxaByuT7A2SAwb0frv45bd+pa7JO1no4lpn5XjSGvbrQDn9b+x6oJJjy/sd5yAC0ggQgTuS07esQbjbABfjVBbAWuFOzEDNpCmy+FOzKaPIDYCFFgq0PMyle4/xKZpNtoQAZqYjvBxJ6YjXK4E08S0ibGcmjxWNXFjxI/YLofgIlkpN/JN4jYfjBiGvfPzbuIohX5XgI9EGMHyBMxDmmXi08T04cmy3kYmKj/NVLuu8KEcS5BAoAgs2ePArc1E66kQ/DBQwiIphiZmJMfaQFM0MRuAx6X1EnhMBXOyvYXL603AdfEgQBPT0ZxXZiqFTRytCGkwX+wTrsGVk7mvKvDbcKm2r9a6Kq4mcllHb6FkfxUjSQAoJTuPAOQ7a990HkUkL4khU9M9XWW/m6OJ6SNxAVaYgtOzvYXrfSzLUiTQFALFHTIjsdWWJ4nqSQA2a4qI2BWliRm7kQ/RME1MPhHNImD9AteAXNAyvOXSZh45alb/rDs0AZqYQzN6TwR3YjrC5Uowd2IOgbGUzP0AwM9coR2sJC+qyCUqtcs6ehY8HyxpVBM2AuX2fJsJPU4ERwEYETb9Q+lV4AvZSuFPQ8W5+XWamG7StJtLdQlgnJCpdi22u4RxJBAWAndNnNgy4sXh3wLkpwC2D4vuiOjknZgRGaRrbfBOTNdQMlF9BNZerfMLY3DwwvEP3/nP+rJwVRQJ0MR0NFXeiekIlyvBNDE3grGUzFnf589whXRQkigeUMhFo3Sza9v7rl8dFFnUEQ0C96ambtWK2n+q4rsRexmQAvLdTKXrv/2aFE1Mv0ivp44C89Qwp3X0LKg0UQZLk4BrBIrtuS+LYCaA3VxLykQOCHAnpgNYsQjlTsxYjDlMTV4qhpyT7ul6OkyiqdUbAjQxHXHlTkxHuFwJpom5AYzlVOeFqnK8K5SDkERwiwnz/I7eBfcEQQ41RJ9AMdX576LGKYAmo9Otnp+pdJ/oRz80Mf2gPFQNwdUJNU9v1sWoQ8nj10lgKAKL2/P/JqJzBBg3VCy/7iUBmphe0g1jbpqYYZxaDDSr/E6AWelqV18MumWLGyBAE9PRo0ET0xEuV4JpYq4HYymZs97x8C1XCDc5iUB/rWiZm6nMe6jJUlg+pgTW/gz9IwGmRgTBtZlK4cte90IT02vCDvKL6EUyMHgWj1s5gMbQphJYPGZyMmEacxXobKoQFl9LgCYmH4X3E6CJySciyASsEykQOS/b23V3kHVSmzcEaGI64koT0xEuV4JpYv4LxlIydyWAb7pCt4lJLPNydQ2n7f9Q9z+aKIOlSeBdAsXUlJSoad0vOykCWP4nUyn8h5d90MT0km59uV8DdI6+8tqF2adLK+tLwVUk4C2B0h65nZGQWRC1ftMi3lZjdgcEeCemA1ixCOWdmLEYc9ibfPsXYSVDdM743u5bBNCw90P99gjQxLTHaW0U78R0hMuVYJqYazFaF94tSXZeqZBvuEK2eUmWi5jfTPcuWNY8CaxMAhsmUErmvwTo+QA+FnJO/5uupI8SzDC96IMmphdU3cn5rApmZHsLl7uTjllIoHEC9+yd37Z1QK1LvI9tPBszuE+AOzHdZxrujNyJGe75xVD9wwI9O13p/m0Me49dyzQxHY2cOzEd4XIlmCbmWoylZO4XIf/e/yWoTMtUu6yj8PyQQKAJLB17yCYD/aunQ+TkQAsdUpz8JlPp8uQXHzQxh4Tf9IBHVPCTbG/h+qYroYDYElg+ZvKmb5mGdVHvjwFsElsQgW+cJmbgR+SzQJqYPgNnObcIPA3FBa0jWi8ft+zWt9xKyjzBIkAT09E8aGI6wuVKME1MAKX2zksg8j1XiDYjieLCQSNx5n69815uRnnWJIF6CdyfmrrLoNbmAvh8vTkCsO7STKVgvY3d1Q9NTFdxepdMgaUQOZH3RnnHmJk/SGDp2LGtq/u3+baITAfwYTIKPAEeJw/8iHwWyOPkPgNnOZcJvCSqPx8wWi7iD6Aukw1AOpqYjobA4+SOcLkSHHsTs9ieP15EL3SFps9JrF/iSg3HZx4uPO5zaZYjAVcJlNrzHRC1dkPv5Wpiv5IpfpSpFlz9e4Qmpl/Dc6uOoGCKeVJHz4KKWymZhwT+lcCau2/ac19SwVkAdiWh0BCgiRmaUfkklCamT6BZxmMC1m7MK2sDtTkTVtz+jMe1mN4nAjQxHYGmiekIlyvBsTYxy6ncFFXcCsBwhaZ/SV5Vka9ne7tu8q8kK5GAtwQUM4xysjQNkDMAtHhbzfXspsL8bLay4Da3MtPEdIukv3msS+9/h0Gcxt8u+Qs+DtXKyckHK4zZAD4dh34j1iNNzIgNtOF2aGI2jJAJAkVgUIHfmwZmTegprAiUMopxTIAmpiNkNDEd4XIlOLYm5to3JS8BMNIVkv4lKSdgHrFvZcFT/pVkJRLwj0B5TD6tpv4BwI7+VXWl0koB0ulKoceNbDQx3aDYzByKC1sHWs8e95dbX2ymDNYOP4FiW35vET0PggPD301cO+CdmHGd/Ib65p2YfCIiTOBGMeS8dE9XOcI9Rro1mpiOxss7MR3hciU4libmfcnJO9ZgLA3dNVKCszK9hdNdmTyTkECACSwde9CowVUtVyhweIBlrkeaPlcbMD/txokampjhmvyG1L6uoudtKnrBXj0L3oxGS+zCLwKLk/ldDZizADkCgPhVl3U8IcCdmJ5gDXFS7sQM8fAo3SaBRQZ09vhK9zyb8QwLCAGamI4GwZ2YjnC5Ehw7E9O6C39g1bbWL4bCdBrrCVNxeEe1cL8rU2cSEggJgXIy91UFrLsytwiJZEvmonQlfYBghtmIZpqYjdAL3Fp9TlRmrty2/5eTFi4cDJw8CgoUgXv2zm/bOqAzABwDoDVQ4iimXgI0MeslF9V1NDGjOln29UECvQKc+2Rl898fgetrBBR8AjQxHc2IJqYjXK4Ex87ELCXzvwb0aFfo+ZFEcVW/9n9/Ut/CN/woxxokEDQCi/ecspORMH8HIBs0bRvSoypnZqtd1kuD6/7QxKwbXaAX/k0Vp2erhd8HWiXFNYXAotGHbp5oXXUyID8EsElTRLCoRwR4nNwjsKFNy+PkoR0dhddNQJ4EMFdfeeXK7NOllXWn4ULPCdDEdISYx8kd4XIlOFYmZqk9fwxEf+kKOR+SiOLL6WrhWh9KsQQJBJ5Aqb1zNkRODrzQtQJNlQM7ql1/rlcvTcx6yYVgnUIfhBjHZ3u77g6BXEr0mMDaIyLfAXAagG09Lsf0zSHAnZjN4R7cqtyJGdzZUJnXBF5U0YuHDatdPG7ZHa96XYz5nROgiemIGXdiOsLlSnBsTMzSmM5PwxTrGHkYTma9riKH8OdbV55xJokQgVIy/x1ArePlYbge7tnW1a2pet/rQhMzQg/uhlvR200z8eOOvvkPxqJdNvk+AgpIOZX/d6ieCeATxBNpAjQxIz1zVUTSAAAgAElEQVTeOpqjiVkHNC6JGIE3oLgioca5+/bNfzZivYW6HZqYjsZHE9MRLleCY2Fi3rXzxBEjNhvxMICdXKHmbZIXEqZO2revu+ptGWYngXASKKc6P2uqXCfA8KB3oMC8bKXwmXp00sSsh1p411yLQZySebjweHhboHInBIrJyZ8RGLMAjHGyjrFhJcDj5GGdnFe6eZzcK7LMG0oCiqsUOitb7X4klPojJpompqOB8ji5I1yuBMfCxCy1d14Cke+5QszbJE8ZhnnA+J4Fj3lbhtlJINwEiqn8AaJaADAi6J2oytey1a5rnOqkiemUWPjjB1Twy8EWOWP/B7peCH877GB9BJYkp4wzYc4FcAAJxYoAd2LGatw2muVOTBuQGBIzAirQm03TmJnt63ogZr0Hql2amI7GwZ2YjnC5Ehx5E7PUnu+A6CJXaHmb5LHaQG3ChBW3P+NtGWYngWgQKCYnZwVGVwjeXP6qJlras8tv+7sT8jQxndCKVqz1FrfzNzHM8/bqWfBmtFqLbzeLk/ldRXW2CA6LL4VYd04TM9bjX0/zNDH5RJDAxggsVNU52Wq3tWOBH58J0MR0BJwmpiNcrgRH2sRcPmbypm+ZhnUsO+DHyOWvplGb0NGz4HlXpsokJBATAovbpnzKMEzr5TlbBbplxZ2ZauEgJxppYjqhFc1YazfmWZlK4eJothePrsrJA7cDWs9Q4D/j0TG7XD8BHifnk/F+AjxOzieCBGwR6BHo3HSl+7e2ohnkCgGamI4w8ji5I1yuBEfaxCwlc9bPft93hZR3SfqMwYH9xz985z+9K8HMJBBdAkvaO/cyRe4J/I5Mxdcz1cLVdidBE9MuqYjHKfAoRE/P9Hb/XgCNeLuRaW/R6EM3T7SuOhmQHwLYJDKNsZF6CXAnZr3korqOOzGjOln25QEB63shgcx9uR+/nvJI1yoPSjDlewjQxHT0OHAnpiNcrgRH1sQst+fbVLQS8LcYPzbQKuN5/ZkrzzKTxJhAOTV5rKqxEMBmAcbwYm1g2C4TVtzyuh2NNDHtUIpRjEIfhMq0bLXQHaO2Q9dqte3wYa/J69+F4FQAW4euAQr2igBNTK/IhjUvTcywTo66m0vgeQUuMvrlF+lHul5rrpToVqeJ6Wi2NDEd4XIlOLomZrLzboXs7wolb5I8lYDZsW9lwVPepGdWEogXgfKYfFpNvSvQL/tR/Xmm2m1rdzhNzHg9v/a7VdxpiDFtfGX+UvuLGOkHgXKq82hVYwagH/ejHmuEiQCPk4dpWn5o5XFyPyizRoQJvKnAf7eYxvn79s1/NsJ9NqU1mpiOsPM4uSNcrgRH0sQspfJ5qM53hZA3SV5T1bHZavcj3qRnVhKIJ4FyKjdFFfOC3L2h+qnx1e7lQ2mkiTkUoXh/XQW4oQY5paPS9bd4o2h+90uSnVNNyDkAUs1XQwUBJcCdmAEdTNNkcSdm09CzcHQIKLBKgN+2SOKcfXrnPRqdzprbCU1MR/y5E9MRLleCI2di/gGHJ3ZMvv4wgN1cIeR+ElMNTM72FO50PzUzkgAJlFO5aaqw/ISgfu7PVAr7DiWOJuZQhPj1tQTkMsHqGenKnc8Rib8ESm1TxsMw5wA4wN/KrBY+AtyJGb6ZeauYOzG95cvs8SOgihtgGDOzvfN749e9ux3TxHTEkzsxHeFyJThyJmapPX8MRH/pCh0vkghOyPQWLvAiNXOSAAm8Q6CU7LwWkC8FlofKoZlq160b00cTM7DTC6Swfgjm1lYPO9fupauB7CIkopbsNWX32qA5SwSHhUQyZTadAE3Mpo8gYAJoYgZsIJQTGQIq+DPUvDBbWXBbZJryuRGamI6Ar8xUCrF4gWMxlZ8uqmc4ouNNcPRMzGT+iQBfRxWb00TePK7MSgL2CBR3yIzEVqPuF0W7vRW+R5UzlUKGJqbv3CNf8EVVmTVKN7u0ve/61ZHv1ucGF40++KOJ1oT1zdvRABI+l2e5cBOIzTeApWRuEYCOcI/LB/U8Tu4DZJaIOYFlKpiT6S3cIIDGnIWj9mliOsLF4+SOcLkSHCkTM8i7MBX4h9Eve/BFaq48t0xCAkMSWNLeuZcpYr37pGXI4CYEqMjEbG/X3RsqzZ2YTRhKZEoqHhfR6eMr3f/Db9wbn2p5t/wW5nA9RQTHARjZeEZmiCEBmpgxHPpGW6aJySeCBHwiIH+F4rwtdLOr+Qtee8hpYtrjtDaKJqYjXK4ER8bEvGvixJYRL478W4B3YU7KVAoLXZkak5AACdgiUEp2/gSQWbaCfQ4SoDtdKeRoYvoMPmblekRwSrq3EOQ33QV2JHftPHHEyM1Gfk+hpwD4UGCFUlgYCNDEDMOU/NRIE9NP2qxFAtZWzH+I6kX9uurSSX0L3yCSDROgieno6aCJ6QiXK8GRMTFL7Z3fgsgVrlBxP8mlmUrhu+6nZUYSIIGNEVDMMMrJchnAPkEkZRpmqqNnQWV92rgTM4gTC6+mxQaM48dX5ltbk/kZgoD1F8eSVOlrqmIdHd+RwEjABQI0MV2AGKkUNDEjNU42EyoCr6rivweHyQX7P9D1QqiU+ySWJqYj0DQxHeFyJTg6JmYy99eAvpH8WX3l1V2yT5dWujIxJiEBEnBEYNGY3OiECetFha2OFvoQLNBr0pXur9HE9AE2S6whcKORME4Zv3z+X8hj/QRK7blD1cDZAb5Ql6MLJwGamOGcm3eqaWJ6x5aZScAegX5ArjJrMrvjoflP2FsSjyiamI7mTBPTES5XgiNhYi5OTd7fUGODd8u5QqrOJKJ6WLra/cc6l3MZCZCACwRKqfwcqP7YhVSuplBg1bDhg9uNW3bHq/+amDsxXUXNZO8hMKiKXxsyMD1dufM5knmHQKltynhI7WcQGU8mJOABAZqYHkANdUqamKEeH8VHikAN0BtEjZnpaldfpDqrsxmamI7A0cR0hMuV4EiYmKX2/P9C9N9dIeJukoWZSmGSuymZjQRIwCkB623lsuWoFUE8GSrQ49OV7p/RxHQ6VcY3SqBfgAvRL7Pj/Ma5UnLqnoLBsxXyuUaBcj0JbJiAXpepdB8ZB0J8O7m9Kavi5my1EIu/d/hM2HsmGNV8AgrMU5ULOqpdf26+muYpoInpiP3KTKWwiaMVIQ0upvLTRdW6aqnZn9CbmEv2OHBrs6X1xWaDXF/9Fknsuk/vvEeDqI2aSCBuBMrtnV9UkRsC2PfDmUphT5qYAZxMTCS9JNCzNze3uCROb+1cNPrgjyZaW84C9CgAiZjMmm02jwB3YjaPfTArcydmMOdCVSTwDoH7FJidqRRuEljvBIrXhyamo3lzJ6YjXK4Eh97ELCfzJyr0PFdouJlE9IpMb/e33UzJXCRAAvUTUEDKyZz1Ep22+rN4s9IU84CO3gX3vDc7j5N7w5pZN0hAnoToT9O96WsEM8yogro3NXWrVq2dosD3AYyIap/sK3AEaGIGbiRNFkQTs8kDYHkSGJqAACtMyLnDhj//23HLlg0MvSIaETQxHc2RJqYjXK4Eh97ELCVzPQBSrtBwL8ngoDm46359dzzpXkpmIgESaJRAMZX/nKj+qdE8Hqz/VaZS+BZNTA/IMqVTAlJR1E7JVhbc5nRlkOPv2nniiBGbjjxOxZwmkC2DrJXaIkmAJmYkx9pAUzQxG4DHpSTgO4G/Q3BB67DWy8Ytu/Ut36v7XJAmpiPgNDEd4XIlONQmZrG9czcRsd5KHqwPd2EGax5UQwJrCQR4N+ZLT1U2//ARuL62bljcicnHtqkEVHGvqHFSpm/+kqYKcaF4qT1/zNunwWZA8FEX0jEFCdRBgHdi1gEt0kt4J2akx8vmokvgZVX5eaK2+mfjH77zn1Ftkyamo8m+lakUNnW0IqTBxVTn6aIyMwDyQ21iltpzp0FwZgA4vk+CWTN27nho/hNB00U9JEACwOL2/GGG6PWBYyF6cKa3+w6amIGbTLwFWT9oJ1qMH49fPv8vYSNRTOY+L8DZAPYIm3bqjRwB7sSM3EgbbIg7MRsEyOUk0FQCK1Xwa0Nkdrqn6+mmKvGgOE1MR1C5E9MRLleCw21iJvO9gCZdIeFWkhh9T+IWMuYhAT8JKGYY5WTpGUC287PukLX+ZQc3d2IOSYwBPhKwtghfVRuoTZ+w4vZnfKxbV6lSe74DMM+HyPi6EnARCbhPgCam+0zDnTFGPzDw7eThflSpfqMEBgFcJypnp6tdfVFhRRPT0SRpYjrC5UpwaE3MoB4lVwMHZXsKd7oyHSYhARLwhEApmT8V0LM8SV5/0vcdKaeJWT9IrvSOQD9ELpaVmJV+pOs178rUl7mUnLqnonaeAFPry8BVJOAZAZqYnqENaWKamCEdHGWTwAYJzDcMnT2+p/vesDOiielogjQxHeFyJTi0JmYplfsRFOe7QsG1JPpQptIduDcfu9YeE5FARAgU2zs/JCLPAWgJUkumINvRWyhZmmhiBmky1PKvBF6G6uz+N1ddPOnxhf3NxnNfcvKOJuQshXwVgNFsPaxPAushQBOTj8X7CdDE5BNBAlElUIRiTqZauCWsDdLEdDQ5mpiOcLkSHFoTs5zs/JNCPucKBZeSCPTEdKU7YMaqS80xDQlEjEApmfsjgC8EqS0RnJLuLcymiRmkqVDLxgg8rcCMpyubX/Xet1L5heze1NStWszaaSr4rgDD/arLOiRQBwGamHVAi/QSmpiRHi+bIwEAfaoyZ9W2K383aeFC69h5aD40MR2NiiamI1yuBIfWxCwlc9YLwT7kCgWXkiRgfnzfyoKnXErHNCRAAh4SKLfnjlTB7z0s4Ty1oJDpLeRpYjpHxxVNJaAPvePAd9/sh4ziDpmRsuUWPwTkxwBG+VGTNUigQQI0MRsEGLnlNDEjN1I2RALrJyBPCswLzFde+2X26dLKMFCiieloSjQxHeFyJTiUJqZ17RVQC9rdufdlKgW+Q8CVx5JJSMB7Au/4IKNeATDM+2q2K7yerqS3FMwweZzcNjMGBoaA6hLAOCFT7Vrshaa7Jk5sGf7PEd+E4qcCfMSLGsxJAh4RoInpEdjQpqWJGdrRUTgJ1EnA2oF1yaAkLt6vd97LdebwZRlNTEeYaWI6wuVKcChNzHIq921VXO4KAZeSCOSkdKVrrkvpmIYESMAHAqVk7kYAn/ehlO0Saur4bF/3fTQxbSNjYNAIqOJmkcQpmcq8h9zSVkzlDhcTZ0Gwu1s5mYcE/COg12Uq3Uf6V695lfgmanvsrb8ns9VCoO7FsqfceRSfCefMuCLSBKy7xH9ZG6jNmbDi9meC2ClNTEdTeStTKWzqaEVIg4upztNFZWYA5IfTxEx2Xq2QowLA710JKuae2d4FDwdJE7WQAAlsnEAplfs6FL8JGKfjMpXCxTQxAzYVynFMwITimoSY0xu5Z6WYyh8A1bkCjHOsgAtIIDgEuBMzOLMIhhLuxAzGHKiCBJpHYECgvx805OwJPYUVzZPxwco0MR1NgzsxHeFyJTiUJmYpmesBkHKFgDtJns9UCtu5k4pZSIAE/CJQ2iO3M1rwmF/1bNb5VaZS+BZNTJu0GBZsAgqsEujPB6VllpPjU4vHTE4aapwHRS7YHVIdCdgiQBPTFqYYBdHEjNGw2SoJbJSAQnCrocaZ4yvzlwaBFU1MR1OgiekIlyvBoTMxFTOMcrI8AMBwhYALSRT4bbZSCNTOUBfaYgoSiAWBUjL3CIBdA9RsOVMpZGhiBmgilOIKgVcVmINXXr1oYxfbr/3NwpkAvgJAXKnMJCTQfAI0MZs/g2ApoIkZrHlQDQkEgIAq7jUMzE73FuY3Uw5NTEf0aWI6wuVKcOhMzCXtnXuZIg+60r1bSRRfz1QLV7uVjnlIgAT8I1Bsz10ugm/7V3HISm9kKoXNaWIOyYkBISXwrAh+Zpr6y2y1+6V1PZTb821qmMdD5ZiQ9kXZJLARArwTk4/H+wnwTkw+ESRAAhsioIKqmDivWQYDTUxHzybvxHSEy5Xg0JmY5WTuq9bOR1e6dymJkTBGj18+/y8upWMaEiABHwkE8V7MQXNwJ5qYPj4ELEUCJEAC3hKgiekt3/Blp4kZvplRMQk0gcATKjgn21vw9Y3GNDEdTZompiNcrgSH0cQ8V4GTXOnenSSx2UHsDi5mIYFgESinJo9VNQJxBc27ZESm0MQM1nNCNSRAAiTQCAEeJ2+EXhTX8jh5FKfKnkjAKwIvQHFx64jBS8Ytu+NVr4qsy0sT0xHh2JhBxVR+uqie4YiON8GhMzGL7bnrRXCYNzicZ1VgabZS2Mf5Sq4gARIIAoFq2+HDXjNeXxUELf9fgxxLEzNYE6EaEiABEmiEAE3MRuhFcS1NzChOlT2RgNcE3oDilwk1ztu3b/6zXhWjiemILE1MR7hcCQ6fiZnMFQXIuNK9O0nWvEnYnVTMQgIk0AwCpWT+L4B+shm111tTcBZNzMBMg0JIgARIoFECPE7eKMGoredx8qhNlP2QgO8EfqWqs7PVbusNpa5+SsnclQC+6WrS6CbjcXL/Zxs6E7OUzD0OYCf/Ua2/okBPTFe6zw+KHuogARJwTqCUyt0MxaHOV3q24lc0MT1jy8QkQAIk4DsB7sT0HXnAC3InZsAHRHkkEAoCJoCb1ZQzs31dD7iluNSeWwHB7m7li3ge7sT0f8ChMjEVkHIytxpAi/+oNlRRjsxUuq4Ljh4qIQEScEqglOy8FJDvOF3nWbygQBPTM7pMTAIkQAK+E6CJ6TvygBekiRnwAVEeCYSOwF2qmJOtFrobUV4a0/lpmLKskRwxW0sT0/+Bh8rELCcP3E7R6tn1D/XgV5gd2cqCYj1ruYYESCAYBErJzp8AMisYatao6KWJGaBpUAoJkAAJNEaAx8kb4xe91TxOHr2ZsiMSCAiBHkBnZSrdf6hHTymZuwXAIfWsjekaHif3f/ChMjFLyal7ArU+/zFtuOKgObjTfn13PBkkTdRCAiTgjECxPX+UiF7tbJWn0c/TxPSUL5OTAAmQgJ8EaGL6STsMtWhihmFK1EgCYSYgT4rqnHS1cKndLkqp3JlQnGY3nnFrCKzMVAqbxIEF305e35TL7fk2Fa3Wt9qbVZlKQbzJzKwkQAJ+ESilOg+Cyu1+1bNThyamHUqMIQESIIFwEOBx8nDMyT+VPE7uH2tWIoFYE9DnROQirJRL0490vbY+FMX2zg8ZIpcpcHisUdXXPI+T18etkVWh2okZRBOzdfgLw8YtWzbQyBC4lgRIoLkElrR37mWKPNhcFe+vThMzSNOgFhIgARJoiAB3YjaEL4KLuRMzgkNlSyQQbAJvQvU3qvhtwhz8W2JTGRxYOWwPSdSOVBXrTeSbB1t+YNXxOLn/owmViVlMTd5D1HjIf0wbrtj/Rv/ISY8v7A+SJmohARJwRuCePTs/0pqQZ5yt8jaaJqa3fJmdBEiABPwkwJ2YftIOQy3uxAzDlKiRBEiABIYiwJ2YQxFy/+s0MRtkWhsYtsWEFbe83mAaLicBEmgigWrb4cNeM15f1UQJHyhNEzNI06AWEiABEmiMAE3MxvhFbzVNzOjNlB2RAAnEkQBNTP+nThOzQeb9Lf1bTXpw4SsNpuFyEiCBJhMoJXPWNTGBOUlBE7PJDwTLkwAJkICLBGhiuggzEqloYkZijGyCBEgg9gRoYvr/CITKxCztkdsZLXjMf0wbrlgbqH1sworbA3UMNUh8qIUEwkKglMw9D2DboOiliRmUSVAHCZAACTRMgHdiNowwYgl4J2bEBupxOwr8Q4AnAPkooB/3uBzTkwAJ2CfAOzHts3IrMlQmZjl54HaK1mfdat6NPIZh7jK+Z0GgjFU3+mIOEogbgVIy9yqALYLSN03MoEyCOkiABEigYQI0MRtGGLEENDEjNlCv2lH9uWkm5nY8NP+JdSUWj5n84URNvqsi3wnSb9+9QsC8JBBwAjQx/R9QqEzMpWMPGjWwqiVgR7cTbZnKvEC9bMj/x4gVSSD8BErJnAapC5qYQZoGtZAACZBAQwRoYjaEL4KLaWJGcKjuttSjYn4p27vg4Y2lLaZy/ykmpkGws7vlmY0ESMAmAZqYNkG5GBYqE9PqO2hGg5ry6Wxf1wMuzoSpSIAEmkAgaH+30MRswkPAkiRAAiTgDQGamN5wDW9WmpjhnZ0Pyv9uGuanO3oWWPcc2fqUk53/ocApgOxpawGDSIAE3CKwMlMpbOJWsiDnKaby00X1jABopInZ4BDExH7pvsKiBtNwOQmQQBMJBHGXN03MJj4QLE0CJEAC7hKgiekuz/Bno4kZ/hl61YGKTMz2dt1dT/5ycvLBCuMUAJPqWc81JEACjglwJ6ZjZA0vCKOJ+SaAwJjdonpYutr9x4YnwQQkQAJNI1BKTt0TqPU1TcB6CtPEbGwa1qvmFwlQtdKoYDQUE4N06Wlj7XE1CXhNQH6joksMNR811djGgO6hInkA+3hdOZr5aWJGc671d0UTs352UV7p1nOxJDllnAmdBugXo8yLvZFAAAi8makUNguADs8llNpzp0FwpueFhi4QPhOzPfdYwK79OC5TKVw8NGpGkAAJBJVAKdV5EFRuD5I+mph1TUOeFDF/kO7tvvlfly8de8gmg/0DXzcFpwnwkbrScxEJRJtAvwCXrG6V8/Z/oOuF9bVabOvcVwy5GsAe0Ubhdnc0Md0mGvZ8bplVYeBQSuasI2sdYdDabI0CPSpd6f6tWzrKex78SdNInCiCb7uVk3lIgATeR4A7Mf1/IEJnYhaTuaIAGf9Rrb+iAnOzlcJJQdFDHSRAAs4JlFOdR6vKr52v9GzFWzQxHbJVYAFeefVz2adLKze29K6dJ44YvtmI78uau6OwlcMyDCeBqBK4RDAwK12587mhGlw+ZvKmb5lGEcCYoWL59XUEaGLyWXg/AZqYfCLWR0BU2tPVLtePBt3XNmX7QcM8QQDrjeabkj4JkIBrBLgT0zWUthOFz8Rsz10vgsNsd+h1oMrvMtWur3hdhvlJgAS8I1BMdZ4uKjO9q+A0s/yVJqYzZn+Tfvl0+pEu6xi5rU95t/wWGKGnKcDfQtkixqAoElDFL9HSMjO7/La/O+lv8Z5TdjISpvWDdmDu93Gi3/9Ympj+Mw92RZqYwZ5Ps9Sp6iez1e5HvKpvfe+jI/B9wPw+INt5VYd5SSBGBLgT0/9hh87ELCVzPwPwA/9Rrb+iQh/MVrr3Dooe6iABEnBOoJTM/R7Akc5XerbibpqYDtiaKod3VLtucLDk3dBFow/+aKI1YTnYXweQqCcH15BAyAjUIPifwdrg9P367niyXu3lZO5c/hLANr0/ZCqFL9mODnEgjw7bHJ7glkxv4bM2o0MdxmfC/vi8NjHXKam2HT7s1cTrR4viRAC72VfISBIggX8h0J+pFEbGgQrfTl7/lMup3DRVnFN/BtdXrk5X0iMFM0zXMzMhCZCALwRKyc4+QPb0pZi9ItfSxLQHCgKsSFcKDd/Pt2hMbrRRw1mB2upvkwHDSMA2AZXf1RI6c0JPYYXtNRsILO71mY9JbfDpRvPEYz13YsZjzva75E5M+6ziFOmXiflepsVU7nBRmQ5oMk6s2SsJuESAOzFdAukgTeh2Ypbbc0e+/aJZa9dUgD6Jtkxl3kMBEkQpJEACNglYVySO2GzERq9RtJnKtTBVzKaJaR/nxZlK4Tj74RuPLLVNGQ/DPJ8vIXCLKPMEgYBAb4Iap7p911opmbOOPe4ahB4DroE7MQM+IN/lcSem78jDULAZJuY6LsUxuQPFxDQAB4WBFTWSQEAIcCem/4MInYm5pL1zL1PkQf9RbayiHJmpdF0XLE1UQwIkYIdAaUznp2HKMjuxfsVYL6ekiWmXtsq3M9WuK+yG241bkuycakLm8i3MdokxLogEFJgnhk7P9HT/nxf6islctwCTvcgdrZzciRmteTbeDXdiNs4wihmaaWKu47m4bcqnDMM8OWD3LEVx3OwpGgS4E9P/OYbOxLQQlZI59R/VRioqLshUCycEShPFkAAJ2CJQbs8dq4Jf2Ar2Kcg0jb1pYtqFrXpMptp9pd1wJ3GKGUapfclXRdS6M3MnJ2sZSwJNJrBIDDkp3dNV9lJHKZm7nbt2bBHmTkxbmGIUxJ2YMRq2/VaDYGK+a2buOWWnRMI8RYGvARhhvwtGkkCsCHAnpv/jDqeJ2Z5bAcHu/uPaYMXlmUrhUwHSQykkQAI2CRTbczeJIFB3629hbj6cJqbNAcJDE3OdBOsC/Nfk9e9CcCqAre1KYxwJNIFA0VQ5vaPa9Wc/atPEtE2ZJqZtVDEJpIkZk0E7azNIJuY65ffsnd922ID+UIFjAYxy1hGjSSDyBGhi+j/icJqYydyNAD7vP64NV1TVrbPV7peCpIlaSIAENk5AASknc68D2DQ4rOSvmUrX7jQx7U7EBxNznZTybvktdCROheoPuCvB7oAY5xOB/xPB6enewnyf6q0pw+PkdmnzOLldUnGJ43HyuEzaWZ9BNDHXdXBX28TNRsiIY1RwkgAfcdYZo0kgsgR4nNz/0YbSxCy3d56hYr1ELTgfU+XwjmrXDcFRRCUkQAJDEVj7DhdPT1sOpWE9X78xUyl8kSamXXI+mpjvmpnJA7dTDJsB6LcAtNiVyjgS8IBArwI/zVYKf/Ig95ApuRNzSETrArgT0zaqmARyJ2ZMBu2szSCbmOs6WTp2bOvqVdseZQAnKTDaWYeMJoHIEeBOTP9HGkoTs5TK56Hq62aDIUejuCpTLRw9ZBwDSIAEAkOglMzPAvQngREEQCAnpStdc2li2p1KE0zMddIWJ/O7JqDnKHC4XbmMIwE3CAiwAooZ46uF6wRv/6lJH5qYtsHTxLSNKiaBNDFjMmhnbYbBxFzX0drjTNbRSOslQPs665TRJBAZAjQx/R9lKE3MRaMP3TzRuvoVAIb/yDZY8fWnKptvdQSurwVIE6WQAP6dmuQAACAASURBVAlshEApmXsSwI5BgmQq9u2oFu6niWl3Kk00MddJXJKcMs6Eab3J/AC7shlHAnUSeAyCmU/1bv7bIHzDQRPT9hRpYtpGFZNAmpgxGbSzNsNkYr63s1IyNxGCk6HIOeuY0SQQegI0Mf0fYShNTAtTMZm7X4Bx/iPbcEVV5LLVQneQNFELCZDA+gkU2/J7i6H/FzA+b6Qr6VGCGSZNTLuTCYCJuU5qsT3XCdHZAuGb3uzOj3F2CTytgrOGDXvh1+OWLRuwu8jrOJqYtgnTxLSNKiaBNDFjMmhnbYbVxFzXZbk932YaepoojgCQcNY9o0kglARoYvo/tjCbmOcJcKL/yDZa8cpMpXBMwDRRDgmQwHoIFNtz54hgWqDgqHZlqt1TLE00Me1OJkAmpiXZOl5VSnV+GSpnCrCL3TYYRwLrJ6DPAXL2Fubml7X3Xb86aJRoYtqeCE1M26hiEkgTMyaDdtZm2E3Md83MMfkdTNVpovgGgJHOKDCaBEJFgCam/+MKsYk5+TMC41b/kW204mutw1s/Mm7ZrW8FTBflkAAJvIeAYoZRTpaeAWS7QIFRmZapds2hielkKgEzMddJty6+H1j14f8C9DQAH3bSEmNJAMA/oXquvvraJdmnSyuDSoQmpu3J0MS0jSomgTQxYzJoZ21GxcRc1/WSPQ7c2mxtPR6K7wLYyhkNRpNAKAjQxPR/TOE1MXfIjJQtR1n3Yg7zH9vGKsqxmUrXfwdLE9WQAAm8l0Ap2XkEINcFjYoAe6UrhR6amE4mE1ATc10Ly8dM3vQt0zgJwAkANnPSGmNjSeBVFT1/VW3VhZP6Fr4RdAI0MW1PiCambVQxCaSJGZNBO2szaibmuu6Xjj1kk4H+gf+E4EcAdnBGhdEkEGgCNDH9H09oTUwLVTnZ+SeFfM5/bBut2JepFNoDpolySIAE3kOglMwtAtARLCjy10yla/d1mnic3O50Am5irmvjnr3z27YO6AwAx9ptjXGxIrASqhcPGi1z9uud93JYOi8mc90CTA6L3ubp1Osyle4jm1ffv8rB/A+sf/3braSKm7PVQtB+iLEr31Ecnwn7uKJqYr6XQDnZ+R8K+QmAPeyTYSQJBJbAW5lKYdPAqnNRWDHVebqozHQxZb2pQm1iFttzXxbB7+pt3qt1psqBHdWuP3uVn3lJgATqJxDQF/pYt2Cenal0nUoT0+lsQ2JirmurtEduZ23F2aKwDA1x2i7jI0dgJaCXtq4eNnvcX259MWzdcSem7YlxJ6ZtVDEJ5E7MmAzaWZtxMDEtItb94eX23CFr3mgOZJ1RYjQJBIoAd2L6P45Qm5iLRh+6eaJ1tfU9f6COlKvgz9newoH+j5MVSYAEhiJQSuZuBPD5oeJ8/7qhYzM93e++LZ07Me1OIGQm5rq2FrdN+ZQY5hzuYrM76MjFrVbBFYODOmv/h7r/EdbuaGLanhxNTNuoYhJIEzMmg3bWZlxMzPdSWTKmc7+aKScLYL3Zkr/cdfbIMLr5BGhi+j+DUJuYFq5SsvNWQD7jP7qNV1SYHdnKgmLQdFEPCcSZwJL2zr1MkQeDx0CezFS6dnqvLpqYdqcUUhNzXXvFVP4AqHmRQD5lt2XGhZrAIICrNNEyI7v8tr+HupM134TlbgdwUNj78EE/TUwfIIeqBE3MUI3LL7FxNDHXsV00JjfaMHGqAF8G0OIXc9YhgQYJ0MRsEGAdy6NgYgbyBR2A3p6pdPOaqDoeSi4hAa8IFNtzN4ngs17lrzevqM5MV7t/ShOzHoIhNzHfNTPbc1+G4CwBdqkHA9cEn4BArxFDZ4zvWfBY8NXaU1hKdi4A5GB70XGO4p2YcZ7++nrnnZh8Itb/XOgns9XuR+JMZ9Hogz/aMsw4SVX+C8CIOLNg76EgsDJTKWwSCqUNiiym8tNF9YwG07ixPPQmpgWhlMy9AGAbN4C4mUNM7JfuK1gvEOGHBEigyQSWJKeMM2He32QZ6y0vhuyY7ul6+r1f5E5Mu5OKiIlptXvXxIktI14ceQyg0wFsbxcB4wJNQAW4YdDA6RN6CisCrbQOcdyJaRsad2LaRhWTQO7EjMmgnbUZ552Y/0rq3tTUrVq09gMA3wewtTOSjCYB3whwJ6ZvqN8tFAkTs5jMnSfAif7jG7Jiz1OVzT99BK6vDRnJABIgAc8IrLk/PJnvATTpWZF6E6t2Zard1jVA7/vQxLQLNEIm5rqWiztkRsqoUSdAcBKALeyiYFzgCNyqYpya7Z3fGzhlLgmiiWkbJE1M26hiEkgTMyaDdtYmTcwP8lrzPdGWo44B8CMA77t7yRldRpOAJwRoYnqCdaNJI2FiLtlryu5mzQzkBgdV+WG22nWR/6NlRRIggXUESsn89wG9OIhEVOTz2d6um2hi1judCJqY61As2ePArbW15TRT5TsCDK8XEdf5S0CBBQkYp46vzF/qb2X/q9HEtM2cJqZtVDEJpIkZk0E7a5Mm5oZ5/QGHJz6efP3LCvwYQMoZWUaTgGcEaGJ6hnaDiSNhYlrdlZK5uwBM9B/hkBVfH6jp6DC/fHTIDhlAAgEmcF/blO1rhvlXAJsFUOY/05X0hwUzTJqY9U4nwibmOiT3JSfvOAhjlgBfAWDUi4rrPCewSAw5Kd3TVfa8UkAK0MS0PQiamLZRxSSQJmZMBu2sTZqY9ngtSXZOramcLIL97K1gFAl4RoAmpmdoo29iFpO5zwtwo/8IbVTcwHFRGysZQgIk0CCBcjJXUKCzwTTeLFecnqkWzlpfch4nt4s8BibmOhSLx0xOGqYxB8AH7h+wi4txHhBQXQIDp2V6u+/wIHugU9LEtD0empi2UcUkkCZmTAbtrE2amM54WRfe19Q8TQSHAhBnqxlNAq4QoInpCkZHSSKzE9O6825JMveQAqMdEfApWFW+lq12XeNTOZYhARIAUE51Hq0qvw4ojJWDkvjYfr3zXqaJ2ciEYmRirsNUas93qOhFAoxrBB3XNkhA8YCKOT1bWXBbg5lCu5wmpu3R0cS0jSomgTQxYzJoZ23SxHTGa110sb1zN4GcCllzYqW1vixcRQJ1EaCJWRe2hhZFxsS0KBSTuW8KcGVDRLxb/FptoLbnhBW3P+NdCWYmARJYR+DetoM+3mK09AHYNJBUFBdmqgXrjvL1frgT0+7UYmhivvtNeyp3uKjMAvSTdnExzgUCir9AZHqm0nWdC9lCnaKU7FwAyMGhbsIX8XpdptJ9pC+lmlyklMwtAtDRZBmBL6+Km7PVwucCL9QFgXwm7EOkiWmf1foiF40++KOJVuNHgBwLYGRj2biaBGwRWJmpFDaxFRnyoGIqP11UzwhAG5EyMS2exWTuGQE+EgC2H5Cggj9newsHBlEbNZFA1AiUkrl7AUwIal+aaNkhu/y2v29IH01Mu5OLsYlpIbIuut+x/bWjITIDwMfsYmNcPQTkrxCcke4d//v1XWRbT8awr+FOTNsT5E5M26hiEsidmDEZtLM2aWI647Wh6KVjDxo10N/yfQh+AGBbd7IyCwmslwB3Yvr/YETOxCwn8ycq9Dz/UdqsqDonU+2eZjOaYSRAAnUQKLV3XgKR79Wx1J8liqsy1cLRGytGE9PuKGJuYq7DdNfOE0eM2HTkcSrmNIFsaRcf42wReEIhM1dts/KaSQsXDtpaEZMgmpi2B00T0zaqmATSxIzJoJ21SRPTGa+houfvlh/+oeH6TRWcCOATQ8Xz6yRQBwGamHVAa3BJ5EzMpWMP2WT1qoFHgrobc+28vpipFIL5EqIGHyguJ4FmEygnc19V4LfN1rGh+gqsaoH5yX0rC56iienGlGhivo/ivampW7Xo4KmAnOAG3ljnUDwDkbMyla7/jjWHjTRfTOa6BZhMPkMR4HHyoQjF7es8Th63idvrlyamPU71RJWSnUfAujcTGFPPeq4hgQ0QeCtTKQTz7jKXR1ZMdZ4uKjNdTltPusiZmBaExe35wwzR6+sB4tOalaZpZDv65j/oUz2WIYFYECi35SaoAesYeZA/Z2QqBevk70Y/3Ik5FKF1X6eJuV5S1r1QLa3GmQr5GoCEXZyMW0PgeShmv7xKLp3ySNcqMtkwAe7EtP10cCembVQxCeROzJgM2lmbNDGd8aonutie6xTByQAm1bOea0jgXwhwJ6b/j0QkTUwLYwjukH5BarWO9EO3/9X/sbMiCUSPQDmZG6PAPQBGBbi7p17ul0/a8UVoYtqdIk3MjZIqJafuCanNhuJQu0hjHPeSAnOHDW/92bhlt74VYw62W6eJaRsVTUzbqGISSBMzJoN21iZNTGe8GokutuX3FkNPA2C9YMtoJBfXxpoATUz/xx9ZE7OYmryHqFEJ8gYUBf7RAnP8UMdK/X8sWJEEwkVgjU+DmvVC1A8FWbmoHpaudv/RjkaamHYoWTE0MW2RKrVNGa9inieC/WwtiFfQm6pygbEKc9OPdL0Wr9Yb65bHye3y43Fyu6TiEsfj5HGZtLM+aWI64+VG9P2pqbsMau0UAN9yIx9zxI4Aj5P7P/LImpgWylIqPweqP/Yfq/2KCjw6WNMJ+z/U/Q/7qxhJAiSwjsCSvabsbtbMxQC2CTiVOzKVwsF2NdLEtEuKJqZdUmviSu35Q9TQc0TR7mhhNIPfhOrPFTg3W+1+KZotetsVd2La5sudmLZRxSSQOzFjMmhnbdLEdMbLzej72qZsbxrmj97eZfSfALZwMzdzRZoAd2L6P95Im5jVtsOHvWa8XgWwm/9o7Ve0jEwkWvbPLr/t7/ZXMZIESKDcnm9TUesI+dYBp/FmbaC2+4QVtz9jVydNTLukaGLaJfVunGKGUU6Vj4LCupx7R8cJwr+gX0Qva1k1bNa4v9z6YvjbaV4HNDFts6eJaRtVTAJpYsZk0M7apInpjJcX0eXd8ltgpB6rqscDsp0XNZgzUgRoYvo/zkibmBbOYlvnvmJIGYD4j9dRxSfMmnFAx0Pzn3C0isEkEFMC1h2YJvRugWwZfAT6nUyl+zInOmli2qVFE9MuqfXGlZP5ExVqHaMK9F0MDTX5/sVX1gZqP3XyGwUXa0cuFY+T2x0pj5PbJRWXOB4nj8uknfVJE9MZL6+ji8ncNwH8RIBdvK7F/KElwOPk/o8u8iamhbSU7JwLyAn+43VW0boj06jVDuDLfpxxY3T8CFjX+8EwF4TktMddmUrh35xOiSamXWI0Me2S2mDcml0HI3SaAscB2KThhMFLUAPkmkFzYMZ+fXc8GTx54VXEnZi2Z8edmLZRxSSQOzFjMmhnbdLEdMbLj2gFpJTKHSa65o3mY/2oyRqhIsCdmP6PKxYmZliOla8d/0sGjM7xlflL/X8cWJEEgk+glMrnoXojgBHBV4t+s2bsUc8Oa5qYdqdLE9MuqSHjyskDtzO1daYIvgGgZcgFwQ8wVXAdTJ2erXY/Eny54VNIE9P2zGhi2kYVk0CamDEZtLM2aWI64+V3dCnVeRBULDPzIL9rs15gCdDE9H80sTAxLayL26Z8yjDM+0Pyc1k/RA/J9Hbf4f8jwYokEFwCxWT+GwK9AoARXJX/X5mIfiPd2/2berTSxLRLjSamXVK249a+LWs2gM/bXhS8wD+Jymnpaldf8KRFRxGPk9udJY+T2yUVlzgeJ4/LpJ31SRPTGa9mRa81Fk4H8IVmaWDdwBDgcXL/RxEbE9NCW2rP/RCCC/zHXGdFxdcz1cLVda7mMhKIFIFSKncmFKeFpimV32WqXV+pVy9NTLvkaGLaJeU4bklyyjgT5kUAOhwvbt6C+SrGtGzv/N7mSYhPZe7EtD1r7sS0jSomgdyJGZNBO2uTJqYzXs2OXrznlJ0SCfMUBb4WkiNizUYWxfrcien/VGNlYq4xMpO5eQCm+I+6zoqqP+/fdtUPJy1cOFhnBi4jgVATWDr2oFED/YnfQyQfmkYUj7eOaG0ft+zWt+rVTBPTLjmamHZJ1R239g6HcwDsVXcSrxcq7jTEmMa7WLwG/f78NDFt86aJaRtVTAJpYsZk0M7apInpjFdQou/ZO7/tsAH9oQLHAhgVFF3U4QsBmpi+YH5fkdiZmHd9auKWIwZHPARge/9x113xPk20fCG7/La/152BC0kghASKqSkpUb0N0I+HSP6AobrP+Gr38kY008S0S48mpl1SDceVk53/oZAzAezUcDK3Eqgugci0TKWw0K2UzGOfQCnZuQCQg+2viGskj5PHdfIb6pvHyflErI8ATcxwPxd3tU3cbGRixPdU9XhAtgt3N1Rvk8DKTKUQxZdifqD9Yio/XVTPsMnFy7DYmZgWzCVjOvczTbnHS7Ae5H4ZIl/J9HZ1eZCbKUkgcASKqc7vicolgRM2hCBV/V622v2LRnXTxLRLkCamXVKuxC0dO7Z1cNU2xyrEutthG1eS1pfkflWcnq0WuutbzlVuEOBOTNsUuRPTNqqYBHInZkwG7axNmpjOeAU12vpeafWqbY8ygJMUGB1UndTlCgHuxHQFo6MksTQxLULFVOe/i8r/OqIVhGDFVf2t/T+c9ODCV4IghxpIwG0C1vUyRsK8FkDa7dze55PfZCpd1oudG/7QxLSLkCamXVKuxi0afejmRsvASSL6IwCbupp848l6RHR6urf7Zh9rstQGCNDEtP1o0MS0jSomgTQxYzJoZ23SxHTGK+jRCkg5mbNekmi90XzfoOulvroI0MSsC1tDi2JrYlrUSu2dsyFi/Z0Sso8+BzGO5q7MkI2NcjdKYM1/59tzx0NwFoAQ7srX25+qbJE/AtfX3Bg1TUy7FGli2iXlSZx1ae3q1Yn/ELXugZI9PSmyJqnepmL8KtvbdZN3NZjZKQG+ndwuMR4nt0sqLnE8Th6XSTvrkyamM15hil7cnv836xe/AkwNk25qHZIA304+JCLXA2JtYq4xMpP5GwD9outkfUgo0JsS0nLCPr3zHvWhHEuQgGcEiqn8AVDzIoF8yrMiHiZWQXVVrT89qW/hG26VoYlplyRNTLukPI8rj8mn1cS3AT0SwEgXCvYpcJWBgWvSlTufcyEfU7hMgCamXaA0Me2SikscTcy4TNpZnzQxnfEKY3Q5mRsD4DQFDg+jfmr+AAGamP4/FLE3MYs7ZEZiy1H3CDDOf/wuVVRc2N/aP5NHzF3iyTS+EViczO9qQC8EcIhvRd0v9HwC5rh9KwuecjM1TUy7NGli2iXlW5x1sf0IGflliB4DYB+HhV8D8D9q6tXZvu77HK5luM8EaGLaBU4T0y6puMTRxIzLpJ31SRPTGa8wR6+5P8uonQiR74W5D2oHTUz/H4LYm5gWcuuN5cMHh98V1l1gax+bf6rg1Gxv4XL/HyNWJAFnBJaPmbzpWzVjJgTWdXph/ryoYu73/9o7F+C4yvMMv9/ZlS3bYJuLgx1IbMCALe2qMHZAKxvHDljaFbHTpnEIQ5hMQ8MlQEsJl8JgCnTS5jotoR06hAkzncJgGNoJF2ttp9j4spIdm9TSypfAxIIBajBQi4IkW9rztcd2y9Xxf7Rnz+45/7szGjTM+3//9z7fGbDf/c85LT2rdwVtgiGmKVGGmKakqqLbOmfJ+JEDwzNV5FSFeyZcOdURnAlgoqt4GYI+EXkFLvoSUnol6G8DqmLaok27Utm8Am0WWR6lVYaYowQX22UMMWM72rKMMcQsC18kF68/LzcleRA3iKgXZp4QSRN2N/1+ppg/zgYEnY3ZOyH46xrwyhDzyBAKjW0nishaAN4J7yh/tjhwrruguHJrlE2w9/gS6EznLofqTwBMjbjLt13HXTive3WxEj4YYppSZYhpSoo6EgicAE9imiJliGlKyhYdQ0xbJu3PJ0NMf7zipPa+9B0+MHIloN4LO06Nk7eYe+FJzPAHzBDzQ8w3z7roJDeZ3FDZdxOEM2SB/qLk6O3zule/Gc6O3IUEfj+BQkPuPHH0HwC0xIDVOyrOwpaelT2V8sIQ05QsQ0xTUtSRQOAEGGKaImWIaUrKFh1DTFsm7c8nQ0x/vOKq7kq1XaGQOwDMiqvHGPliiBn+MBlifoy5d6K7bth9Pg5BpmfNCzNRcn/QvHPNi+FfXtyRBIBCY1tWRL4H4OI48FDofnFwUaZ71QuV9MMQ05QuQ0xTUtSRQOAEGGKaImWIaUrKFh1DTFsm7c8nQ0x/vOKuLqRavywqd0Lkgrh7jbA/hpjhD48h5qcw956RWT9S/wyAeeGPpEI7Cp6CKz/K9HZsqtAOLEsCHyHgfYnoitwmisYYoXlVxV1ciWdgfpwRQ0zTq4Yhpikp6kggcAKdqeyauHxDFTicjxZ8PFPMX1rhPWqifGcquzFWf4CuFFXBU5me/FcqVb6W6vKaMJ8GQ0xzVjYpNze1XVhy5TYB2g8dUuKnlggMZYr5cbXUUKV6KaRzd4nqPZWq76MuQ8yjwFo5Mzd28lhdIYJ4/flCdTPE+buhkwefXLRu3YiPa4VSEjgmga1nLzl5eMzwdYBeC8gpx1wQIYEKepMl5+Lzd6zcG0bbDDFNKTPENCVFHQkEToAnMU2R8iSmKSlbdDyJacuk/flkiOmPl23qLQ1tjSVH7gTwDdu817BfnsQMfzgMMY/BvDOVvQ/An4U/morv+JpA/n4wOfjQov9Yt7/iu3GDWBPY1NB+rjjuTQJcEVOjz8uQLG1+qePdsPwxxDQlzRDTlBR1JBA4gc5U22pAFgdeOHYFGWLGbqRlGmKIWSbAmC5niBnTwQZsq6spdxrU/Z6qXAOgPuDyLOePwGCmmB/vb0k01TyJGa25daVyNyv0x9Hq2le3D6k4P6vkS0p8dUNxZAgcedP49QCaI9O030ZVHs30dlzud1m5eoaYpgQZYpqSoo4EAifAk5imSBlimpKyRccQ05ZJ+/PJENMfL9vVh99KXHcDAO8vYyfZzqNK/nkSM3zwPIlpyLwznctBdQWA4w2XRFFWEMX9yfq6p+Zue3ogigbYc+UJ/Dp9yRkj6l4J6J8C+Ezld6zeDgrc0VLM/201OmCIaUqdIaYpKepIIHACfCamMVI+E9MYlSVCPhPTkkH7s8kQ0x8vqg8TKJyWGSeTJ30HwE0AppNLqAT4TMxQcR/ajCGmD+aFdOsscZ0OCGb4WBZF6RCA50TwS+jwL5uL//5GFE2w52AIKCCdqdaMqCyFyBIADcFUrukqAyJY1tyTX1mtLhlimpJniGlKijoSCJwAT2KaIuVJTFNStuh4EtOWSfvzyRDTHy+qP0mgK5X9piqWQ3A2+YRCgCcxQ8H8kU0YYvpkXmhsO9ER/JtCFvhcGmX5FoE8MTI88uj83Wtej7IR9m5OoNCUvUhUL4XKVy27Q+FVFae92o9XYIhpeq0yxDQlRR0JBE6AIaYpUoaYpqRs0THEtGXS/nwyxPTHi+qjE+hszC2B6K0A5pNTRQkwxKwo3k8tzhBzlMw7G7M/hRw6sW3bZ5OKPjbmwJjH5v726bdsMx93v10N2fnqYBmArwOYGne/n/Sna4brnMsX/KZjX7W9M8Q0nQBDTFNS1JFA4AR4O7kxUt5ObozKEiFvJ7dk0P5sMsT0x4vqYxPYnGqf64q7HArvdjo59goqfBLg7eQ+gQUgZ4hZBsSuVK5VoY8AOLmMMlFd6iq0WyAbVLBhJCnraiH4iSrMavT9OJYlTmt4d47j4ELvSzqFeF/U2Xgte/iHBXLHBcWOnwqg1ZjHx/dkiGk6BYaYpqSoI4HACfAkpilSnsQ0JWWLjicxbZm0P58MMf3xotqcgPdcPEflFoV823wVlQYEeBLTAFLAEoaYZQLd0tA+teS4jwJYVGapyC8XYLcKuuDqRkhyU6b47M7Im4qRgY3nLD3eSR5scaAtKuIFlxkA9TGyOForLztwvnZBceXW0RaoxDqGmKZUGWKakqKOBAInwBDTFClDTFNStugYYtoyaX8+GWL640W1fwIbz1n82eQY5xZVuRrAOP8VuOJjBBhihn9JMMQMiHkh3bZcVO4NqFxcyrztvS8NqhtdR7vm9axeHxdjUfCxKZU7U8S9QFxkIIee4doUhb5D7vFfhtyhaxftWPdeyPseczuGmMdEdETAENOUFHUkEDgBhpimSBlimpKyRccQ05ZJ+/PJENMfL6pHT2BD+pITEhi5XlRuADBl9JWsX8kQM/xLgCFmgMy3NLQ1lhx5GMAXAiwbt1JdCtnsqLvBBba39K56KW4Gq+Gna2ZuYmlc6VzHlWaINB95hjP/f3T0YbwKkasyPR0d1ZiXyZ4MMU0oeRqGmKakqCOBwAkwxDRFyhDTlJQtOoaYtkzan0+GmP54UR0MgUI6e7UobgcwPZiKVlVhiBn+uBliVoB5oTF3o4h+H8D4CpSPW8khqG4XQS+A7pI6PclEac8F3av3xM1oEH62nr3k5NKY0gxFaTYgaVVNQcQ7YXlqEPXtqKEPDLkHbq3F05cf5s8Q0/RqZIhpSoo6EgicQGeqbTUgiwMvHLuCDDFjN9IyDTHELBNgTJczxIzpYCNiqyvVdoXCCzNldkRaroU2BzPFvBWhTyGdu0tU76kB6AwxKzSErqbcaar6cyiyFdoi/mUVfRDsEegehfM7CPrgok+Tib6W7c+8FkcA3nMr65IHzlAHM6CYoSrT4eBMKE4HMAPA8XH0HZKnXeLInzR3d3SFtF9Z2zDENMXHENOUFHUkEDgBnsQ0RcoQ05SULTqGmLZM2p9Phpj+eFFdGQKFxrasiNzKl34Y8eVJTCNMgYoYYgaK85PFCunsMijuE2BahbeysLy8CNVXINgHYJ+K7gPkTVHsc8V9K6nJAVUd0JIODI+T9yeVSgN/0L36/TBArZ2xsH7shLHjnYQzfgQ6wRmR8SIYr9DjxME0VUxxgCneP1Uw5cj14QWVJ4TRn2V7DELlnkxvxw+j5Jshpum0GGKakqKOBAInwBDTFClDTFNStugYYtoyaX8+GWL640V1ZQlsTrXPVbi37cM48QAAC+5JREFUKrCssjtFujpDzPDHxxAzBOZrGxYeN86pv0uBW0LYjlscm8AggAHvR4ABVQwo8B4Eg1AMwsGAKAagOgjHGRDXHVLBBO/xAAJMcFXGC3QCRLwXunn/fgIU4yGHHh/g/Rx37BaoCIeAPCkObmzu7ng1nP2C24UhpilLhpimpKgjgcAJdKayawBcHHjh+BV8PFPMXxo/W5901JnKbgQwzwavZXkUPJXpyX+lrBoRWcxrwnxQDDHNWVEZHoFfpy85Y0RLdwC4AsCY8HaOxE5DmWLeire883bySFyPgTfZ1ZhrUNGfA2gJvDgLkgAJfEBA0edCrpzX2/FcVLEwxDSdHENMU1LUkUDgBHgS0xQpT2KakrJFx5OYtkzan0+GmP54UR0ugfWz26bVOfhziFx/5CRPuA3U5m48iRn+XHgSM3zm6EznLoceevEPXwBWBf7cMtYE/lsEf9Pck/9B1F0yxDSdIENMU1LUkUDgBHgS0xgpT2Iao7JEyJOYlgzan02GmP54UV0dAl0zcxMxTr+rqjcCckp1uqiZXXkSM/xRMMQMn/mhHbfOmVM3fOAz1wC6HMCUKrXBbUkgLgQGofqzESf5wwt7nv2vOJhiiGk6RYaYpqSoI4HACfAkpilSnsQ0JWWLjicxbZm0P58MMf3xorr6BArp7NWicgegn69+N1Xp4M1MMW9FkFtIty0XlXurQvmjmzLErPIQtje1ThhwHe9Zmd6P9zxFfkiABPwReKg0XPqr+bvXvO5vWW2rGWKazochpikp6kggcAIMMU2RMsQ0JWWLjiGmLZP255Mhpj9eVNcOAe9txqJyF6Cp2ukqlE7WZYr5RaHsVOVNGGJWeQA1uP3683JT6kZwM1SvATCxBltkSyRQUwRU8aDjln7SvHPNizXVWEDNMMQ0BckQ05QUdSQQOAHeTm6MlLeTG6OyRMjbyS0ZtD+bDDH98aK69gh0ptsuhspttrz0TwX/2NKT954RGvsPX+wT+xGP2uDGc5Yen0geuBYifwFg6qgLcSEJxJPAe1A8mFDnx+fvWLk3nhYPu2KIaTpdhpimpKgjgcAJMMQ0RsoQ0xiVJUKGmJYM2p9Nhpj+eFFduwQK6fa0o+5yBf4YgFO7nZbbmXw3U+x4oNwqUVjPEDMKU6pujytn5saeOE6/pXroNvOZ1e2Gu5NA1Qm8CcX9dfUj98/d9qv+qncTQgMMMU0hM8Q0JUUdCQROgCGmMVKGmMaoLBEyxLRk0P5sMsT0x4vq2iewaXb79ETCvV2BbwGor/2O/XXolpwZ83aufNnfqmiqGWJGc27V6Fpxt7M53ZVV1WsBaY/3FxnVIMw9a5xAQaD/dLw7cUXjjicO1nivgbbHENMUJ0NMU1LUkUDgBBhiGiNliGmMyhIhQ0xLBu3PJkNMf7yojg4B79l5yYN6kwiuBTApOp3/3k7XZor5L8XEyzFtMMQ8JiIKPoXAllTr50qQqwG5krea8xKJMYF3AX2k5Mh987vzu2Ps8/daY4hpOnmGmKakqCOBwAl0ptpWA7I48MKxK8gX+8RupGUa4ot9ygQY0+UMMWM6WNr6fwJrGxYeNy5Rf72q3ghIpN/qraKXt/SsetSW8TLEtGXSlfNZaMxeJsCVEFxUuV1YmQRCJbBNVR8eUz/m4bnbnh4Ideca3IwhpulQGGKakqKOBAInwBDTFClDTFNStugYYtoyaX8+GWL640V1tAkU0tmrReG9BOj06DnRNzLFVVa9wIQhZvSu0lrt2HvMhJMofQeQqwBMqdU+2RcJHIXAu1D9Z3USD7b0rOwhpQ8IMMQ0vRoYYpqSoo4EAifA28mNkfJ2cmNUlgh5O7klg/ZnkyGmP15UR5+AAtKVyv4RcCjMPD8qjkRxWXNv/rGo9BtEnwwxg6DIGh8m8DiWJT7X+F47xL0KkByABAmRQA0TeF6Ah94ZkifaX+o4UMN9Vq01hpim6BlimpKijgQCJ8AQ0xgpQ0xjVJYIGWJaMmh/Nhli+uNFdbwIdKayCwX4SwXaatuZrskUV7XWdo/Bd8cQM3imrPgBga1nLzn5YN3BS0XkGwDmARDyIYEaIPACVFdIwnm0ubvj1Rrop6ZbYIhpOh6GmKakqCOBwAkwxDRGyhDTGJUlQoaYlgzan02GmP54UR1PAl2NuQbX0TtF8fUaPJk1qInkWS3bn3ktnvSP7oohpm0Tr57fLQ3tU0viXgaBF2hG5oR29Yhx54AJ9ACyAiP6SGZXvi/g2rEuxxDTdLwMMU1JUUcCgRMopLKrBLDuNIJ/kHwmpn9m8V7BZ2LGe76jdccQc7TkuC6OBA49N88p3QyR62vGn8rSTG/H0zXTT4iNFNJty0Xl3hC3PNpWmzLF/Pwa6IMthECgc1Z2BhLwHjlxCV8IFAJwS7dQxQYIOlwH/2rz28XLHT9DTFOCDDFNSVFHAoET4ElMY6Q8iWmMyhIhT2JaMmh/Nhli+uNFtR0ENs+66CS3ru5GKK4DcEKVXJeg+GqmN/9Ulfav+rY8iVn1EVjfwPam1gnva2KxqH5ZgXYBplkPhQBGS2CfQDsUzsq6scP5udt+1T/aQlz3AQGGmKZXA0NMU1LUkUDgBHgS0xQpT2KakrJFx5OYtkzan0+GmP54UW0Xga1zlow/ODRyFURvDTm8GBTVK5p7Vz1pF/GPuuVJTJunX5veu9Ktc1x1vgTgiwJcCGBibXbKrmqAwHsQbFTFenGd5zI7Vm6ugZ5i1wJDTNORMsQ0JUUdCQROgCcxjZHyJKYxKkuEPIlpyaD92WSI6Y8X1XYSWLtwYbL+7fpvQvXW/31u2eyKUlD8JukkvvaFnmd/V9F9IlCcJzEjMCSLW1Tc7XQ1dZ6LknwRDhaq6gKBTLYYidXWFbpfgI0C5/mS6vMtvc3bBHe7VkMJwTxDTFPIDDFNSVFHAoETYIhpjJQhpjEqS4QMMS0ZtD+bDDH98aLabgIKyOZ021JX5TYBMgHTcFXxowNThpYvWrduJODakSzHEDOSY7O2ae+/D1sa25pccRYcCjRFLwTkFGuBxN/4XgE2KGSD68qGlh3ndzO0DH/oDDFNmTPENCVFHQkEToC3k5si5e3kpqRs0fF2clsm7c8nQ0x/vKgmgf8jUEi1tjgiy1TFewHI9PLI6ApR597m3o4d5dWJ12reTh6vedropqsx16DAPIguADAXwCwbOcTEcw8ELxx+IY+7qaVn9a6Y+Iq0DYaYpuNjiGlKijoSCJwAQ0xTpAwxTUnZomOIacuk/flkiOmPF9Uk8GkEvOfkKZw/hKuLIZICMMGA1AtQrFPoAy29q14y0FsnYYhp3citMLypqTXluIlGUbcBgibvERUKnGOF+WiY7AawS0WL6jo7HXF6M8Vnd0ajdfu69ELMhfbZ9u94uKS7F+xc9Z/+V3IFCZBAuQS6UtkmBU4st07c14vKm7ac6Cikct8W6OfjPtNy/YliV3Nv/rFy60RhfaEhd544OikKvVa7R93fv7nl1c7BavfB/UkgTgTWz26blkjqWQk4s1TxWRUtwcU7Is5bgL4x5A5tXbRj3Xtx8lwJL5vSrQucwy9RqepHIa+0FDt+UdUmuHnsCRz+O47O8kJNARpdQYMoGmNvvDoGB7ygEsAOQHaJuMURkV3zu/O7q9MOdx0tARntQq4jARIgARIgARIgARIgARIgARIgARIgARIIjsDGpuw5juueJXDOgGK6iJ6hkNMBzADAL2yPilrfgKIPgj5V2QMHfY7KHh3R32Z25fuCmxArVZMAQ8xq0ufeJEACJEACJEACJEACJEACJEACJEACJGBAYEP6khMSJXeGCE4DMBXQUyCYdvj3Qz/ei4W8f5o84sJgx5qQvA3gDRXsFVf2eqfbAd2rcPaK474OTb6m+9/p410mNTGrijfBELPiiLkBCZAACZAACZAACZAACZAACZAACZAACYRHYEtD+9SDSXdSYsSZ7D1yR+FOFpHJrmISVI6HoyeK9zswSRWTRY78Dp0kkMkBdeo9vqZfgH4F+gHtV5V+EfRD0a+O7heVI79Lv6juV1f6E8nS/lJJ+lt6V70TUB8sExMC/wMSPVqWnTfcBAAAAABJRU5ErkJggg==;" vertex="1" parent="1">
          <mxGeometry x="384" y="361.99" width="40" height="6.02" as="geometry" />
        </mxCell>
        <mxCell id="Jk-irx_BUGMkfZiygmR6-13" value="Client" style="rounded=1;whiteSpace=wrap;html=1;fontFamily=Source Code Pro;fontSize=16;" vertex="1" parent="1">
          <mxGeometry x="490" y="410" width="80" height="70" as="geometry" />
        </mxCell>
        <mxCell id="Jk-irx_BUGMkfZiygmR6-12" value="" style="shape=image;verticalLabelPosition=bottom;labelBackgroundColor=default;verticalAlign=top;aspect=fixed;imageAspect=0;image=data:image/png,iVBORw0KGgoAAAANSUhEUgAAAMgAAADICAYAAACtWK6eAAAAAXNSR0IArs4c6QAAEeJJREFUeF7tnW2MHVUZx59ZebmtLSpFoNRKiVAlGoQuMfEtbGN8TTU2MX6qwH6w2w8kJighhg/tmihGEGPkw25NoC1ETdSA0A+iEi8JCQnpNvUlsQFNL0pfICxUiuVSujv2mTuzO/feOTNnzp0zc17+NyG7dM85c87/nN99nue8TUD4QAEoIFQggDZQAAqIFQAgGB1QIEcBAILhAQUACMYAFFBTABZETTfk8kQBAOJJR6OZagoAEDXdkMsTBQCIJx2NZqopAEDUdEMuTxQAIJ50NJqppgAAUdMNuTxRAIB40tFoppoCAERNN+TyRAEA4klHo5lqCgAQNd2QyxMFAIgnHY1mqikAQNR0Qy5PFAAgnnQ0mqmmAABR063yXJtaO27lQgMKbyKiDfF//E/8e/rTif8n+hlS2B6jsafOEnUOdWeSv1VeP18LBCAN9TwDEcMwkUAQEL0YEvEgP0tE50VVC2lVXxUDeiP+/7MU0LuDkC7pJaP3EVEbwFTboQCkWj0LS9vU2r4zoICtRWIZno4gCOj6wsx5CUI6RAGdZGgoXCprzwIF07As6soCEHXtSuUcb009SESRG0VET8eA8Le+rs/TAdGG2LIAFEWVAYiicLLZYouxK07fPucGsUtV5wegjKA2ABlBvLyscYyxM7YUbDE+pelRssW2A6Kr2aKEFEwuErXhehVLB0CKNSqV4sbWjomQQgZjggI6RIvR1NRo8UWpGuQmfvGcm9eJXa9/BhRMH+jOsFXDR6AAAKlwaCRxRjQbFdIrBoHR30oO6MeiqS8Gt71AwSSsSfZAACAVABK7UxyE86eJOEOtFSEdCgK6pOd2hbsWaWwvQOmXEoCoDa0oV587Vc/M1Ai1zc2axCdnQwqmEZ8sawVAFIbc9a0dG95BIVsME+MMhRZFWaL4JJ5MaCM+6ckIQEoOp75p297inCkBeMmWCJKn3K5zM3Der58AEMlhNTBta0+cIdm+jGRL6yc+xycApGAADU3b9vY+6VwBVx/SenImoETxycHuzB49jzGzVACS0y9L20PMW8+oezS9SAG94uO0MADJGGoD07YmrILXDUT28zyMTwBIaihkTNs2vT3EDDCGa5GKT9zetgJAiMjRads64EpAcXbbiveAJNO2xm8PqWO4qzzD8W0r3gLi4bStyvCXz+NofOIdIA5tD5EfvPWmdGpbvVeAjLem/uzY9pB6h77805zZVu8FIAOn+jBtKz/QR0vpQHziNCCxO8WbCvmCBIAx2nAfJbe121acBMTwU32jDDTb8/Ztq7dh24pzgFhzqs/2oa5e/75t9aafZnQGkIHZKR9226oPURNyWnKa0QlAsNhnwohXrkMSGxp5Nt56QJZmqHjH7fKNgsq9hYyNKLAUmyxQsNmkc/FWA7K06xZwNDKqK35o4hYbZUmsBSTeYHgkvvDZpwNMFY9Lo4qLIOETjAe7u6dNqJm1gCwdZgrp0XMXtH3VBDFRh9EVSL7wFii4ygRXy0pAYD1GH4gGl2CUFbESkNTWEUznGjzSFavG6yTsMnfmurNXKZZRWTa7AYF7VdlAMKkgk9wsKwFJrZb/PiT6gkmdi7qMrkACSEDB5qYv17YSkKXpXViQ0UejwSXMdWcbH5+NV0Clf+JtJXy2Azt0VQQ0Ow9ikCr6Z7w1dSTexp4IWkWxKKN5BTCLVUUfYCarChWNK8Mo68HqWOliJd26ZEVC+g0F9DXjuhsVKqdAvGUIK+nlZBOmjhcMORbhE4NwtSrStZFilvfT7Znrzk42UoeMh1ptQbg9KUjYHB7GtK8pQ0u6Hn33/s51ZzdL56whofWApNyt5D3kHORd7dkN7DUMFQ2PSL1fxSS3Kt1SZwDhRi1dBhfQScPeLqthdFlfZDJF3wkomGx6QVCkplOApFwufg3zrdFrmP17n4fp5CztnzPVajhrQdING7jyB25X09hYejWpcxZkcBwkbldAdF64/JLKoeGyeuVKeueKFU0PI2uff2J+PrPuIdFbQUD/SF6+Y9vLQZ0HZCCI30IUvUKt73PN+vX06etvsHZwmlDxU6dP06+f/JOwKiEFkzbcgzXYAG8A4YaPt6Z+SER3AhA9SD3w+GOZBZuw6VC1xV4BMvBqtSXNYEFUh09/PgBSjY6NlQJA9EoPQPTqq710AKJXYgCiV1/tpQMQvRIDEL36ai8dgOiVGIDo1Vd76QBEr8QARK++2ksHIHolBiB69dVeOgDRKzEA0auv9tIBiF6JAYhefbWXDkD0SgxA9OqrvXQAoldiAKJXX+2lAxC9EgMQvfpqLx2A6JUYgOjVV3vpAESvxABEr77aSwcgeiUGIHr11V46ANErMQDRq6/20gGIXokBiF59tZcuAuTyNWvoS5/4pPbnu/4AAGJ5D6dem9DXEr6w4er162nVipVSLeyeOUNvnTkjldbmRO9atUq6+s//598kuLihbdptidKNsv3y6jIN5bTJyz/L5kP6kRQw6q7dsi3x6kw6izPemuLLrifKCoX0agqY8Bo1tZr3cnkHCKzIKMOldF6r3SsvAeFGi4L10t2PDHkKGPEa51G7yDsLkgg28G6RUXVE/pQCNty5K9th3gKSBO1jRBMBhTfFL+EZ1C0zVrli3Xm0dt35shpbm+740bfp2NGzw/Xvvbbg5MAfOiGFnUUa23uoO9OxttEDFfcakLxOFE0Jc54Dhz/gSv/ntmPu2Tdp6uZjQ2lsvUZUpdMAiEA1AEIEQDycxZL9FgEgAMTbWSwZSAAIAAEgOaQAEAACQAAIgvQCdwJBOoJ04RBBkI4gXTg44GLBxYKLBRcLLhZcLJk5q+E0sCCwILAgsCCwILAgsCBqCsCCwILAgsCCwIKofX8iBoEFgQWBBYEFgQWBBVFTABYEFgQWBBYEFkTt+xMxCCwILAgsCCwILAgsiJoCsCCwILAgsCCwIGrfn3kXzOHShmDyYHdmj5qyduXCeRBBf+UB8tiTVxJf/eP65/FHTtH0d18eaiZuNXG95yXbN96aCrOSzu67gsY/tkKyFHuTiQBZoOAql+6+yushWJAcdcZbU0eyLpTzBZDd979Ku+9/bUghAGLvl16lNRfdBL/z7kvpy1tXV/osEwtj94qtyOBnrjvrzRerNw1VGYAiQLbf9h7aftvFKkValYdvVeRz6QDEqm6rr7KbWtt3BhTsGnwiB+gcqLv+ufFD/8pqohO3tsv2HSxIjlJ5201cj0NEAfq5mMzqN0bJgpGkAyAFivnqZoniD9vfGAVAyipQkF7kZvE0L1sRVz8C94p8CtC5b2FBCka4j24W3KvlQQFACgDJW1F31Yp85TMvZL44x6cVdMQgJXwjkZvFRbgWrIsWB7mtvrlXcLEkIcmzIq5N+YpiDx+tBwCRBIST5b0Z15WFQ9HCIBF5tfaRHhaIQSQhKXorru3bT/JcK9+mdgGIJBSDyfKsCLtaDImNu3xFrzmI29+e685uVpTM+mywICW7ULRwyMUwJDP71pU+K8KvWv7vyYzXLefU7doPt0rWPDt5ARzks/VADKIwxIpcrbKQ/PRH8/TQA4OvHC+u2HU3tGjX3ZfS+zeov68dcBTrDAtSrNFQirxZrcSSbNm6unDH76/2naR7fzCvUINeFobkgV+uU8qfF3NwgSGFuw52d08rFe5QJgCi2Jl5K+xJkUWzW9u3HaODB4a3k5ep0i9+t542fvCCMlkoZ7YqKefwXHf22lKFOpoYgIzQsaIjueki2eX65m0XZx6wevKJ/9Gd3zqhXIPPfnEV3f2Ty6TzF1mNpCBf1zyyhAQg0sNrOKEMIEku0SzXY799nWZ+9hq9fKJckL716xfRXd97r1TtOdbg3bk8GSDzASDLKgEQmREjSFMGkDQoHJ/wdLDOKWGGYf8jr9P+R05JgwELMtzRAKRmQAbdL4ZkU3xDCluZtevOLzVNzCAcP/p2BAH/5E/WRQtlmgkLAgtSZrwI06pYkEoeXFEhK1eO0enTi0OlARAAUskQEwHC59XZ58+68KCSB49YCFsqdvOOHz2beWsJAAEgIw6xXnYRIMnVpOz2mAZKeupZdKwWgACQWgBJHsIn9A4++2bmt3UlFSkoJLEYg1cVAZBi9RGkF2tUOgYRXW7NFoXdrjpgSaDYsvUiYdAPQIo7H4DEGvH2kTGiCaLF6MKrgIINqWtHJ4qlXE4hc/t7siaRnoHimEB2rSJ5Wm/mq3eRdjIDJjt9LAJE0NZO/O/8M/o9pOAp/jlG1DnQnWmX0ciWtF4DwttFFmnxpqzL4UbpQBlARim/qrwlASl6LEPTZmhcejWCV4D0rMTiLbF1uLWox1X/7ikgabkiKxNS2B6jsadsti5eAJICY+gaUVUI8vIBkCF1OgEFkzaC4jQgdYORDAsAIvz62LNAwbRN7xZxFpC8q3p0WI10mQAkV2F2vfbYctbEOUDicxoPZr34pgiM1ddtpFUf3Rglu/DSNXTB5Wui3/nfsz5zn9+R+e+2A7Lh27fQms99vK9tb73UO9h15qV5OnOi9/upvz0X/XzjL89R8vcijVN/twIUpwApazUuvGwNXRwPhCu2bSnRt72ktgMiOjiVBUiROAzI/B+fiWA59dceOJIfo2+LdwaQvMsUBjtq7Te2RFZBZBkkO1YIiGjlWrZc3emKzoeoAJKuM8PCoBx/eL+sZeksULDZxNjEekDi8+HsUhUu5jEQV37nFmLLUcVHZEGSsste4FBFnfLKkN0bNiogSR0Sq3L8of0yTTNypstqQGTOhXPPMBAMxqgWY7CXiwDh9CZYk+TwlOw5kaoAUQDFuLjEWkBk4GAw1m7bMhRwynydyaQ59vB+kvx2bAwU2XPoSXurtrKDrhfHKUWamXSjipWAyMDBHb3xnttlxvlIaUq6EREoddzAyFZjx81Hpfd26bKyWeLKfLGYAol1gBRd3MYdwlOU7CbU+WFQnr/jPtmgNLrlhG87YWCq/DAYP7//Vemt9clMnsos3ij15pmu5+64L68II2IS6wApmq3iGaq6O1vB146yVB2flHWnmtSK2y/xpdL47JZVgBTBwS5V1YG4yrekitslcxOjqC5FV4gO5mOrcc09t1c2m6eiUfpL5YV79+atnTT66gVrAClaBDQFjsGgtKDz+8ZW2fhEdto2eYjuSQtVUCQsSWOLiVYAUhSUN+0qFA2M+T88U2bRjPjceN5JwLLTtlw/0zViSP5+811CKZs6J28FIHmuVV2zVUUQFP29KrerbJzRxIRFkRaiv/MXSefHe0V/bsTVMh6QPOvBLsNH9n1ftT8ayacCSjLbVeb60DqnbasUMm8KuImpX+MBybMeDEdV20aq7GSZsiT8bplihtI0NW2rVFlBJrYibE0yPrVbEaMByXvlmek+tcyAKWtNisp0QZNk+jcnHqk1YDcakPHW1BHRuY7xJ2aKxos1fx8VFJ3bQ5oSMcfVqnVtxFhA8qxH1ZvpmhoEg89lUMpMC9saZ8joXTCrVZsVMRYQkfWwMTCXGRDpNEXTwi7EGTKa5Mxq1RaLmAxImCWiiQuCMp1dNo3I7XIlzpDRI28io6637xoJSJ575VLsITtI+GQenwOv8rCXzLNNSJMTi9TiZhkJiGhq16ZFLxMGlwt1yIlFanGzTAXEa/fKhYFdZRt4W3zWRRB1uFnGAQL3qsqh5UZZIjerjpV14wAZb03xBQxD9+bCvXJjsKu0IudwlXY3y0RAMhcHXV37UBkwPuYRuVlz3VmtY1hr4SodKXqtmW+zVyrauZxHtD9LdxwCQFweVQ61TRSHeAVIfCEDu1h9Hx9Wzx0ay1qaIg7Ug0mdL+wxyoKIzn7YcihKy8hAoZECokBd90yWUYCIpngxgwVKAAgRiS5m8Gn/EVDIViBnRb09153drEs3oyyIaA0EU7y6ut+ecgEIEQEQewZsEzUVXBYOCwIL0sRwNO+ZAESwzQSAmDdYm6gRABEA0kRn4JnWKAAXy5quQkWbUACANKE6nmmNAgDEmq5CRZtQAIA0oTqeaY0CAMSarkJFm1DAH0CaUBfPhAJ5Chi11QRdBQVMUwCAmNYjqI9RCgAQo7oDlTFNAQBiWo+gPkYpAECM6g5UxjQFAIhpPYL6GKXA/wHOw2pQC99AegAAAABJRU5ErkJggg==;" vertex="1" parent="1">
          <mxGeometry x="490" y="450" width="30" height="30" as="geometry" />
        </mxCell>
        <mxCell id="Jk-irx_BUGMkfZiygmR6-14" value="WEB" style="rounded=1;whiteSpace=wrap;html=1;fontFamily=Source Code Pro;fontSize=16;" vertex="1" parent="1">
          <mxGeometry x="490" y="311" width="80" height="70" as="geometry" />
        </mxCell>
        <mxCell id="Jk-irx_BUGMkfZiygmR6-10" value="" style="shape=image;verticalLabelPosition=bottom;labelBackgroundColor=default;verticalAlign=top;aspect=fixed;imageAspect=0;image=data:image/png,iVBORw0KGgoAAAANSUhEUgAAAMgAAADICAYAAACtWK6eAAAAAXNSR0IArs4c6QAAD3VJREFUeF7tnYuR2zgShk0lsnYilhyJx5HYjuTGkSw1iaw2kcG6ZXCOo+IDj36B+FV15fUZJIEf/bEfAMnhA35QAAqsKjBAGygABdYVACCwDiiwoQAAgXlAAQACG4ACZQrAg5TphqM6UQCAdDLRGGaZAgCkTDcc1YkCAKSTicYwyxQAIGW64ahOFAAgnUw0hlmmAAAp0w1HdaIAAOlkojHMMgUASJluOKoTBQBIJxONYZYpAEDKdMNRnSgAQDqZaAyzTAEAUqYbjupEAQDSyURjmGUKAJAy3aqOulwuHz98+ED/o9/052120vt/j+M4//+qromDyxQAIGW6bR51uVwuZPghhHNseP97xaUIlFsIYaRznE6nK/0dAFUomngoAEkUaq3Z5XJ5en19/WsYBgKgFoTc3ryBA2hypUtrD0DSdHrXiqCI3uGp4HDpQ0byNATMOI53j4NfuQIAJEE7CplCCF8NPERC73abjMMw/ERItqvTYgMAsqFb9BQTGGUK+zrqeRiGX/As6ZMCQB60ch4+pc/sdsspDCNYUCnb0AqARHEiGN8rq01cBqx5HgrBvgGUZcm7B6RjMB4t4p6rIPx6L0u3gACMVScFUGbSdAcIwEiO3ggUylGek484YMNuAKHtHSGE/8VS7QGnUmxIXecoXQDy+fPn78Mw/BAzoT5OTCViylG6qnodGpC4wEeVKdoCgh+DAlTx+rOPsg9QDgvI+XymcMrjVhAGMzU/RTdh1+EAgdfQgyeE8ON0Oh16sfFQgEQ4/tYzEVyJwq0jLzQeBpDz+UxgINcwYjZCcriScPOAoHxrRMTyZQ9X6WoaEIRUruCYOnMbhuHLUapczQICOFzC8dapo4RcTQKChT/fcEy9oyrXy8sLPazV7K85QLC+0ZattV4KbgoQVKragmPW22ZLwc0AAjiahaPp5L0JQABH83A0C4l7QJBzHAaOJiFxDQiqVYeDozlI3AISn/yjHbn4HVOBJhYUXQKCRcBjErEwKveQuAMEcHQDRxPhlitA4sbDf7ozEQzYrSdxBQjKuf2S4nVbihtAULHqFw7Pe7dcAKKYd9DnAOitHPOvO9V82KZnq37UkuVhNW+7gM0BUcw7btfr9dOSRTf+eQMNSOmmQvup6Jsji08Nns9nyh1Zbja/X1j3ycvzJOaAaOUdqTHu7KUP8+8Iahihx2skPyHIPI9uknZTQDTzjviUW9YXl2L/6NVBLHdGjwSsrE3QC+Kyni/nXthNvaFJa2oGiGJoRRquhlcpAnfyPl+6a2eDMdePM8yi83qAxAwQZpe8aedcQh/Uo1SDMYnPDQid1zofMQFEsWp1nzsuQOhc0fPR60w539p4/1ptNLT7nyEEMtzHPOjx2+opDnC1DacudBGhndfj9Xr9UjXQioNNAJG402xpUJJ/7GkaIafNlCn5yTMZ/Ol0+peqQdO5ayo1BGo8z/3P19fX8zAM02eo9/ok8g0Q7jzEw/qIOiCaifkk8PV6FRvnQth1T26pJGr1kmeCdw0ayXUGycjAKtQSM5ylO7ByYj51oSpB3/MkMewig7zVeISU69S0IePV+Lza+XwONf3cONYk1FIFRChG3ZsPcUD2OtDTvwsCQl6ZPjaaVX6u1V4NECPvQfqY3HlqJ6bV44XzS/UFRDVALHKPaGTP1+uVPvqCn4ICwoCwViRT5FABxNB7kAYAJMUSmNpIAxILIGp7tVQAMfQeAITJ8FNPowEI9/rN1tjEATH2HshBUi2bqZ1kkj7volbZVxwQY+8BQJgMP/U0WoBoeRFRQBx4j/u8Si4UphpOD+2051vDi4gC4sB73O1SQ8geANgbo+RK+tK1NbyIKCAaCdvepEVA1BeYUvp1tDYWN0Tpm58YINrudsfYUOpVoFHzEYZpONKr62KAWNxNNmwAq+nCgBjeEEXnVgwQrWpG6rxLu+LUfhy1ndRW9xS9JOdWBBDDu8mangixUiytso1hzik2vyKAGO3aXZte7OatNPzUw+ON8e/Eh8hST5vUTsqLSAEi9UxAkljzRhJPE2Z3oqMDrHJPqWSdHRBP4RXgsCHTCBKRMIsdECNxlixBRDAbk2vvqhb5iESYxQ6IRS18yXwkxGrPTO16bFHVkogYJAAxzz80tiDYmV47V9b2IhLzzgqIl/wD3sMHRNp7syQer2YFxEP+IXEX8WFubfZC24tw3xxZAfGQf2Bruy+QtL0Id7mXGxDr/AOLgr74uPdG2YuwVi/ZAPGQfyC8ckiH3Dt71wbLunmRE5BLCIG2GZj9JMp8ZoM50IW1S76cYTYbIA4SdIRXjqHS3N3NmagfBhCEV47pUM5DOBN1NkCsK1gAxD0g9KkIzm+qrA7YKyCmFSzkH74BUc5D2CpZLB7EQwULgACQmQJslazDAMJZufBtam32TnvBkMseAEib9tZcr3sHxHoNBCVe58hoh+FcpV4uDwJAnBuoh+61uBbCBchTCIHKeFY/tqTMagA9XBeA2M0yQiw77ZOvrAzIF46PlrJ4EGwzSbaRbhsa5CAAZG5tXGW9bi1YeOAGgLC8sPwoHgTfABE28NrTA5Bh+FErYs3xXGW9mj7g2HUFtNdBuPZjsXgQ5X02i7MAQHzjqW0jXFuPjgQIS1Lm28za7Z12IQeAPNgKl0tt1wR997x3QKxX0sk62LY4+za1Nnun/byQNw8CQNq0W7VeK7/ZhO3DrVw5iAdAsN1EzdzzLqRd4qXeca2LsQBCHdLcRrA2Pahk5RmuVmvtEq9XQP6x+LLQfJKRqGuZfN51tBP038++s+3N4/Qg9E6sS5507K2RqLNLWn9C7QSd8yXWnICovbViY8qQh9TbM+sZLPIPzorm0QBhq16wWknHJzMIrz5wvgKKDRDtrQRrNscpTsd2zTZ0iy8ec9oAJyAeSr00sQiz2My77kRG4RVFEWzbjtgAiaVe80oW9QPl3jrD5jraIrziLPHebYlLjAiIh0oWdQXVLM6JLTyX9up57CZbiVcCEA+VrLtO8CKFVs10mJX34L45snoQL4l6nGN4ESZjLzmNkfdgrWCxexCrpGxtAuFFSky7/hhD78GaoLMD4ilRn+LRWNG41U87zpCigPVNkmuT4jRW1hArAuImD6H+cNbEUwyk9zYG20rmkrMm6CIexGLn5p5RItTaU4jn361zUImbIbsHcRhmoarFY/+bZ/FwY+RcIBQLsTyGWchHZAmxzjum0XHnHyIhFp3U2tVumMMYnxlB0s7EjBc4OJ8BmUsjEmJ5DbPgSZioiKfxEFZNI5LIP8Q8iOMwa9LzhvJvHSye4KCRSIRXooB4E3DJHPCIbhkkxqXcpU6zl3dFk/Tp5FbbDTKn/XkYhp/jOCIv2REu3vS+O3i0+l1PpcIrUQ9CJ7fccpAJCW1R+EbPkgCUZeUsHnxKnUOp8EocEOfJ+pL+VOX6BVD+L41nMKaiy/V6/ZQKU247sSrWLMzi2noyGS+d+vb6+noehuFjdPf0J+fvFkJ4Pp1Ov3r0KDGU+vpb5ydOUSXOJRleqXiQWCenB6lqjHgzCZtNKL12qOY6a17lJ0F5dFji+hXlGNwaSrBxv1FKeg8VQGKYVetFksqyERS6ltQEjyGE8SieJQJxFvLCUlC8nVfae6gBwlHyJTFSDVOxODABc/XuYQgGmvAQQrNAPBInmZxP1xLPQZhzkeStIhESMgopb7J2hxyjIZp5moeQk7qjrcEhvIeaB6ELcXiRqWoR1y2e92bBEBLz51AcLubtTVfWv2s9wqDmQZhykXfxZ0rIpRhuzSfYxfPwjSzUZoERG6u9+0wVEKaK1lzQpJBL+W4qXllJtSiFokVqV1jbaXkP1RBrUoj7jp6SvAuAuTrh3vZ3NbDQlwWPRuVq3iFVDzJL2FnfwJgiGjeYK7PqxntM/dO8OWRZemFjTe9h4kFiwv4UQqD1CrZfyuOW0pCkgMo24IwTHcWLWOhr4kFiws79mtKkxUTJxFWjLp/BxVtTx094Zg3HQl8zQCRcf8odRuK6cZbdhVdz6/PwDcksGh4ap8xtzfnXjjUDhDokEfKkxKgSkFhNYKpRSHrO1D5UtDO7+ZgCIgRJ8hoEZ/m3AUBq98NV2HfdoSn5Zd0V1o82ByTmI6xVrRQvMknCtNqutnBVagit5iHWNx4XgHAvaJWIWrjVmx7XpWdG7vuvPP8aBcQstJrm0gUgEqFWjheZGzbBSn+fPZD19s8hhNvpdPq3xScOGffCqd0HLEMrd4BwQ1LiRdRm3uBCjl7wljR6L/PnxoNMqnFWW0q9SNIMNtiooVKvm5zOHSCcJVgvdyEvLDUCiHneMZ8vd4BQ5wCJDFItAOIh73APyCwfYXkiEJ7kz5R7B8QbHKSZSw/CvEZxPx0g8Q2I1/lxDQh3ZYvKsz1//sCxB0ne/SATfK6f1T0gApB0+5pRp4C4qVgtYdIEIBKQTGFXynPt2nctqes5BMQ1HO5zkEdDYdo3tWR/81f1bL7jiips09vNp3dM0WtKX15e6O2Lrn/OAHEPR3OAxBLwJT6N6OZdT14TzEdaHQHSBBxNAuIRkhYAcbTVpBk4mgUkQvLxd4hT+1JslpAIgCTL2BQcTQMyTQnnQ0/J0/zQEIDsK9eCRk1XsbamQDB535/5RhYhLUMsjyvkSRPrfSU9dRDWeUkLd0cjQOhNM99aeKBszdaaWQdJgYVzk2PK9aY2AGRRrebyjcOGWIrrJYuWAEDey9KCHqk3wEN5kPmguZ9z3xK0BYNQCrGaD6ke5/mwgEwD1UjgAchdbbcbDlO9RTch1uNAozehj1PeX8jA/fP2Rvel8Ql6ENoh/bPlRHzLHg7vQTTCrl4BaWHctTfDrgCZxCp8B9aq1i0YCrMHOWQ41W2ItWbZ8bMA1d9W7wiQZl6UV+s5puO79CALOQp9r4RylKIdwi2sFFd6EAKD8owbl+G1ch4AMpup0tDL4rsVJQZW8M6xbsGAB9mwsIfvjO95lWbi8cTPTVBV6leLr1ctuWnsHQMPsqNQ9CpfV0rEzcAxDXPjc2zd5Rd7cNC/A5AUlf68zO4xmafSf5Mx+eNYxnF8TpShu2YApLspx4BzFAAgOWqhbXcKAJDuphwDzlEAgOSohbbdKQBAuptyDDhHAQCSoxbadqcAAOluyjHgHAUASI5aaNudAgCkuynHgHMUACA5aqFtdwoAkO6mHAPOUQCA5KiFtt0pAEC6m3IMOEcBAJKjFtp2pwAA6W7KMeAcBQBIjlpo250CAKS7KceAcxQAIDlqoW13CgCQ7qYcA85R4D9Nk1BQGNtbDQAAAABJRU5ErkJggg==;" vertex="1" parent="1">
          <mxGeometry x="490" y="351" width="30" height="30" as="geometry" />
        </mxCell>
        <mxCell id="Jk-irx_BUGMkfZiygmR6-19" value="" style="rounded=0;whiteSpace=wrap;html=1;fillColor=none;dashed=1;strokeColor=#666666;" vertex="1" parent="1">
          <mxGeometry x="140" y="305" width="310" height="80" as="geometry" />
        </mxCell>
        <mxCell id="Jk-irx_BUGMkfZiygmR6-5" value="" style="shape=image;verticalLabelPosition=bottom;labelBackgroundColor=default;verticalAlign=top;aspect=fixed;imageAspect=0;image=data:image/png,iVBORw0KGgoAAAANSUhEUgAAAUAAAAFPCAIAAACzpIAoAAAgAElEQVR4nOy92bMcx3E+mpnV6yxnX7EvBEnA4KKFok3RV/LPCpkOS7bDEX7VH+ZXx324EdcRlmSGHEHKpiVLNElB5iYSIAgQ69nX2bqnu6vy95DdPT3LWQAcAudA84k6mKWnuqq6vsqszKwsfPHlb373tT/73vf+n299+9szx+bAtjWDAQBABEBAAECG3YC7fvv1oOeeu1fwseERe+JAWvHoT+PRq8GcDZ29LpRrLAQFCIYNAyIoIoWIAMYwAEtRDCBjkoGBGbCreBT0tIKZAbDnyp5rdvhKvpX77N6QHQvBAd/2Yw9yDbqd1ma7Vrt+/fpvfvPf1sVLl773f/7Py994eWx2pml4e2u7mcSGEYAAFTKCoayfdygQ91PPAwP2PRIAYAZ+oiweWKsHxaO3Ah+9EgDM/Khd2UewHPIpyphBZmBE9lCVLQvi2GitCD3HcWzLIgTDgFIdZgZCTCk8qKFEJJ/mlZd2YHa/TgXkx1isEXQ+lsoxM6czRefyAQNPrgEAlBeIGeVxf8+S+yaIPd4zMJd979zZM7al8P/9//7/17///dLU5HIrurG4fm99ayuIDIj0RQQEg/uY1h8nebq6P70985MWwwNq9aDI+PvQDcH0f4+GR+/MnfkLIJNdxgUGQOCKjZNlv4TG1W07CX0C37E823Zsy7KsVOwiECIiIYm0pZ7eJpIPGTqTKfc9FUwJicU5N+Vm+nFKYMilPhb+KTSi01z5Xn5TVAV26cS0XpzfvrtwzF8V3me9ZrQJ223LshzXxcW1TVUZuRvGv7+9/v5nXy5stxoxaEBGTn+2m/jtvfNjQt/0y4807g8IByT9jnwdpISda4IAGfmQARCgYpnZqjdfdaYo9sNtO2rZyL6lSr7n+77nOpZlESlSpJQiIkICpC65ipjJZ4CUzIjYzacMIqszWZl9X3xdKLbD8p5iuq7tSP5BNxzcC8WptijeO2pAXoG8RERCSpJkY3PTdtzxiXGsxWa5Ff/3zeVfXbt7a7PVYidCxyBwqpvvqQc8AQIPVKGfNIEPgDoH0YoDqcbXp0ED9BIYkcGDqKKSCcccc+G4TxNKW0mbwybEbVtRyXPLpZLruZZtW7ZtKUto3D3UAYk6wxyRCDs07tKTAZFybbnwT05hzLsBM0BfzxbFdSZOUxV6f08Buwnbc4dCsfmLtH5kmMMgJKX8km8lwEu14Mbi+u31ekC+ISufuQAZGHd7FIWbPXb09uaTJjA8ej8cUCsevRoHQGAYsGDsvy4VXQmrJnMcmiDmmlHHq6XZ8shIaRSDWtKsNRrNIAws27Y91/f8kleyHce2FJFC4S0AIrLWHfYgGkDmIgE7Mg8zMxvLFaKgY7FaaU/Iu6ya3couA2diV2berOysfCiwD3ofS36/giTG4sSXf5ra0jqVYwBwXAeRAMAKtVmtt1aaUcPY4FeMTow2xTXQPp4mPwkOP3G69uOQVOmQVAN2FuQFTSN1eRCT09bUiJLVWG9qHU+WLoyNjFVHeHst3l4LgnocBtQi1/VLfuB7vu+6ruNYSmXSOGUKERISIKKBbMlMmItLREYZ0+l6lZELi2LoEryAmVGxM8IRe9rQaSSnSwIssg1FhR1gm8DucrKXXFiYZ2UzpjXgjOXSNACwNHPbmATIkK0Ncqo6p5UBlqnpicjYIZ5W9AoFDaANINlkeUCwGIZ6aTMI3OdmRmfGp0cqJa+1HQb1dtgMwqDZbLmO67tuyfNKfsm2LZKlsRI2KybomKk4pWi64kUiRIMm1UqFLpgqmjmdUxcUZk4oFl00Fa35dPBgjR4g5naxEuTqSXE+xrwYqSEAWMxstElN5sZ0tJ8hZ4d4vBDPjWFsM6xGJt4OWmDOjDonq+7Y5FS5ZVXaThgmYRAlUdJqBUGzVbcbjut6rus4jm1btiySLYuIZAijQUMGU8s1EDKn3wkxESElLWD2L+Skzxe2AOl6EuQzzGRtjxOIM0d1UQinUhi7uAg42GPY+R0iMssti7qMfJz3mMUAxhg2hg0zmNzozE9ELx7ijxUi2ZhZawOomsoJkrix2ai3qc2VZ6erU6Pjbtt2vMTz4ziMoyBoB2E7ioIgqBM5juP7vud5rue5rmtZSqUmLEBCzF1PxCQL35TEXaTtoXHm3u0skGWNKl9gTtNeHmKB7ClRsf+qTLmWX3T6obPGTn/GmbDvNy4ygyUC1zAbY5gRC/diZgJ6qMcxxBAPAGbgTDRqbYAASBng7TjSW6HRrJRtz45WPQUQeiqplhC0joKwUW9sbW01ms1msxmGoed5nuf5fsn1HMuyFInvKbVHKyImMuKGMpRzuAgo/AsFFw531qZZnXMNvOdTgG5pm77ukYadr3e29WWWsC5Z2k1jtgoF5rfJbokDJ5ghhjhgZAvSzLAEbJiBAC030s5ywHy/3k7w7KQ/5496cUDtkBEdxx0bs3zfD8Ow3W6HYRiGYasV2Hbd933HsS3b8jzXcVzLshDRKKXExoWEJM5gQkTK3E25W7jAXujh+MDqZ00A6MRmYdenO4NTc3Zu4U4Zmv98oHMxr4kF/Rjg9BpiiK8VmbBIhYi4TsCgFZEyGnSznSw3wkTjZOXcSFkxmyhi1sI/23FKSZJzuN2O6vU6ACtLlUol3/ddx7Esy7IsZaU+ZBI5TEREzKpXDGcmLyAciE61s7VmHk6ZRk70ib2u9W/2SVFeFnTqlMHpMrmoxGf83pXAQwzxRIEMBAAm1QsZMTS4VA/bcZuMKZXmZkpjjhVCq0FJAoiKCGzb9bxSqRS2261ms9lqhWEQBVEcRa1m03Vdz/McsXUJjVPtWpFSShnZPTGAwIzdIrqXxt0uY7E8yQfMYrNmFMd6l60rW0LL5wNlJQuD0/7oWLx6lPkhgYc4dBBPLaaCjA0AkDLsrrXja6t1tKyXT80d8y2PtZ3ERqB1HMdKqVKpVCqVRqOo1Wo2mg2RyUEQCIdd13Ucx3EcZVmWUkrEslKWMkSdVXGuNoMBpMzsNYjGabQ19lL5oLw4mbuoqzwRwmK0HxJ4iMMIBCTO4y1Ag2IkzWotal9bqVm2o6arp0sjFAWQREprsCylKEm0McYwg+NUFJXKpTiOgyBotVphGNbr9WazaTuO67qu62aOJ/E+WaSUKOSYU1iUbMOsmJCYOd1Ikf2BLFoEEbGzd6AT9JH+4QHbCbioMWfW7q4eSK3X0gO9PqdcDg8JPMShA6ceXPGAYO5ZYVRtrVabyRfLNY/IOTYxU6q6UcuKA8WsiBVhrDkxhkkpyyJkZuN7nu/7rVYzaAVRFMlS2bYsx3FEqXYdx3Fd27aJUFRqUgoR0TApZtnPSIxMkMZ5SDRIr8qNufxmFP0ZCxGYXUg9TT1OXix8L77mAX7gtCsyDAk8xOEEZUInX2oiA2jlhawXG4m1vEW2sk5MzXi+hwnGMRHZFqKFaJg0s46NTgDQdhzbsSuVchRFrWZru1ZrNlLVWlmWbVmu5/p+yfM8Synbth3HsZjFPg3MSAaYgAkNsViuZWtyUdUuvsvs1iCBGNitY6dBIQWjVOH/kF2SU38n5Fr0kMBDHEJg7knpgQFlkALGxXpIC6tlz/YnyyW3xKapkMAYZmDDQAbIAkKjE8PGGEBE27ar1Wpu6Go0m0GrFSRxO2qHQeiXfMuyXcfxPM9xnVQQi7mLMqeTWK2JuLBgzhfHxa0U+XI5i8rELLgRRXVm5iyqOWtpHl+FiJJOYNAuqJ5PhgQe4sgBDWBL03Ij+XJpe8p1R8Z9v0QYRyjrYdZEwECMYAhzKxdmWwnLSrmOUyqVwjAM22EYhlEURVsREjqOUy6XPc+3bduyLNu2xdaVupCp44Pq2LSYueBIFnQUbMrNzBkjM5tUStRsMcz5tqWOQzwTzTs7dYcEHuLogZE0Oo1E315vTPnOqDt1ZnyEqUFgFDCCAYNMqA0aQyl/EUFrAGADZIFlWa7nVarVdrvdaonjqRW120EriKPYtptpiLXrOHb6P6UUKWMUZfFdlMpezoMzc8526EzceQ3FkK7MzZsHamW+ptx3xIxdPuV+UQxDAg9xNIEGrYRpMwg/u7fmKKqOjE7Yvs0aCMkoNNpoIGOMNvIn1X6VYmatdaITYwwAeJ7red7o6Gi73W42GvV6vd5otIKWpSxXwrgkPtN1RSaL/8lYhigP66LOC8yNXCmTC7aujpqdUj5fCmc2KxDK5h7mzq7iruVwPgkM18BDHEkwADIaUG2wl9rxp6t1v7z8nRMTFa+EERkdoSFFTIaZjDaadMphNsYYIwtXrbXRWhKAEaJQtFwpj7SCZrMRBGEURXEUBUHgep7v+7ZtO7btOI7tOK7jqGwrMiKSUkRMbFiInNrAkHGHEJBMlnLm9M73TUCXMTrTvQdZoWUX9JDAQxxFoDEADAZtg+puU7t3l2dLVnWyVPF9bAOZBAlAa0ZD6f+ypbA2SETGEFGC6QoZgBHJsSzHtl3XLZdLQYqwHYbNZqPVatm27Uk0iOfFnmdLcKZtK6UsZlbETIyMTEyMLJHWsjweTGPAnqQ33Q4nWQNjtiW/wGORwPJ2SOAhjiAyLygRAVlB0r6ztv1Jya56x5+tTNgG7CQENIDIwlA2ZIzWxhgiSrVqIZXROtOy03S6tmU7jlsuleMkCYLW9natXqu1Wq04itrtMAglqMv3XNf1XMdxbds2lmXZVqZMZ7ZqRCYi4VpBqcZuM3UWVJlaqgdsZMrN1FnTCx0wJPAQRxPpcpJNrA0Ctoz6YnV7bGxkfGzsuOsrk7BJgBAQRfpqMkhGG0OajDGGtHBIE6VfC5gNMyeJxFCUSuWSX5qYmGg2GrV6vdVsigO52Wz5vl8qldI4EMexZb9EarImIiX7JNIgTKEndZRqkzM5Sz3QszbON0jsasQaroGHOIpIYxYlhQcgYIzOSjv+fGV7qlyaOD3tWg4yoDFZSh1CNoYMGsNoOBXAhCjs1ZpI0loYY7TRRhsDKWOQyPM827JK5XIYBK1WqxUEYRA0Go2g1XJcySDgeZ7nSBSIkyrXkuYnpTHla+KMyrmVi9NNjVjYc5StjQdk9yzuRuKhCn1w2P+26eFGzUcHmmwjn3hbDFCo1b215h+s5eMTI6rqlZVlR6GSFI1o2CABIWpGYmPIGIWkibTRhohEj2aRzSKkNRsWgQwAtux28v1KpRKEYaNeb7Zask0iDEPLanqe6/u+ZAVxHNexjWVZRFpZipQiTs1dWaY9lvgPBiRGBCJJ09UJoubitqOuESOaviR+HlqhDxq703hI3YMBAzAgp3FKjMwaiMHZCqMvl7dn7y77F46dLXuK2U4izQBgDCcIzEo2KxJro8mQodTEla6MDRujyZDW4kDWQmpmw2ySBBE9z/NLpbHR0bDdrtfrW5ubjWYjCII4iqIoitpR5Eee73ueZ9u2UspmWzErxQoUEYnqLHoyQ5adywAQSvabHpdRymLkzKSVLn8l9Q8MJfDjxTDP2MEgs/Vg5wACIIMKFG22Wx/fWhyr+mMnZ6qei0GiAFEp1GRMYgxkIgyQUSOixDgrpbROPcaZRm2MoUyhZk4XyJpRMuk4jjM2NlYul8MwaLWCIGiFYVir15rNpuxMTqWxdmzHcRwnrXkBYoUDJEJjgIAMdkd95AlioRPGlTY//zsk8BBHErLpH1NdkhnBAINSba0W6+3rS1unqqX5+SpZFgLYwIRsjNIaDBo2bBDJMCASkxH3MJEwNjVrCXENacpojIbZsBFWMSGiZVlKObZdKpWjKGq1ms1GU6IzoyhqNpu+73sl3/M83/dd15W1cTGs2hgDyIAkm5c6K2NJA4D5VAWS2aAvB9eQwEMcTYgNB4HlPznY0QAlymlo/mq1dnPUOz9VnrItGxiTRBFIbjtjjDaMxhhiNCibCoRRInTFrmVS4qbqtLzT8ktmzpxObIxSynacUsmvVMqtchqVKWvjdju0Wk3P8yTNgOxDTiO6lErdYIiAILEfLInos/yYecxHliOAs9w70vqhH3iIo4yCRpmuTYyBBInBWq23by5v3p4ZLc+PKTQmiQgMIqosC1amLiOblMCyJcFkNDakjayDibRIZk0IiQZAZoNgDAMzEAGA1prZIJJoztqYIAga9XqtXgvbbUkq0Gg0xPPkp6dKOEJjW1lMxgCiQQRk4vRkiYy+8rYTqpVHZxkchlIOcVSRHpQAsmVH/Khi4iEDdlvz4nbr6uL69MQIeeQpUgiKKTXu5gf5GmJiNIYQjWTcMGwIjZH/mIXL4mgioyQA0xittUaT76qX3FdZOkmUzD6OY5cq5SCzVDebzXa7HQRBLo0dx3EdF33Pkqx6RIhABnR3ADWgQSLKZqkCg4cb+oc4ukiPJJPccWlEMTMAECPFbFYbzWuLa6ePT5enR3zLRp2gAWQ5MxyICYElHlEEL7FhQ4YMGqJ0F5OYrgwZUmS0MUYppbU2WhxQJrdRG8NyQEJmIpaADtd1y+Vy2G6LUi2G6jiOW62W67q+71fKZWB2HFsppZSFErwlnmNEIARGJgLOcl9mR0JIJu2hG2mIIwqmriwWvWfhGsBapG9tNK4trs9UvMlR1zCDMWRE9gLJDgZG5nwDvayJhb2Y0TjTqtlkS2MiTYqUVlnMhzYGjUaNmB6QIAquHEluO47jutVqNUmSRqPRaDRkkSwRXVE7itpRqeS7rudkGyQki7VsEQZMJXw2T6V7ElP6DkMphziKQADKNGHTcQhDZswCQIgtd1Mnny9unJqoHCtPVZEUGxCTFYn7GFPlN817lS2FRQ720RjRIBrs2KtlpawMaW00GZSti7KulpOKwLBhDVn4lCyAx8fHG41GEARxHNcb9Xa73Wy6vuf5meeJmZVScgw5ABpg2vmgoyGBhziqkGHNmGrQAICZGs0IWjktpHtbrZtLG6dH/bOjZQc1MqsssQ0CGbF/5QRmRmazM43z9AApiIXLypDWqd1LrGOgobM/IjvMUCmFiJLlo+T7olHrJGm3Zc9Ts1KplCsV3/PSVJlsy6ZjQGTD2TFH2NnQMIyFfrwYRnEcGBhAd6dWz5CHIxIyNcPw1urmlxOVydGRKhCxRgaFClEhZblritsFhMzQbZjuonGHw2zYSFymRkVsDGsD2iBqRMQENaTHfkJWT2bDiCgJ5o3nJEkStaMwEENXi02SxO3Q81zX9T3f933HdVEBGzDZxkOVn1jGCEMV+qAxpOjjgNAuY133qSVYuAhRg1qqta+v1s8cSyzFtkmMZpQYRsaefK2pJp6viPONt13SmIlIfFBs2BhmQ0zMxmjDiUEyQIpJcycfSGKM0VIfBjZaG2BZ5Dq27bleuVROU3PFcdhuh+3Itq2w1E60LjM4tsWWhUAAxIAidSlNjTck8IFhSN3HivzQze6eL9IXgEEzbUf6zlZwY2VzdMqvILLR2jDGGhVyerQ3ohxylG2Zz4KsmYGR+tbGbBCRiDMCGzYGDCuDZDhmgxqQmAwbMjrRhJwYpY1JjNEAQIoRkCSdNCEgK2DLt31NRutEx0kcxkk7gmY99CP2Hbvku17JtdDCPPsdKoXDQI4hjjZ2nTSZmcGACg2vNqPbq1vnqva4CwqYEg2AYAAI0lRWRMUgxUKKmzTDK/Yr1cyMjARsDGhktBA1kOTENGTYaNZogAEJDIDEfcRAEVCbITQQGUgSTrRhzRLdleaCJ9ZKG8MYs6NNKU5GDY6DqjL5SlbEBghQIaMeEniIo4jd054DAIABZjCkIsStiO9t1FdnyjOW7QNhohlYCCw7dtOjGDDfNJ9Gd6E4mmVh3KtUs0FGBiYCtFgzUgIcAyfEBg1rxayNIgUGAFAbDjXXNG7HXE9gK9L12ISRjqMk0amyDcyWUq7tKHQIkYAtE5aoPdqOpyM9E5Umfa/sEqNBi4kRwAwJPMQRxR5rFkYERsMATK1IL27Wb6+Xpt2xed8zUYScoCJmJk5TZEnG53SrfbH8Yg7nbqWakHM7syQOSI9TZGYgzZgYbCcQJlBvRxut1lq9tdII18OkaahhoKUhTiTtVXpPBAQ2wAECEqGF4EDsYbui9Goz2Qh4voozVRj3LTaABowZqtBDPJ1ABgBUDAxgNHO9rW+u1qcq5Yo3WuJYJTExokLDQEzMxExKKSIg2WDfUam5i8y5z5iZ0ZABRDQGEtTEwIaYbUaKwGqC2o5gOQhXtoO17fpGvdmMdDPhllExY8wQM7DJFtyQZZwFNunRokgACiyLYRv0Zkirhhfj6FRszo66MyULCEoahwQe4ikFyqlocowJhRrvbjSnRoPZUTOPymYDCVtAYlWWbHTMoIhZUlhRuts+c+N2DlTI18bAAGCQKCFGAEYiVgYwZtoI4vuN4H6tfXcjWKq1t+qtZlsbspgcgyTbkRmzELJMbU+3/hYM7ACMbCNwjWE9wjWtG2HQDpp6qkrKHmU1JPBThp1Whn+cRvL0gG0Aig1ttJJbq/UT1dr4ZNkG5CRmIEIgYpJoaACTprEiIjLZiUiZgpuxmLOjvxkQ5RhQZNtOyIrRbhpcqoefL61fW1y7vVbfanOIDqDFtmeQGIgBDWfatpwiDh0as+zTKD5IAgDQDAmDjhPTbLdq7YSRXH9sfEjgpxNdntEnVosniVyYCU2UATvQsLAVfHFvedaZVRY7SIk2CmUPAxEzA2S8lfNT5BAzzk8vA8jlcfoSgRmQSRlUTYPLgflqvfH53eXba9urzbiVqAiRlUVkAaPsIpbt+wCpz9pkL3IUpXIa/gEAjMyYMDbITwzCVlu5tZFqdUjgpw/c9/aPlcOYps4BRkZLE9YifWet9qWvnOnypG+zTmzWRCz7fuW8A844zERECskoUpLBsrMwFu6hQiSD1GZabydfrdeurjavrdbvrjdrkWmzzYSAiEQGEYxQk9M9CphVra/e6USR0Tg9OQkkLlqF5LVBmXbbX6/PjG4OCXxQOLxZKbs1sr40pT3/7nDZEUUx1oORYmOWg+Tj5Zrtl8h3R1FzEpNhS5EyrBlYjmxQSixVxICMbFjWyKgUIjICKcVEEVIA1IjNciP8amXr87tL11e2lxpJjA4qG5UFjEzpelkqIMp39kiQu2oJ8mn6b34VyKI5c02DAuKIk41Wc2G7OSTwweLQZaXM2StzvoALNclGFwCkGeLkePmjzuH8wBLIIqYNM5OqG/urpnG3E7+UXCjZaFpWuq5lCdMgItklwICGNRrZ9s/ZMSlKUsPGDJtxshAkX60FXy6u3lhcX22ELVaJUzGgUuYDGKZCnVKTWLGS/fXOkWYqyPMHSVIdQmSLjRWT01bOkMCPE0+MFV36WHe8cF6pPL8jYy4anh6weIYRI3TWDV9bb5VM253xjzvKR9SJdhAUMCGQsgiRAJGAEZEUpQk8CFgZQ21jms3mWqN5azu8sRncb0SrzWgzhJBKBiyDFgEAGzImSzTQ5Vd+wHpjZqtOt11hmlJXJaRitIYEfvrQP1Ik8CAz7HTNI/wUknUHSFwVMxtjthrNL2INSbsxPXKs4o4r1jqydWSxVsoAM1qMtg2WzWgZsjTZCVrNmOthvN5orWxuL23Wlmqt1UbUZIpQJWQTWQBiC0NO/bgAkE+Tj1T3nb4YEvgpAxb+AhRPmO0aA5mwzUn9RwAEiUlmRNSAS624GW40NLdnCEa8CpPPCAYSMAwJMwBapKitOUh0C7iu45VGuLBZv7+2tbxZq4dJwsTKBtthIp0n6cr4mq9TCgEhD1fr3TAk8NMHLIQKp6tZzpyL3DWMCq6Ko73g3RuIgEQWYnpEMGCCXo2TG5tBO2hvjninx6tTnlNSDoPRBpMI21HcrsXbUbwRtNeDaKutN9p6u21aMUTG1U4ZMM0LAoYZAbSBTjg1pod1Q2p5BoCH4HC/8t29g3lI4KccKW+LMQLczW3o3RX7dIJlK62M/9QIoDRDPdZ3k7gemcWQJ6vlkkVaJ7HWidZtbYJEtxLdiOJGlASa24ZiIAMWoAJQgIoRjcRjgWEwqZEq3a+MogEhGoCHFMCcPjLs370hbRgS+ClE1wZZLKRvAE6D7SEdWqnSlx2783SDs8jjLPqJgLDNlBhVD/RiOyy3wFZktNY60VonxkTGaAYNkAAxKiQLSUxdCEyG0QCZNE7LFDQa7JypkIVcDjgbdF+VxlTkZpbIoijHIYEPGQ7IGZseLyuB8SJ4OZUICKZYdupEevrZ248skxYmRAlbEXAQGgCDwGKENpSGWxjIKUjpi8KDoo6G3Cn3oM0KqRkauUt/hiGBDyUe0ttU2IbODAbZABtkI6cHYZZFmdPTpeU8HiPKHuaq3x8TMgtBymRZSmiUpLCQnVMkJ4BmYY05fZARjAIDeVJ32VKUy+FOmEa//ntgGBL4sIH7Xu9O5ty6zOJ+BMNgjELwHLvkebYiAoMSVASsCWPgINFhnESxOCoVdjuE/0hQsNcjSnINOXYYWTLAy4kmxELg1FSAwCZTaZCN8J5FcHd1YNeGIgD4mtx1QwI/TuybH8gF9kpWb0gDeTofyOGaBtmQ0RYbB8EhdhQ7tik7zuSYOz0x5rs2AaDkkwDQiG3Wa/XW7fX6nc1GG2xETDe8PP0O4aKOUTTUp5secn9tfqiJfGDSPPKwiyDF/PtBcZEAmQHxYcHZCij/QPSFIYEPFgchwpAzf0/BUAwIgARAWNhxxkxgLEg8NCMWjbv2ZMWeGfOnqt5UtTwzUhmvlByHpEhK9UNoG17cCn/z1fJarZmAAibmjsUF4OnwCg+IBu0ztmMWXZz/w3Isb8d5w5h9UXDAdQtUxsy0nz2UrhI7N32kbu1yH3CeGHqYF/rAcJDap0Qk50MwPUZTFmBskJnkhYk94lHfmq+MnJkYOzFWnh21J0tqxMGKpUYsVXbl9Dwjp80yg0YIDdgl65pnW+kKGEXkcL4B/inB3k+ki2rZZ9j9b+fKAeXlEx6mHMecxw9Tn11qWrSSdaT9UAIfPmRjguCdX+MAACAASURBVLEjHBhlnYZswBjgxObIRT3uWcdG/dOTo2dmxk9Mjs2OeqMeuJBmELaZ5XCO1NyKACKBAesaWpFONAAV/Eh/fEasA4VwGPPD1h4PhgQ+XOBUq8sO+snsyqLeIjMaY5mkqvRcxb50cubyiZln58ZnqsoGUMAESADMQACKsiSK2VqOETRAMzH3Nhr3VjdizaQUpuG7j3XYPV3oWk4/ZkvCkMCHCp1IAHnL2ZggBmK2TeKjnhr1zs/MXDo59dzc2PGyPW6jD5x5I4kBdeo0Qm0MoBwumy6i2owrQfzl4urdlQ1Gq7CdbSh9HwVPaOobnsxwKIH5CtgAA4NiUMa4bCYsfWbMvXhi6tnjU2emRibL4ANY4sHMwg1kQQsABoARqWCpYcBWZG6vBF+t1bfCmB0PIDWIdPs4h5L4cKF/cs0/GRL4cCLP28AMjEbbzBOu/dyE/52zky+dmjo27pUybQ1TpuvUyIUqN6OkucohfasBau34xuLaQr0doc2k5BTMzpmzHbPOkMOHBV2erz4MCXyIUPATgEQ5WgQE2oX2jGf/yfGxPz0/+/KJ6rQNDoDqeDWKYhORc99H9j2AAdAALQ2rrejORn0jMgnZDMRpXvJ8FVd0vQyl8WHCoOcwjIU+RCg4Klisw8jG4tjFZK5C3zw59c3TM8/NVyc8sMXdQ4UcaZ1IDAIgzFLjpJGCAAYgYtgI9Z31YLUVNcFihV0uyi53KPzRhWUdWQwJfCjQla9K3L4MFmuP47mq/Y2TU392ZvbZidK4y3YqY1MDM0Ke7IqAhcCdMIS0QEADEBpebbTvrG5sBFHInkUERkMa3pUHhxQdwUMOHwEMCXxQ2MOKi30vi0TJXwqb0Bhk43A06/NLJya+d/nc2RFrlA0arZSFKAdHM6lcV+6UyZk4zT9iYIMYGF6ut+6ubjSjSKOtCBky/29X5R9y39sQTwRDAh84donB6V2acrfmLPsNFAOwJh2Pe/yN07N/dm7udNUaQeOgxvRM6vQcvSLzM8MVc+fjLMQKQAM0NK812+uNFpGyCIENQcpWMUEPeXsUMSTwwWJH9mbR8gXVFgtfA8jmBAJUYCxIqiXr0vGJl0/PPjtRniBjg7bAACoo7t9l7i5BlOU0jhqB8hCOCKBpeKud1NuRgRKl+jJmuXaemhDoPzoMCfy1I9+UALjHZgGW1JFGj9n83FT5tWePPzdXHffAYoNAnfXtbjdLBXOaEYLTHfyxgWbb1NtRGGtj57ViHpCqJcdQJB8BDAn8OJBL3kJsZOal4Y4WbQDYsI/m5Jj/ypnpl+ar0x64nB4OYgA6Xt3BkFQxmG+PgTQaBGLNW41ouxlEhk2+jQayTa6DinrkRg/xODAk8GNCTl3uE8Kyi0A29zrEM5XyxeOTl09MTtvgMyiA1BXU6/gdiPywu4KWjRAbU2sF9bBtsvQSea0GFlL4O8ShxpDAjw+DNq+lBmMEJgDXxKM2PD878/yJqfkx10WgLLoR041De9AqMz93PELCVjYcxnEQa/1HsG3/jwpDAj9W9Ac3iS8HERWbEujjZe+F45NnpyplAou7MnOIw7ajgu8DWNDeNVPCqPezkB7i6GBI4MeC7j3e3AljzhM4IBgz7tkXj09fmK5MeN08exDGdW/s7di9GciA4iGBny4MCfz1o5u9As4TYRhkYxCMa6lj4+VLJ6bnS1ZJkjlLiCR3lQO7RkiZ9BAGOcQy16ABAZFJju8aEvhpwpDAjwM7LzvluFkg4LFy6fTM+DMzI+M2OGlwcx/XsGNb3omFnIZEdwxZqerNhEwIuJPdeYijiCGBHye6SMcMmlkxWxyXkc+M+8/Mj06WwOFughY2GxWpN5DDucwu5iLuLJyHovepw5DAB4tBFJHNQ4VDd2WzYBadxbaOpz16bso/M1lxUfxGRX2Z+9nbKafv9hnfe2krx4HwUP4+XRgS+KCwS0gTABSOeS7GTzCBMSUFpyfKz0x6s2W0+/c6dN53tvxx9yXFu3Qoj12RX8wGwBAWg6WHOPIYEvgAsYeGysKt7KB1obQCrrr2+fnpk2OVCmVL366fdaXH2OMefdMIG5az8dBoxawQ9L7aMsTRwJDAjw35LoTO0pTAOArHS/6p6cnJkmNDP4FzRu57l1/RcsUAwMioED1beRYqYPPoTRni0GDAjD/E14X0KBRJ/83AhoyuONbceHV21K/auIOHB/e51W/ARemeI7CJKp5bcmzFBtMjRFh2Dg+3/x5pDAn8+MBda1cmThyIJn11cnpkzCcHHybGAgv/DfxeskJbhKNld8xzbZQEtFkSuyGOOIYEfkzoxEal+5KYQPukZ0bck9OjFRssYGLe1RDWCyy86OIwFj8GQFAEIz6NljyHUA1F7lOEIYGfDBDAQq64ODfqzE94niWBU7y7KXunoga872YzAlgALqFLRMU7DN1KRxxDAj8mYP5vyhi2kSfK9vyoPVkCBbnjZw+deB/gLo8zAiIqBM+miudWfI8kgyWm+d+HivSRRg+Bh8/y60OafgoZkREBHYWTZXembJcRUHbzA3QR91E4DMWHyQrBs3C05I6UfYUICEiERDB85EccFuRCIXM3pnmSuPPJEAcDRpkvEYAYXMSpsjfu2xYAARhm2cDQ6/bdJe55RxR+wGyAEdFHGHNx3LetWgCGkfIziPOL85hNLkRi9t97N8p3f7dzvPZDoaeiu95iP9gxgdm+b3FQs99ureC+KT2bnhmArVRxQwY0QIyGJRzPIPRm+N/pBo9Su/3h0fvp0Rvy6K3ANIQSUc46smmqUp7yXQdAAWKH3XvfeBd69f6QkQAsgBLBXEmdmKx8ulZjY5gRmAglcLO4/TD7aSGtx8Byd63Y7r01IDXYfrq3aLTb8yjFgU8Te9/1XvVAt9gz/G5/2O0uBtLj3bMdKcyAwIZTL4KxMJ/0UfKfYZozvN+oOQjFuXqX2j1K9J5sijuAuW7nB7LjWN13CfuDBGEBMigAz7Imyv6I61hpuroH88jufHHvKEVABeAjT/o0N1b2baSYJaEdETGDMZy1jdOsWtDhf1/x+3oUu3YVP+gDxe5ZIVdKdrlL/y0KQTR5MV2F9lkeZOP2XhL4AJSAXR8mIiNICCxmDynzM7CVWjkA0ti+LNAP5KzxdKrcVWvavQG8j2v2wiP+PN/Ps8eg2Z0TvI8SdgdzZjYyqLhUcsu+59nW49mhS4i+Y41X/arnuGEc6wQtQomX5nwcYdbWjtGtD/uasQd+Ksg3dzyo+CqqtQNqyDtdvBPEKrHThfsxJBZU2ofB4L7quYKBCTg95R1Aqo0kO1FVGkopB0MbBABMQ+2Q05zB+xldO1/yMCu4B7zFnthvHb72VhgGAwjMCSrwy1Xfd2yVp8pJp5nicDhAYiOi61jjI97sxNjNxvpW2AJCw4aBDKR2tTThHnbTrWso9+6xgP5KD6x71+8461Ds/XYH9HrRO59gLl56+6pnOc49DzH32HX9jgv17Nxix0odhHTa+RaiJ8s5HLkYFXlLDEAIRJYBRqMtox2TsEmMEBcYwKRX79q5ezoud1dB9oNC9NJDolumPMwt9ixhP2DWDJqQmWMHVclhR6XRVzlFijXBA5z+AACAECuOfXxidHJ5s7kVkE0JkwYiIFkq52vTvjHZ8773sXcPkl7Z1ae7ZsGkD4XsDKdOqXl37dZXfY8vdbzvQNOONrprXQp/Hw57ynnDqAENQqYhIxKiMjFBDDqxPIBJG8+O2KwdY2NeL7GYym924nBa/b2G2CNyeNB4emDszkBZA+9txHqkhjADpet5DSXbOlu2RhRT1zPEnLRfh3eHAKoWXZgsrU645cACFyNGzbJhCUnql9W28Lv+sT2odrtyuL+EfZkMd7ZEcTeH90Rfgdz/wAdwePdR8wD337VqO43v7Jh3RoOAYjogQkIkjRWi4y5YI7Y6PzPh+d6lME4gdyWJOi1Oy71k185DH/NqPBoGdPa+sc86PIaGIDIwMxsEcBVNlr1Jz1J94+Zh2DtYse2rAEDFomcnS+r8sWfGS1pZmiwNkBjAjMDIjL090VOdLrGzQ79hv/ejR2QXDSv9RMC+190nQUlvdmu/hb/7m2c7WkB+facmKBPVY5DAsGt909SkMmEhICERIujYg2RurIKxNlFiWprbhnUq7ZgR5RXtMNv2N2LPOj4KDmKWO4C7PGJDZBiLZVMhuhaWbMslzAwNDIX5nvfxbCG/dH+1ZAANEBlutuNWrCNAg8ogMCMAEEtYj1g7e5aLPbfpuuWg6XW3BSkDFCVw3uD+iazndSfADAH6BmZPLffxsPaQwPuc9h8Ze9Y0Hxip/kyAYLRiXbIItWFZ72oEU6jSPgcQ90+u/bV7ZBV6T/12T/T4IR7iFruXsL9KAAKIJw8BFKDqCoUz2RDEooXnAAkMAAbASG4OQINp+JcU8IjG8KLo618xD7x4J+ze8IETSX+Be7al/4LiJ48uWw8WxYlJxgwxEIJFCMYYAgRAlVnhsPA7mex2ac9+lo6Pjkc3Yj3KLR6xFR0BgsCGmRgRVZfjV8xHXFA8D9B61VUTZCbDhIiUHfzA3Y+8t+I9GCxuOwROh9AA/bb4bhe7xt4Gi+zCXWbe3VbRA5X6wTfaVQgfTHKiXUVHIbU/y7IBgYSn2ZKHBzzA4vq8MHgH3GgfsvEAOPzoEnjPOuzPiPWodQBkNplLnrpHueGua7Hwq12xJ+P6f2CYAdO9wqKAdcY7ZweO7iQI9xROufV2Rw6KFr17LXe0lHW0kx3tSNj3YmAtdn/mWdzE7iagAxiY+7gFc3o8ZboUBs6WxbvtJ9ufQeAxrIH3c5dHr8N+9LoDQCZm+4Y4d9dhj7HziJVIqYD5nburgcV3fdhNuuFgSg0qZKcAoT1KyL0ivI8O2rkc3OOK3UX4fi/ZFXtVAfK+yHjOBd1GNATTR+CvbdAMMcQQBwzrgfWvIYYY4tBguKF/iCGOMIYEHmKII4whgYcY4ghjSOAhhjjCGBJ4iCGOMIYEHmKII4whgYcY4gjDOpy+X4kPw0KwsDFGax3HcZIkxhgAUEoppWzbtiwLu/NJMTPuO8MUMxtj8og0LOChKy9l5p8Q0T4L7K953mqttXwrrbZtm4iKP4TuHvtaK9l/Ly4g/1Ap9XDdaIxJkiSOY611/rgty5LH/RAFMrPWOkmS/p60LEspNfAnDz0GHht6+2KnyNdd8DU1MR8HQt1ms7m+vr60tLS5udlqtRCxVCqNj4/Pzs7OzMz4vl8cK7v3u8kgDzWO4zAMoyjSWiOi67qVSqVUKj0EGQRJkoRhGASBNIGISqVSpVJxHGefTYZsWomiaHt7e3FxcXV1tV6vx3Fs2/bY2Njs7Ozc3JyUWaTxLiVLe4UMWusoitrtdrvdztlYLpcrlYpt2/tsuPQeZA/IGNNut8MwjONYLrAsa2JiwnXd/dSwWGwcx41GY21tTR53GIbyuGdmZubn56empmTy2v90I3Xb3NxcWVlZWVmp1+taa9u2R0dHZfyMjY2JGHjQefCJQ/JCHy70hGdHUXT37t0vvvji6tWrt27dWltba7VaAFAul6enp0+fPn3x4sULFy4cO3asVCrtNGvmZSZJ0mq16vX69vZ2vV6v1+tbW1tbW1tBECRJopSamZm5fPnypUuX9jkBC80ajUa9Xq/ValtbW9vb25ubm9vb23Jfz/POnTv3wgsvzM3N7VkaponWOI7jra2tGzduXLt27dq1awsLC7VaTQg8OTl58uTJZ5999sKFC2fOnJmcnIRdxYUwLQiCZrPZaDQajcb29vbGxsbm5maj0ZBpy/O8ixcvXrx4cWpqas9Wy0CP47herwdBUKvVNjc3854Mw1B6e2Ji4rvf/e7x48c9z9s/Jdrt9q1bt65du/b555/fvn17bW0tDEMiqlQqc3Nz58+fv3jx4tmzZ6enp0ul0p6lST03NjauX79+9erVmzdvLiwsbG1taa0dxxkfHz916tSFCxekzEqlIk0TYXAkjp3ZQ4Xex8aTfYWU7x/FXpOJ8/bt27/4xS9++ctffvTRR7VaLdf6mNmyrLGxseeff/6NN9743ve+9/zzz1uW1a9R58VGUXT79u3bt2/fvXv3zp079+/fX1hYWFxc3NjYaLfbMitfvnz5Jz/5yaVLl/ZT2yRJtra2bt68effu3Xv37t29e/f27dv37t1bXV0VNYGZx8fHf/CDH0xMTMzOzu4+jnP2RlG0srLywQcf/Pu///u77757584dEWtygYj0EydOvP7662+88cYrr7wyOjoqEmlgfyZJsrGxcevWrdu3b9+/f1+qeu/eveXl5UajYYwhounp6X/8x3+cnJycmpras9XGmGazubS0dOPGDSlKOnNpaWlra0sUfkS8cOHC5OTk+Pi467p7EljkZKvVunXr1ptvvvkf//Efn376aa1W01oTkVJKHvfk5OSLL774V3/1V6+99tozzzzjOM5A7RcytSiKoqWlpd/97nc///nPf/e73y0sLERRlE92iFipVM6dO/faa6/9zd/8zaVLlyYmJnL2Hgk5fOgO+M4HMTO3Wq3PP//8Zz/72X/+539ev369Xq8Tke/7MqMHQdBut1dXV5vNZq1W29jY+PGPf/zcc89Vq9X+YkWL29jY+Nd//dd333333r17jUaj2WyGYdhut0V/ZmbHcWq1WhRF+9TNWq3W73//+3/+53++ffv21tZWK4NMB/mtm81mHMf7VM/iOL53796vf/3rf/mXf/nss89WV1ejKPI8z/d9y7JE4a/X61988UWj0RBR/4Mf/KBarVqW1U9jY8zW1taVK1d+/vOff/zxx9LqIEOSJHKZZVlBEBSXxLsgiqKbN2++/fbb77zzzuLiYrPZbDab0uo4jkWjRsTp6WlR0fejQhtj6vX6hx9++LOf/ey///u/b9682Wg0LMsql8ue50kfttvtxcVF0a5XVlZ+9KMfXbhwwff9gZOXsPf+/ftvvfXWL37xi48++mhtbc0YI+OHiOI4bjab29vbV69e3draWl1d/bu/+7vvfve7MzMz0g/7rPmTxaEjMGTsjeP41q1b//Vf//Xmm2/evHmz1WqNjY1dvHjxmWeemZmZIaLFxcXr169fv359fX39k08+0Vq7rjs2NuZ5nuM4A3nSarU+/fTT9957b2VlRVZQlmW5rut5XhRFMjfDvg1CzNxut+/du/fb3/72/v37QnuxtQiXhLTFuXzPko0x29vbV65c+elPf/o///M/tVrNdd3Tp09fvnz55MmT5XK50Wh89dVXspq4c+dOFEVENDk5+fLLL4su3V/JIAju3r37v//7v1euXJHKEJHjONLq3KjTY3/aBVrrtbW1zz///MqVK6urq5BZ/qTMIAig2zS4pzSTnrxx48Y777zz5ptvLi4uhmE4Pj5+6dKl8+fPT09PM/PCwsK1a9du3LixtrbWbDa11p7njY+Pz8/P27bd36vMvLW19d5777311lu//e1vpSfPnj17+fLlY8eOOY5Tr9e/+uqrzz//fHl5+caNG61Wy/O8kZGR73//+0Q0lMCPBGau1WpXrlx5++23r169ysyTk5OXL1/+27/921dfffXkyZOIeOvWrXffffett956//33G43GZ5995jjO5cuXx8bGpqendyrWGOO67uTkpNhsRkdHy+VyrVa7c+fO8vLyg5qgZXmJiNVq1bbtcrlcrVZHRka01svLy0tLSzKaiUikxJ4DOoqiW7du/frXv/7Vr37VaDQcxzl79uz3v//9H/zgB6Jc1Gq1jz/++K233vrlL3+5srKytLT07rvvTk1NzczMjI+P72ShlXVdtVotl8tiURsbG3Mc58svv1xcXCwSeD8czi12nudNTU2VMlSr1TAMP/3002azCZkJumcK26nA7e3tDz744J133rlx44bjOLOzsy+++OKPfvSjb3/728eOHTPGSLe8/fbbv//974Mg+OSTT3zff/HFF6vV6tjYmEjL4kQpc+vbb7995cqVzc1N3/cvXLjwF3/xFz/84Q/PnTvneV6tVvvDH/7w5ptv/va3v71169by8vKvf/3rubm5S5cuiZ3saKyBn3QFBgARtdaLi4sffPDBxx9/rLWuVqvf/OY3//7v//4v//IvZ2dnZU1VrVZnZmYmJiYajcbnn39er9fv3bv3q1/9am5ubmJion8oi4Z8/vx5kdWnTp06fvy4mFjee++9n/3sZ4uLi9ztUtoTlmVNT0+//PLLRDQ7O3vq1KmTJ09OTEwsLCz827/9W6PREHvb/gus1+tXrlyR5Z9t2ydOnPjhD3/4k5/8ZH5+vlwuE9HY2NjY2Nj4+LjneT/96U9XVlYWFxd/85vfvPrqqydOnOgXwoho2/bU1NSlS5dmZmZOnjwpDZ+fn2+1Wv/0T/+0sbGRG8zzjuovpPiWiMrl8qlTp1555ZVyuXzy5MkTJ07MzMy4rvvxxx/fuXOn2WzmvN1pcV68nZDt/fff//zzz6Xw73znO//wD//w53/+5xMTEyJgq9Xq1NTU6OhorVa7fv26rJZ/9atfzczMjI6O9twiSZL19fVPP/30ww8/XF1dtSxrdnb2xz/+8RtvvHHx4kVRoScmJsbHx0dGRpRSm5ubtVptaWnpww8/fP/9919//fWJiYl9PrIni8NIYGZuNBpXr14V9Vgsw6+88sr3v//9ubk513Vlai+VSseOHfvWt75148aNjY2Nra2tjY2Njz766Dvf+c7ly5fL5XL/uBkdHf3rv/7r119/XSyQ1Wq1UqmEYXj79m3f9x90xhXXy0svvSROrGq1Ojo6KgNCXBQ72Vd2arXWemNj4+OPP/7qq6+01iMjIy+++OJrr712/vx58VVKiyYnJ1944YVarfbJJ5+I6fv+/fuffPLJs88+OzEx0dNqsdNcvnx5YmJCaz02NjYyMiKi+P79+9JLxYXDfgSmbdtnzpx54403Xn/9dVE7R0ZGSqVSEASLi4ticMqF+U69mt9ItK3PPvvs5s2bm5ubiDg/P//qq6++/vrr8/PzUhoAlMvlEydOfPvb35bH3Wg0VldXf/e7373yyivPPfec7/tF8SuKzPvvv7+8vJwkyfj4+OXLl//0T//0+eefr1QqoiELhy9evPjqq6/euHHjgw8+aLVaN27ceO+991544YXx8fEjYco6pATe3t7+wx/+sLCwkCSJ7/tnzpy5fPnyuXPnjDFFK5dlWcePH3/ttdf+53/+58aNG0EQ3Lp169atWxsbG/2OXGauVCrf/va3ixoyM6+vr/fYKvb5zMRpfObMmVOnTuW1AoAwDPst4ftZUbdarXv37n3xxRcrKysAUK1WX3rppcuXL3uel8ceyMibnJy8dOnSpUuX7ty5s7W1Va/Xr169evfu3RdffLG/kr7vnzt37plnnpEJRfqwqHM+6MwlAm16erqoJAPA2tpaT0t3KVmUHUQ0xqyvr3/88ceLi4tJklSr1fPnz//Jn/zJiRMnclsxZL199uzZ7373u++///7CwkKr1bp58+adO3e2t7fFg5iXLM6LDz/8sNFoENHMzMy3vvWtc+fOjYyMiPIvZSqlJiYmLl++/I1vfOPTTz/d3t5eWFj46KOPVlZWjh8/7rouHPpwjsNoZDPG1Gq1L7/8cmNjAwA8z3v22WdPnjwp9qEelaxSqZw9e/bEiRPybOr1urg0egyq3B15I3Nwfo081OL1+39mUqxMAWKA3V3y7NLqzc3N69evy8rZcZyZmZlnnnnm+PHjkK2i84uJSKTK7OwsAIgSIQToX8oW49Wkhnkliwv+B2oyEeXdKFEcsvSQ0uQZ5Sv/gSXL5yIt19bWrl69urGxwczlcvn555+fm5vD7rAKsTiOj48/99xzJ0+erFQq8rjv3r27vLycV0MKb7VaCwsLN2/eDMNQKTU3N/fSSy+Njo7mNZTqKaU8zzt9+vSlS5dGR0cBoFar3b179+7du/V6HR/KFfyYV877IjDu/B8cdByITJ8bGxviMGBmz/NOnjw5OTnZL9OE0uIUFcNVkiTLy8uLi4sDPSLFJW5xIsgH9MNVWO5VHK8POmdLIVtbW3fu3Gm1WhK3cPLkyampKfGZFcecDCzXdaVbLMtKkmR1dVXcsLn7qoi8PlJCXs/dl7671DZvY17gnmvd/iqJRhBF0cbGxtLSknjOfd8XO0JemjwyuYVlWZVK5fjx4xMTE5w5ihYXF6HwQMU5v7Kysr29LfaOqamp06dPi1LWA6XU6Ojo3NycxPNprRuNxv379yUO50E1lDzc7bHReA8CP37VQbz5a2trGxsbEkPned7s7KxMkD0dKs/AdV2xwQJAHMfiJOwfmkUVCwrCp+fKh1gJF+nxcOyVpy52uHa7LeNYgiX7yxQmu647OzsrNh4JNRVDgFjF96wwFhYRD1TbncrsaU6/ItDfZEGz2VxbW9va2io2fGRkpL+qQgwZD2NjYwAQx/Hq6urq6qrcKA9lXVtbW1tbi6IIAEql0uTk5OTkpKjE/Z2TR6cKw9vttoRbDmzdLsif40OMoofG3hJ4F/GLXwPDJcpnbW1NovxEwI6Ojvq+31uxrFtt256YmKhWq5zFzW1sbOSuEbmmh/M9JRRfPOikC/t+wLtDGr6yshLHsfBTTM0DRwMiih1udHTUdV1puIQ07jMYoyhFHwID+2cgb3eqP2R2u3q9LuGxxhillDxuz/Pyy2TCyouSYFIJ10mSZHNzU6atfJqWMbC9vc3MSqlyuTw2NlYqlYrR8j1VLZVK09PTclOxYIsnDB7w4RbLfDwcPnRrYJHAtVpNwvFc1xWT6S5+OcuyRkZGKpUKAIgskrDhYj8W5/IeJUoKwT79/GttZg84C1eWmgOA4zgjIyM9+x+KPSDrt0qlIgbYvN8GqtAHi0dhfk8hzByGYbPZFMOSPG6JORv4EwAQg794DeRxy1yfK/OiBgdBIJ+I/8zG7QAAIABJREFU33v3TRq2bcs1soKTDTMP3ajHOXgOHYGZOQgCWb0gom3bOYF3+onEBosgAoB8d1EeEFe8uL9zHzNXd0KSJM1mU7YcQTak+jcwFZsj6kmpVBJjkvC/h8A7jacn3upcWAVBUK/XJSTbdV2JnewncFEzkmA7eRuGYavVKs7XSZLkHnillO/75XJ5p42Noom4rptPl1rrWq0WhiE8eC9hZsB7bDQ+dASWDQwSKycE9n1/901zEhiYMzxJkiiK8iea4zFPjftErnFprWUs5ttfS6XSQEFUXA5IHKi0K4oi+fljW4A9IqTtURRJGDYiWpYl5Bz4uDGzbDuOIz0jdJUw2FyLFmVENkUxswR47rLZAwAcx6lWq3JfmRTyTZH7x+NnLxw2AuciVILgZXYcuLuoCOG5PNF837/sBT9CQ1msL3k8tjRqp2krv6a4Gb3480MOLphqZXOyfC4er52kJWbuK9d1cwIXt/4XhbDM4NJFu+cAICKRE7maLfv+92lN6K/k45QTTz6Qg7sd5UVT3v4LKRqf8imZD7cLvgdF+0f/Ej1H/1o9N/AUHbxHBZwlypC3ws+Bdi8oTFu54x0K6QTyy4qmL0nbgjvs1GdmIpLfyldSmmzw+Drae+A4XBIYurcTPtxYHLjoPeRMLnK1yOH9/7anu4rd+DXU91FRnJ6KK4KeF/3oN/BKOUVHdI8A2M9YysVGXuaDurWfFA4dgaEwIuXtfqRxzxPNAx7yT76mqh4U8lH4EA3nwvZ0PCJ5JKAwQxXZkrNop0cmDRRdAwr9lj9uzvaHQdY5cvHuY0D08DyYrCjhDzkOYy1lISQ9LvrM7pbknofUk+nuqAxoGYV5fKKsBXZfhsk1xcwBRXvBIW94LoTleUFBnd695jnZ5C1lKM4Isu6V6WB3Aueas6QiyH8+JPBDQrovtwfKgrZ/adezbJY0LjJ92rYtRumjogVBNppt2xZ7KQBorYtpPfLLim+l4bLaF9usZJA7Eq0uGinFAdtvjuq5Xl7IZT3TlkjgXBq7ritl7sc0wFluw1yqD0x1ejhxGAns+75sypMBKqlzxM1QXBnmL4wx4viFzKIorggxzx7mx1C0rIhxVRLEyMwVhmG+TwAGNUQaLv4SIvI8TxyexWsObfPzpynVllaLAyIXhgPBzHINAAhXxdFYFL+5o1i6qGfDc38dtNatVksEtXjX90whekjw5AncM8Ikjn9yclLUKskw2mg0ck9DjtwyYYwRx708DN/3K5XKfhKpHR6IJun7frVaFQZKzkeRrj2bKHOLi2TDlN3zsg9estsVi31iTdof5HHL3mlmlhaFYZjbpYvIJapkw5ROk0wg8rhlEauUksTAkI0NySO7U4FyXwnGBgDHccbGxvpDdw8nnjyBeyADcWJiQuIT8tBImUR7TIvyOo5jSWsKAJZljY6OSnKZw78aLOoU0nDZfgQA7XZ7fX1dMqpi38Y6REySpFarbW9v5zFDpVJpbGws30//RFu2L4jGK/O17DQQIkmSkIE/EbKtr6/X63XRwKvVqoTB5wtjyUctaTokwnx7e7t/PcKFXNlBEKyvr8tN5ef7yVl7GHBICTw9PS1Jm6Rz19bWJNquf7etPNHV1dXNzU3OIt2npqZyQdTveDicIKKRkRFJ8cPMzWZTEj4Wbcv5X8620crQFPZOTk5KVtQn3ZS9kT8OCWyWtDjyuGVHR6PR2OknkopUtvtJtiDZapqbsizLmpqakq6QqCzZ39IfXIVZ2Mb29vbq6qpIYNnmJduhDj8OF4FlsLquOzExMTc3Vy6XmTkMw4WFhc3NTSgI3lxwiYheXFxcX18X88PMzMzMzEyPCfpIKJNjY2OnTp3yfV/GsbQ6juNiW4TMMi7v37+/sbGRJInsdJfdhTmBn2yTdzcaQaE5vu9PTU3Jbj5mDoLg/v37W1tb/b/ibPfC4uLi1tYWIjqOMzc3Nz09jYUwRtmdNj09Lds8wjBcX1+/d+9e//4E6cxms7m6urq8vCz6TqlUmp+fHxL4ISHPoFwunz59Wrb4BkFw8+bNpaUlyNI7QyFQQebje/fuSTolz/OOHTt27NgxfBCP6Nc61vOFVs+HPZcJgc+fPy9qcLvdXlpaun//vsxcxXpKJzSbzevXr8tWWNd1jx07lie+26UyA1tarMwDdcX+dfWdmo/ZlvozZ86I0iuPW5JsFLsu14cXFxfv3bu3vb0t5D9+/Pjc3FzxYtFl5ufn5+fnJZP2ysrK1atXZZHVb0dYW1u7ffu2SGDP86anp48fPz4wu/ghxKEjMAAopSQn8NzcnFIqCIIvvvji+vXrW1tbxYwH4k5YXl6+cuXK3bt3wzB0XXdubu7cuXPz8/O7jGPeK1Szx0c18OL+BTn3JfoYePFOv0XEkZGRs2fPnj17dnx8XGu9tbX16aefXrt2Tayy+U9kWbGwsPCHP/xheXkZACQNzYkTJwY2oQe5qrlTJ+TV26mLuBv5hwONDj2qEPTt7yWiiYmJF154YWZmRinVarWuXbv21VdfbW9v55l6IFsrLSwsXLlyZXFxsd1uO44zPz9/9uzZ2dnZ3I0E2R6PU6dOvfTSS5VKRTKcXrlyZWlpSVbCRQI3m81r1659+OGHzWZTcn09//zzx44dEz1opz48PDiMBCai0dHRixcvnj59ulKpxHF8//79K1euXLlyRcyJ+Y6Fzc3Nzz777J133llYWGDmarUqh9z06D/FgSU/lO1KcrpXDz0AIEkSOa5BTgArnpHXj2KZebH5T3LFL78gR49zUhRCOZnp5MmT/5e993pu68jyx+9FzjkQYI6iCAYFS5QsyZIVHLQz9uwEb+3D7tu87l+0D1M1U7U746nyeB2/lixZkUpUYs4BBAgQOWfc38Nn0b/WBQiCChbgxedBBUK4fTud7nNOnz4fgUCQSCSQ5dTr9eJ2B440U6nU2tra3bt3FxYWYrEYnhoZGWlvb68iciREHE3Dv+TwHAoLjmFJQ8jRKA/lv8c5PH5PPHMQOZRDWl3e21A9hoeHOzs7lUplLpfb3Nx89OjRs2fPkskkkTTc3Z+enr558yayydNP8RoukUi6urqOHz9uMBgEAgHSlT5+/NjpdJJxwTq4vr6Od2WzWYlEgly5SFRU/2YXUw+XGSoChGDDw8PPnz+fm5uLRCKPHj3C4XBXVxfu7kcikcXFxR9//PHBgwehUAhq5Pj4eGdnJ+3IoYchn88TfjpEsXMcF41G19bW4DXhOA65Du/fv08ionAsYbPZLBYLXSxXMsm8Xm8oFIILBLN2YWHB7/fDa4K0L7Ozs/g9dj+JRALDT6VS0ZMPGbDn5uaWl5fT6fTCwsJPP/1ksVjGxsYsFotYLM5ms9vb27dv3/7222+3trYKhYLVah0ZGXE4HBaLhXsxzwbZu5D1DlnjuFJ2S1CH5fN5gUCQz+e3t7enpqZgKKIQkUiEZFHlLlnkndrY2CC/ZxgmHA6vra0howjEY2lpCYnXyVE2jCPkwedKurFKperr63M4HDMzMwsLC8FgcGJiAuYA+Cg4jotEIrOzs9euXXv06FEsFlMoFJ2dnadOnUKWf+7Fiysikaitre3YsWPXr18PBAKhUGhtbe3q1atisfjUqVPgIsxms0gkfvv27fX1dYZh9Hq9w+EYHx9Xq9UNIb1MfQowxlWj0Zw8edLtdiM72fr6+rfffuvz+Q4dOtTV1cWy7Orq6sOHDx8/fuz3+wUCgc1mO3r06IkTJ2AREW2KLjOZTD569OjHH3+cnp4m0bOwkTweD85mtra2QIQFJZNhGLFY3N/f/8knn1y8eJFXz3w+73Q6v/nmG1SDvDEajYJ+iWXZRCIBYh61Wo0NSigUGo3GEydO/NM//VNvby9doEQiGRoaOnHixNLS0szMTDweBxHMe++9d+DAAa1WGw6Hp6amHj16NDc3l8lktFrtyMjI5cuX29vbyxlGiPrq8/m++OKLe/fu4fgU/5tIJJC3kWXZeDx++/btlZUVrVZbLOWd1el0ly9ffv/997u6uuiG43D12bNnf/7zn7e2trgShxAOeHAcwDCMz+f7/PPPr169SqIsBAJBV1fXv/3bvw0PD9NaEjbh8fFx5NbMZDJra2tfffWV2+0+fPhwW1sbx3Fra2sPHjx4+vRpKBSSSCRtbW3Hjx8fHx/HqsqTN5xlDAwMXLp0KRqNPn78OJlM3rp1KxAILC8vDwwMKJXKcDj87NmziYmJ9fX1YrGo0+nGxsZOnjzZ19eHxaUhZPgNCjBZ7Jn9e4k4jpNKpQMDAxcuXPD7/RMTE9vb29vb27du3VpYWNBoNCzLRiIRr9cbDAaFQqHdbj9z5synn34KL2659GJKId3R8vLys2fPmNI+gzhYkAzBiYJMpUSApVJpPp8/ffo0r5JsKSn5ysrK9PT09vY2rDuuFFEEcUW+WBwIcaXgQavVarVaSeIlUiDORd59913k1lhfX4eRFo1G7969K5VKU6mUz+fDETEyv1+6dGl8fByJyHfrz1Qqtby8jHlMrHREKeG9hULB5/OBDoJ0mtlsHhsb41WSKWkZfr9/enp6Y2ODo5xM0JMZhhEIBLlcbmNjw+12o08YhhEKhQhQKdfMZTLZ0NDQxYsXw+HwkydPdnZ2XC5XIpGYm5uDPykajWIph/SePXv217/+dZXszQKBQK/Xnz17FqfKq6urSIW/s7MDXz3Ofn0+Xy6Xw9774YcfHjt2rFFisIA3JcAc5fsh4rSvAHGWZXU63eHDh/P5vEKhmJyc3NjYAJMI+QHyznR0dIyPj3/wwQfvvvuuWq2uEgzMUWQfXCmKi2EYOqEH+SX5UH0x5nm8iGMG6wj9v+SyC7e7Fw0Rkf39/Sjt7t27s7OzoHHjqMTu8L46HI7z589fuHABSbN3qydZv4g9SX5G+ChIZQqFQi2hIOQH0JaJhox4bIba/HlOLHaXm3pCodBqtZ48eRK7MYbb6/W63W7yoFgs1uv1PT094+Pjly5dOnbsGKFZKK8t9oD+/v4PPvhALBbfvHlzYWHB5/PNz8+zVGAMOGLQk+fPn4dyV6Xh9YY3KMDMixNasE/GN0xxi8Vy6dIlq9Xa09Nz9+5dp9MZj8cRZwf6kvb29nfeeefChQsOh0Oj0dBv5BWI6WW328fGxsj1F7rC9DxgS1mLkSpxYGCgIj03ZtvQ0FAulwsEAnTDGerQi/4S4qHX6wcHB3lnFWSlk8vloDLq7u6+du3a8+fPSaAfAn0tFsvQ0NDZs2dB9Va9J1mWVSgUDocDJKD09GVLF4m5F+8k4rNer+/q6ip3EcHNa7PZjh071tHRwZRdAyTFkj+xagiFwu7ubsTJ8hY+jE5XV5fJZGppaens7Lx3757T6SSkp0hd2NPTc/LkyYsXL/b19RHLvKKWhwooFIrjx4/b7fb29vZbt27Nzs7u7OxAM8L1D7vdPjo6evbs2bNnz5JA1OqLV13hTV0fJZsMmQ2kf2uRYXLhEx0aj8fD4bDX63W5XEj5yXGcWq02Go02m81qtRqNRuQNZSpdiCczCeGHwWAQefeZqkNF7yEqlcpkMiEXMd1GjuOgiYFVmFcgqQO96WEhw1EZCZzkvZErHVGCt3Z7exvaYy6XA6em1Wq12WxGo1Gj0WDH4xXCq2cqlfJ4PNFolFc95sXFhWc/g1AbgcG8jkJAMuxVpiSx5e/lVYZlWZlMhhCd8lhXthSZE41GMdxOpzMUCsFKxxBYrVaLxQJKxOonheSNSDYWDof9fj/43EEYgA2gtbUVNDE4fm+s7Zd5owLMlIaQN05MDTJMr+hknsF8IikIpVKpQqFQKpW8GVz+CqJ88j7U2BaeJsyrJ08Fpb8nujo9QassZOVGO1NKdofNM5/PSyQSpFkEo1r5q3fToukdktd8XofQn3drO1mYSNN4V6bKVwTe4+UTg/cnMl0nk0m4J3BpCQkra7kySZfJlTwgyICJy23Iy6vRaGQyWUPEn1ZE/SZwKBcJfKBFmvcIuwudHEdZnrysF+TB6nWoMl1oRYMumV686B244ma12yu4F21IYhpUnPF7VpX8mCeuFYVtt86s+Ap6xam4EPB+zJSpSEzZmsuU9RXdmfvdKul1ljabX6KoukI9HiMBFYeTN+3Kv2HKBJsuh16595RhrgSmUnwVmZ3w4pCa8LRQ+gNL3UngKPuw4tvpB2nxoFWbio9UAb0clC8N9EvLm7PnjvoqOwFdE5Yy0cmBFj7QaTeq14e3mtDdzntv+XxoLHmu3x2YhyqLdMVfAtWVNBpV9oqKP9hN56y9LVXeW/2RfT1YS1FVpvXLFVtdxmofOJ46U/GpfVWMFF5RXKsvCvWJhhHgfaHiSLzcrlXlFY010lVQo0Hxs9XktVeg9sFquGH9ZQpwE038H0E9XmZoookmakRTgJtoooHRFOAmmmhgNAW4iSYaGE0BbqKJBkZTgJtoooHRFOAmmmhgNAW4iSYaGE0BbqKJBkZTgJtoooHRFOAmmmhgNAW4iSYaGE0BfkmUXy5toomfH3V3of8lLpTVeAWsPBMFPrz0RVNSSMXbqq9+Ma2W1BMvd//uFetWfrmal1zhVUre7bL0K95/rpJgpKFRdwJcBYVCAYwkICURCARisVgsFvMYz6qXQLIflWeloAupXap56TIwjzmOQ+pD5sUEF9XnEC0JXCnrLVciFgH/rVAoFJVAHtkzRxRPWSB/kkRWHJXBi+6H3YriLVX0QsZLT/kqgse9mMOM7sl9lcOU5QwhdSZlNqh4150Al2dI4Dgun88jsaDH4wmFQqDzUCgUYJE0GAxyuRwTmn62fDxI2kHCroQPyHKG34hEIoVCgZSlVQaV9z1yI2NxQaZ4ZN5jGEYgEEilUqVSyculWqUHuBJSqVQ0Gg2FQqACzuVycrlco9GYTCaz2axQKOj1q2KF6RWBriGaj4azLAsqA5LZs8apTFqNxQVlEqJtsVisVqulUmmN+cA5CoRpCSsXUpSKRCK5XK5SqfalNLGljPOoGAokNE4SiUSlUhEygIZD3QkwARnLTCbjdDoXFhZmZ2c3NzeRZ5QpCXBbW9vBgwcdDofdbgc19m6LNL5Hksd4PB6JRPx+fygUotmfBQKBxWIZHR0dGRmpvaq5XC4ej0PSwC0CKgbMY4VC0dXVdejQIbvdXr0cutpgnZ6bm5uZmVlbWwOfU6FQkEgkarW6paUFZEI9PT2gt+Yp86QP8QETN5FIoL2RSAQfYrFYPp9nWVYulw8PDzscDrPZXGOrQbMWi8XC4TDpRhCOQ96MRuPp06c7OjpqYbvnSpl0UWYgEPD7/eFwOBwOJxIJjA5IGE+cOCGTyfZcFNB2rM7xeByLYDAYDIfD0Wg0k8nk83mhUNja2nr48OHBwcHmDvw6AdEFjfX6+vr169evXbv28OFDn8+HCccw/5te3GQyHT58+PLly6dPn+7p6RGLxVU4CjKZjIvCxsaG0+l0Op07OzvZbJbjOIlEMjw8LBAIHA5HLZoVxGxjY2Nra8vtdjudzvX1dZfLBU0BeqnJZLpw4YLZbG5padlz2uGNmUzG7/c/efLk+++/v3nz5srKSjabJToCy7Iajaa3t/f999//4IMPjhw5AiJlriydPUrL5XKRSAQtdblcm5ub+LC9vR2LxSAbJpPpD3/4g8lkMplM1VvNlnh6fT4fGu5yuba2tjY3N10ul9/vJ5wy/f39ZrPZZDLVsr+B9QZ9uL297XQ6UbjX64XqwbKsxWL55JNPRkZGJBJJLTwBqVQK1XO73S6Xa3V1FYVjDygUCjKZ7MiRI3K5/MCBAy/nTXjrqEcBJntvIpGYnZ39+uuvr169ury8nEwmZTKZVCqFLgoNMBAI3L9/PxAIbG9v/+Y3v+nr65PL5QzDVMz06/f7//a3v929e3d9fT0ej6fTaUIgCvGQyWRYnultfLeJgho+evToz3/+88rKSjAYTCaT6XQ6VwIkSiKRJBIJYhLv2fZcLud2u2/fvv3Xv/51ZmYGBIJEFwX1aSaTWVxcjMViOzs7oVDo4sWLKpWqIiNmsViMRCIPHz784osvHj9+HI1GU6kUGg41EhNXIpFgTteyEWWz2aWlpatXr167dg0cboSoFXylMN3D4TBW21oaHovFbt++/f333z9+/BhDQ8qEzo80zvF4nJC24sEqtrrX6/2v//ovEHqkUqlUKoWNlzCMptNpqAz70snrCvUowEA+n9/Y2Lhx48Y333yzurqaSqVAR9Lf3w9COq/Xu7CwsLS0FAqFZmZmMMafffZZR0eHRCKpOBFB2Pn8+XOPxwOmT6FQKBQKQduZzWaFQiGhzN2zhhzHgezz0aNHW1tbmAcCgUAkEkELIKS+XM0HTsViMRwOP3z48B//+Mfk5GQkEhGLxZ2dnaOjoyDajMVia2trCwsLTqdza2vr7t274E8YGxszGo2kYnQl0+n09vb27OwsegmVFAqFEFpivtZeyUKhEAqFwJ+4s7PDlRin0JmERLsit/BuyOVyTqdzZmZmdnaWcDgCWNRIT5Y75HYbLHCjTU9PE+JIUkmY60KhkMfg1XCoXwEGgeX169dnZmYYhjGbzaOjox999NHY2JjNZmMYxuVyPX78+Keffrp//34sFpuZmRGJRAcPHlSr1VartbxAYmVxHKfRaNRqtVar1el0CoUiHA6vrq56PB7mxRzOe7p2UWA6nYZpqtVq9Xq9VqstFApQU0ELUguTAJDNZtfX1+/cuXP79u1IJAKis/fee+/dd9/t6elRqVSxWGxubu7WrVs3btzY2tqCDJvNZrPZrNVqy8lBMO+x88hkMq1Wq9Fo0HCGYebm5txuN+EorH0Sw5XAsqxOp0PDtVqtTCaLRCIgGaZz2dcCrIb5fF4ul6vVarVardfr1Wo1CFyXl5eZF/35tRSISgoEAoPBoFar0XCZTBYIBNbW1nw+H0sx3TUF+LUB6rHb7b53797Tp08ZhlGpVGNjY7///e8/+ugjsKczDNPZ2dnX12e1WsPh8OzsbDwex9Rva2ujmbgBrNxisbijowPkZp2dne3t7R0dHRqN5tGjR19++SUEmK7GnlUFh6XD4eA4zmq1dnR0dHR0tLS0+P3+b7/9NhKJQDZqRyKRePLkydTUVCgUEovFLS0t586d++Mf/2iz2RQKBezPrq4um80mEom+/PJLn8+3tbV1/fr1o0eP2u12GMN0zdkSqd/AwIDBYGhvb29ra+vo6Ghra0ulUv/5n/9JnIK1Ay7r1tbW0dFRuVze3t6OzpTJZM+fP9/c3MQxwb4gEolMJtPAwIDRaOzq6sLQWK3W7e3tr7/+emlp6SUETCqVdnZ2gt2ys7MToyORSO7fv//ll19Cd6DxEmdUbx31KMAcx8Xj8fn5+ZWVlXA4DO/F+Pj4+++/bzKZRCIRVyKzM5vNhw4dOn/+fDAYXFxcDIVCT548GR8fHxkZqeg40ev1v/nNby5duoTDGNDtpNPp1dXVl2CFZVlWpVIdOXJErVZj38BJjEAgmJ2dVSqV+2Xcgf78/Pnz9fV1juMUCsWhQ4dAQk/sW6FQqFarh4eH4/H47OxsIpEAydj09DRElNdqoVCo0+mOHj1qs9k4jtPr9aBWUigUbre7Fv9wOcRicXd39z//8z+jJ9VqtUqlkkql6XTa6/VWNMX3hEqlgpbBcRx2daVSiR0SlYR0geaS+BerFCgQCFpaWj777LN0Oq1QKDQajUKhkMvlsVhseXkZw81SYBpTi65TAY5EIuDFzeVySqWyu7t7aGioo6MDFhFT6muZTNbR0XHixIl79+6tr6+n02l4L4PBoN1up/UifFCpVCMjI9iUyAwIBAIvR0sHBxU2fKlUSiIr0uk0zjn2VSZc7i6Xa3l52e/3syyrVqtHR0cdDodMJqPdSyzLwh0wPDy8tbUVDodjsdj8/LzL5RodHeUVy7KsTCZrb29vbW2FtU96w+/3gyhsvw0XCoVGoxFknKQE8Ji/nPQyDCORSHp6ejo7O2GjErJ1MI+Vb5V7FogOPHToEFrNlk7X6WAeZp9qeR2iHmOhC4VCOBxeWFiA70GhUAwMDGAXwuBhgAGNRtPX19fR0aFWq4vFYjwe39zc3NraIueipFg8qFAoZDIZSwU2IBqB2yWCrzogw/AAo0A6tol4XGrxD2H7xZFvMpkUCoUGg6GnpwcrEU0LhPK1Wq3D4bBarQKBIJPJrK+vu91ueODoYom2IpfL4dtjStY7aJZfYu5iBcSJAI5z0IHwDNXuDKOBcBcSmkJ6kteNNPYsE8MtlUoJ1TMJYnm5StYh6k6A4cwIhUJbW1tg8YWVBRdr+WyDPWaz2QwGA1xKHo/H4/GwZTGSBLSHk6wFPG2qRtBPkTWlovRylUAXhR1sdXU1Ho+zLKtUKtva2sxmM5YbUjGu5PKVy+UdHR3wRYFeHEemPN8vb8siVSVaKDmVqVEq6HKYF3cw7nW4c+luZEprTZUK1F5PuKD3qxnVOepOgKFJIkYKzhWpVGq1Wgm5dnnvSyQSi8UC/002m/X7/X6/n3hBq0zK3Qby5TalKvJf4w6McItUKgUBttlsarWaXlzod0kkEoPBoNPpJBJJoVBIJBKBQCAQCPAEmFcfXiHlFduXGNNF7fbny+FNyNgvSW4J6lGAMReTyWShUBCJREql0mAwVHG3iMVig8Gg1WqZ0hElmcdEhneblPVj/0D/R0wYy7JSqRTRzuXVwzcikUin0+l0OgSuZLPZcDgcCASgGJf//rWjTvrt/zjqVIBDoVA2m2UYBueruAmwm/dCKBRqNBrEuBcKBUTn4ryXFuA9N5a3axdxHJdOp0OhECRQIpHo9XqpVEr/gKF0YJFIpNFocI7NMAwaHgqFdgufeAkDoYn6R30JMMQMV3Awj2HsyWSyKld5hEKhUqmUy+XQNhFsyAserj53y90kb6Bxe6BYLGYyGRK4LxaLsWyRH9B6topAAAAgAElEQVT1J5awRCKRSqVQhrPZbDKZfMXK70vCm8vBW0d9CTBTcmIhlIcp3SAj0ltRugQCATyiDHX3MJVKkb1ovzvPzybA5EWodiqVSiQSiB8WiUQ4QaF/X27QEgFmGAYxYRVdPruhou3alOEGwts/B+bKbsDl83noz5jHEomEPqetaBMi/Jgp3ZtDHPy+pvLbAle6s450BVAcuNItiPJQENJ8CL9YLJZIJGzpyiuir3m/3K2EcjdyEw2HutuBmdLJAUcd+VaRXgAHD+TZGkWX3mnrQYt+CfAa/ks64WyiFtSjANN4iem4r8PM/RZe5/jltaiJ6qhTAd6X95ihNm2mtCn9H5nKdOzX/51WN0FQjwJMgleZkk1bXSWG2Uyihcmdz5eezT+/GMAKhb1AKsAL8KxYMZLiD4+/RChyU+VuaLx9Aa7oWZXL5fDfwLVTLsN09B/uu5KDX5FIJJVKy124e1aD9sH+bDJMXofoYpLtCadK9KEuL4iKHB2RhBJwXJPLCbtJJu36Jh+I/f8m2tjEm8PbF2AeEISkVCoRJZ/P55PJJJnKFZXqYrGINDHkcYVCAd/s22lDzaBrSJJX4l5ELpdLJpM4E2Z2WVAg5MTzjIVvX7eLeG48ppmwvtFQdwKM+586nQ5adDabjcViiUSCnK+UTy8Eb6VSKfK4SqXi5VutjnoQdZZlkTEDMWeZTCYajeI4jfczfID0IgtXsVhEwzUaTe1Zspv4BaC+BBgWrEqlIqkMc7kcQiMhnxVlOJ/PI/ko7EC1Wq3T6Yg1WH0ek9Le6HSvpXBIoMlkwqU/5OsjakX57/P5fDQaDYfDSH8hFot1Oh0SHrz2+u8Xb2IPf41l/pKWtvoSYKY0j/V6PS7ZIq1RMBhMJBLMLl2fzWZ9Pl8oFGJKFxsMBsNL3FMH9jtRyn9Px0XUHiOBu812u10ul3Mcl0gktre34/E49yLISzOZDLIcZzIZxKIZDAaj0ViemX1fLXr1yf1yksZ7iv6zxir9zM2sE9SdAMOJpdfrrVarUqlkGCaTySCXL4SBvimK0yNkcoEAi0Qis9mMa+41vo4pi+Lg/aaKWVjuJa4YKFb+DXkv+VIgEOh0uq6uLoVCAQF2uVzBYBDOOZ6awHFcKpVyuVzhcBh3tvR6PfLa8RzR5Z4q+s/yptW44tAPlsdy0f/FvNi9VQ4UeFWtqBnRf9Lv3c0JRxdFJkx5P+zZ3rpFPQowLsp1dXXhhmA6nV5ZWdne3kZf02MGO3BnZ2draysYDDIMI5PJ2traWltbeYQjFSdrudzy5Kri7serbfmXVUSFK9tYyDfIj9fT06PRaJCc1ePxuFwuLEx0lRBxFY/HFxcXfT4fx3ESicRut5PEd7tViXRgeZ/QM7tKe6s0s7xL6WKJ8OzmyKA7pDxHCvkBb6RqrEnFysDg2u3xRkHdCTBT2ouGhoZaWlqEQmE6nV5cXET+Z3oAGIYpFAper/fx48ebm5vIRGW1WpG0kbcD04NHviQBm2Q20EmeqswkGrxpR0BeQVAuxrxXq9Xqzs7Orq4ug8HAMAwSgy0tLdEeeKbEaeJyuZ49e7a9vc0wjEKhOHDgQHt7+35ZzujDM2C3qpa3mqUSj5CnaL8Dr/d4yYYqpjHiOA5Zb/ANrwS6PrxCeK2mFxHydvbFrCn0U/TSQBdS/4L99h0e5YA1ODQ01NXVNTs7m0wm3W7348ePDxw4cPToUbVajSAN+K7m5uZu3LiB/Vmj0Tgcju7ubpVKRRdIa54k5IMrqXPw4hL9nOO4XC6XSCTowROUmBB5VeVKyaVIEDLHcalUCnov/TOw/jDUhV7EXdBOY7FYbDQah4eHl5aWAoFAPB5//PhxV1dXd3e3TqfDGS/HcclkcmVl5fbt20tLS/F4XCwWm81mh8PR1tZW3pls6aZE+Vk6yYlFRDeTySAfCOk0sVjMS3xHpnWxlGSbdCzSxNOvAHtGKpUiYoaerLjQoEA43vED0FyQRRa9ncvlUqmUoEStApUNZxbl+jYajkzxXMngIpnDsFhks1l4WMhTqOR+k4q+FdSjALMsK5fLu7u7R0dHwe4ViUQmJydVKlWxWOzt7YWPKhAIzM3N/fjjjw8fPiRZlE+cONHd3V0uaRhdmNPEosaEjsfjS0tLsVgMcwIZHn/66SeGYcjE1Wg0XV1dra2tpEAyA6LRqNPp9Pl8mUwG/5XNZldWVjweD+ZiLpfzer3Pnj3DPMa0k8vlyCOtVqvpeqrV6iNHjszPzy8uLqZSqcXFxevXrxsMhrGxMfi30un0+vr6rVu3vv/+e7fbXSgUzGbzyMjIwYMHTSYTt0vOg2Qyubq6urOzQ5ilGIbZ3t4m3+TzeSTK9/l8pNXIudna2kpXEg3P5XJ+v395eZmsdMgoMD8/n06n8U0ymZybmxOLxSqVigiwWq0eGBjQ6/W8MSoUCsgotLm5Sfxw2Wx2eXnZ6/UyJb+dy+WamJhAxlmUKZPJWltbe3t7ywc9l8t5PJ6tra1QKETCY5CBOBqNMiVqq/n5+Rs3bpCmIZ1gZ2dnRXqAekM9CjBTMgiPHz/udDrdbncsFltZWcF50rFjx7q6ugQCwcrKyp07d+7fv7+zs8MwjNVqHRsbGx8fB28DDxibdDo9PT197dq1mZkZ8Gtg6/D7/W63m2EYJJT/4YcfpqamyIYsFAr7+vo+/fRTWoCZ0vbr8Xj+3//7f5OTk4FAAN+zLBuLxUAaxDBMPB6fnp4Oh8NqtZpsywaD4eTJk7/61a94sgGWwOPHj8/Nzc3Pz8disXv37gUCgUuXLjkcDq1WGwgEnj9/fuvWrcnJSciDw+H4+OOPu7u7pVLpbvpkKBT6/vvvJyYmkO+S7EUrKyvIAQCSJ6fTCSsaJej1+g8//PDs2bN0JSE56XR6bm7uL3/5y/b2NtZB7I2BQCAcDuObQCDw9ddfT0xMiMViomD39PT8+7//u8Ph4MlbLpfb3Nz84Ycfrly5QvLIMgwTDoddLhdTWiAePXoUCoUIuRnHcQaD4fz5821tbYifpSsZj8cnJyd//PHH+fl58l9wecL0yOfzW1tb33333ePHj4nhIJPJhoaGPvnkE4vFUt0eqQfUqQAzDCOXywcHBy9cuOD3+x8+fOjxeHw+3/Xr158+fapSqYRCYTQaBQOlUCi0WCxnzpz53e9+h9T7CGwoLxOyury8DMIHov4hIBHTLpFIbG5uYtXHPBCJRNls9t133y03ILFjr66uzszMEGYWbGhEnwTvXjweBxMPlGez2Wyz2XgMBnCrGI3GM2fOJBKJv/3tb+vr66lUamFhIRQKIX8d+LiCwSA8BcPDwx9++OGZM2dMJlPFJkN/htb99OnTZDJJLHzY0jAfsFmhWI7jYChaLJaRkRGiANNlgj9xampqc3OTKS0ZSCuL6DHsnysrK06nky0RiONcEOlWeGXmcrloNLq5ufns2TOGMl9xu5so+cFgEPozqYnZbO7v7694jxIK1+Li4tTUFBlroqijzolEYm1tzeVyEXseYbwgl2wK8MtDIBAYjcajR48Wi0WdTvfw4cONjY1wOAxvM8MwEAaVStXR0XH8+PGLFy+Oj4/rdLoqjhx8D35n2jAWCoVyuRzZ4TBssJqIb6PcvmJe3OjI8BMDEoHN9KyCPNPmd3mBCKjs6em5dOlSPp+/ffv27Oys3+/f2NjY3NxE4YJSQvnR0dFz5869//77ra2tu8VvcBR4DjaGYXiVhD5C+rZKkudydx3pSZ4DgmQXJJr2npUkn/G/UqmUzg1W/lJe0my6zGKJ05wuUyQSobvII8R058q8a3WOOhVgjDf4l7VarcFg6OjoePLkidfrBZllsViUSCSIfBgbGztz5ozD4YDztkrvi8Xitra2I0eO4KoDmVX0DOZKV5qYkg0sFAp7e3sr0nNjGwQbOFRo7sVzGl6jyAcwKmk0mvKGsyyrUqkcDodKpbLb7ffu3VtaWopGo3C2IVeW0Wjs7u4+ceIEbH7ShIqTmC2RPCC+mrfu7NZjHMdptdqenh6elc6Ulie73X7q1Km+vj7eU+VFkaWQZdmOjg6z2cwjsoEDz2QyORyO8+fPV+y98gaiQJPJNDg4WDH0XSKRdHZ2Hjt2DIwz5WXy6kCeGhgYqJ3o/O1iD4KZtwuyaiaTyWg06vV6NzY2vF5vLBbjOA5E9Z2dna2trRqNhrAE8AqhxxWekmAwCIWW2WVa8L6BzwlJmHklF4vFVCqFAkEyjL2rojZLb+nIKWk0GrHtV2x7NpuNx+M+n29zc3N7ezsQCGQyGblcbjab29ra2tvb9Xo9na+zot6BzQo+p0gkUjsbA1diJ9fpdPQGSBoej8e9Xi8UbEEZsTjdmfRnuVxut9vpW1ME6XQaqa0rjiNdMl0+Ykhhr/LalcvlwuFwJBKBqVKjPkyGG9wxtTzyFlGPAkxEiN4YccgRj8eTySROL+DeVKvVVe7Qle9IxdIFY7JPVqwDT4BZ6rIuD8USRwnR2Xa7TsB7I+GFqNIJDMOg1bhuhaAruVyuUqnAoiYoY8fkynKMMSWLF6cmFWtVEdjwy5Vz0hCc0JQ3bTcBRk9it6T/izyOU5/d6sP7PdYRtnQRuvxnXOlUueJxccW1nhgpjZIWou4EuPok4Gmn5M/d9p/aX1eOigWWz8jy2tK1quXtu72I1wO7qcfV1QdetSvWard68jp5z99XRxUR+hnkZLd5xWtXuYr+piv2iqg7Aa4R1Xfan7MOVV5dXZ9v4q2jHmbRK6JOnVgNgT3HuxEnRBONhXq30ZtoookqaApwE000MJoC3EQTDYxGdWI10UQTTHMHbqKJhkZTgJtoooHRFOAmmmhgNAW4iSYaGE0BbqKJBkZTgJtoooHRFOAmmmhgNAW4iSYaGE0BbqKJBkZDCjDJ1PG2K/K/eI014d03fl0l0/eBX0uBb6K0Jl4CjXedkKMywpHkVeW/YWq+qbvb9fcaLwNWn8Tk1ngtyVkqSi/3It3By4FcykfCEJZK1sdUumS/Z9dVTGBQ8ccvUfkaL/pXv3BfMX8A+XLPJAqNgoYR4CqpJAgTB/NiIp4qRTH7lNLqRe35v7ysN7WANIRu0atPr/K0HhXrVnttqy80L1FhskDvJvm1pzrZ7ZsquUEaToYb4DIDmR8kZxLyMCE5KJItkzW1lvWep0/y0uLULtgVV/Q99/b9zg9iL2APf/XpxZWSrZKsscgphTSd9C9rkRMIG68fyre4WnZL8pm3YJHSyH/tN9cceRDZ55F2C3mqaSqsijWvczSGAINYKBqNhkIhQmmtVCr1ej2YhBUKBZIzMrWNATLR0SD9gKxxoBevXiv6A0elIEaBJJEa0jjL5fJy7o/qNQTy+Xw2myXpmqEDi8VimUyGRJzVK0mvLKhhIpGIRqPgFkYSdplMptfrDQaDRqORyWQ8gtLqIEsq+ZcYOMgRDRaFWoqCmKGNKCqXy6FLGSpptlKp3Fe6OY7jkB0+lUqFQiG/359IJJCvD4lBtVqtXC6XSqUNJ71MnavQGNFUKuV0Oufn5+fm5pxOZzAYBG+9XC43Go1tbW0DAwMjIyOtra2gxq6+0kO6kskkMpj6/X6fzxeJRLAdgTNhbGxsdHSU2WsLYkt8WZlMJpPJRKPRcDiMKQIqBqgGcrm8p6fn8OHDFTlfeNXDh1wul06nU6lUJBIJBAI+n8/v98disWw2WywWRSKR3W53OBx9fX0KhWLPGhJDI5lMejyeZ8+eLS4ubm5uhkIhrAsSicRkMnV1dR08eHBoaMhisVRM+0oDMgZasHA4jCYHAoFIJEIYz/R6/ZkzZzo6OvZcDZlSBslsNptOp+PxeCgUQquRshfpOBUKxcDAwMmTJ+VyeS0yjPkDwpeFhYX5+fnV1VWkwi0UCkKhUK1Wt7W19fb2OhyOgYEBpVLZEIRmNOpUgMliHI/H19bWbt68eefOnefPn29vbycSCdAmYIG3Wq0Oh+P9998/c+bMgQMHSMb9iqObTqdXV1e3t7e9Xq/T6fR6vW632+12h0IhyIZUKj1w4IBMJhsZGdlTehmGKRQKPp9vaWlpZ2fH4/G43W6fz4fyo9EohMdoNJ49e7a1tXVPAWZKYuZ0OldXVwOBgMfj2d7eRslYuQQCgUwmGxsbgxjXIhvYEqPR6PLy8sTExI0bN2ZmZlwuF1iRsGxpNJr29vaRkZHTp0+fPHmyYj53AtAUeTwepOne3t52u90ej8fr9aKSaHh3d3dra6vZbJbJZHtWEhRwm5ubLpfL7/ejyaBfAxULqBs/+OCDsbExJKbdU0WC7ra1tfXkyZNr1649fvx4bW0tEolg9WEYRiKRWK3W/v7+EydOXLhwYWhoyGw2v7rL8OdEnQowwzCQ3vn5+a+++urrr79eXV3N5XIikUir1UIrwza1sbHh8XicTmcgEPj973/f2dmJ6cJbSrEnhEKhr7766ubNmysrKxBaWkljGEYmk2m1WppssgqgHUxNTf3pT39aWlpCxvlCCYSQNpVKBQIBMBXuCbAEfvPNN//zP/8D1SCVSkFrAD+IQCBQKpUtLS3QA5na7GoQBX755ZdffPEFiBQFAoHBYMB6BxLQ5eXlzc3N6enpYDD40UcfDQ8Pg7OzvLRcLre+vn7lypWrV69ubGxEIpF0Op3NZkmrUTGpVJpMJsszUVdEPB6fmJj4/vvvHz9+HIlEEolEJpNBqwkxGtLcE8LR6gVC29rZ2bl+/foXX3zx8OFDMKdCq2dKTE5+vz8UCq2trTmdzs8+++zkyZN6vX7P2tYP6leAc7ncxsbG9evXv/rqq42NjWw2q9Vq+/v7Dxw40NLSwrKsy+Wan59fXl4GvdiVK1dEItFnn33W3t7OY+4gAGHn/Py81+stFApI3g0yNPg2aMOVqcH1kk6nPR7P06dP3W43dh54g4RCIW3CVaTeqohisRiNRldXV6empoi7TigUSiQSaJik2IrsShUrmc1mNzc3v//++ytXrjidTo7j9Hp9T0/P8PCwwWAoFoter3d2dhbUU8vLy998841cLtfr9W1tbRXt9kKhEAqFlpeXFxYW/H4/IaOAQxG6DPFv1WivYqsEoTnxZaAnQT0nEAiIgV2jizEcDt+9e/fKlSuTk5PRaFQmk7W3tw8ODnZ2dkokklgstr6+PjU15fP5PB7PvXv3QBJw9uzZhkjpDtSpAHMcl0gknj179tNPPy0sLDAMYzabDx06dOnSJaLneDye58+f37hxY2JiIpFIzM3NSSSSwcFBlUplsVjKZQ87QzKZzGQyMplMp9PBc6NUKoPBIBh9WQq1HEcRUmyhUGgymbRardFo1Ov1hUJhc3MT3IJMbYdbDMW9Bh4GlUql1WpRSZVK5fF4VlZW/H4/7/d7VjIYDE5OTt65c2dxcbFQKIDZ9Pz588PDwzqdrlAo+P3+58+fX7t2DSSps7Ozt27d6ujoMJlMFQWY4zjwRWSzWfSk0Wg0GAwymSwYDD579gy8qrX7hLgSVSKIWoxGI0ZHp9Plcrm1tbXFxUWURnjM9tSfs9msy+W6fv36o0ePAoGAQqE4ePDge++9d/r0aZvNJhaLwdhosVgmJiZWV1ddLtedO3dsNtvg4KDZbEbD61+M61GAifLz4MGDp0+fFgoFlUo1NDT06aef/vrXvzYajTjwGBoaOnjwoNFohBUajUYXFhbu3LnT1tZmsVh4ZWIkwHYVi8WEQmFHR0draysotp8+fZpOp7e3t+lTzVqqCsNseHiY4ziTydTa2trW1tbS0hIKha5ever3+6G21T6VBQKBQqFob28/evSoxWKx2+1tbW2dnZ0qlWpiYiIWi4VCIbpFewI6+Y0bN8AYrlarDx48+Mknn/zqV78CkyPDMIVCYWRkRCaTxWIxqJrPnz/v6Og4evRoRac0SCHb2tpGRkbkcnl7CQqFYnp6emVlBQJc+wEHNBeLxTI4OGgwGMCl3t7ebrVa/X7/999/v7S0xJSdKlVBoVAIh8Pz8/MPHjxwu91gurxw4cLvfve7I0eOkIo5HA6s9X6/H4rPgwcPDh069O6772q1WngHamzC20KdCnAsFpudnV1eXg6FQqD/PXny5IULF7RaLdnNCP/oxYsXI5FIJBKJxWJPnjwZHx/HdCw/itTr9b/97W8vX76sUqnA2SWVSmOx2Pb2Ntixie5Xi5UFYTt06NB//Md/KJVKnU6nUqlwmjU7OwtP6X7bLhQK7Xb7b37zm/fee89kMuGEDJVcWloqP6qt0ocMwxSLRdgXT548CYVCLMuaTKaLFy8eOnRIpVLRSrherz916pTL5QJ7/c7Ozuzs7MLCgkajAecjDYlE0tvb+7vf/e7jjz/WaDQ6nU4mk4nF4ng87vf7dyM6rQKBQKDVak+fPj0wMABGNZVKJZVK8/n83NwczeFY41KYzWZXV1fv3r0bCAQKhYJGoxkaGnrvvfcGBgYwvlDHpFLp0NDQqVOn1tfXHz58CEfArVu3Dhw4oFar65/ZjKlPAS4Wi6FQaGpqyu125/N5lUrV29t78OBBu90O45asxFj+jx07Bi0I/tv19XWfz9fW1kaXiQkNPYplWYlEAh0JWy5Nt1X7voFybDabXq+XSqUSiQRGIFR0ep7RwQnVAb5SuVxeLBbBNE2scbjueMXyPvACHkDbvbS05PF4stksuuv48eNdXV3k2BwvlUql7e3tQ0NDXV1di4uLyWTS7XZPT0/39PSUC7BQKIRWzzCMVCpFT2LV29cZMg2JRNLR0WG320UikVQqxdaXTCZxPFt7OWhUJpPZ2Nh48uRJNBoVCoUtLS3Hjh3r6upSKpVMycEBG1uv1w8NDR06dGhqaiocDns8npmZGZ/PBwrFWtbxt4u6W2OwQEYikcXFRTDuyuXygYGBjo4OcnhAQ6PR9PX1tbW1aTQaeIA2NzfdbndFHw/OS9RqNaYFHaDzcrUVCATw9ygUCuw8XAmEqHpfBWJRUKvVcLYLhUKuKuU07xW8z7ADV1ZWQAus0+m6u7s7Ozs1Gg3sSZqDT6lUdnZ2Dg4OKhSKQqEQDAbn5uYCgUDFzkEl1Wo1llTSja/Sk0qlUqvV4jCW+MCIF5qHKkXB04GGp9NpnLcdPnxYr9fTMwdtx8o1ODio0WgEAkEsFtva2nK73fF4vM5FF6g7AWYYJp/Px2Ixt9sdjUYZhpHL5Z2dnVarFWoPbzYLhUKdTtfR0WGxWHC2tL297XK5eDOpFkOUtzS8odZVxyu+l/d4Npv1er1bW1vZbBaqaXd3t0wm4z2Cp8RicUtLy4EDB1QqFayY9fX1cDhcLpNvun+IhvVyj+fz+WAw6PF4EKkilUqtVmtfXx9UBvotiCHV6XStra0tLS1YubAHRCKRpgC/DIrFYiKR8Pl8OKdF3ILFYiGGULkaKRaLrVarwWDAnoMInlpObt7QRKTLfBPLQZUtiBzAAPl8HtEg+XxeIBDgZKj8jI3sSBqNpq2tDRKezWYDgUA4HEbc28+Ml+sxYjhgDuDsHRF7JpOJ13CuFLYpFAq1Wm1LS4tMJgNjO4nDeS1teaOoRwGGLySRSGDaKRQK6Ki7PSISiRDHi9OISCQSCoXeYu9XfPXPvJyzpUAxBHhypXArq9VabomQRzDXEUeZz+fj8Tiht69/EBdGLpcLhUKQQKKZw6HA+z0EmGVZhUJhMpmkUinDMAi9rDGY562jvgQYfZpMJsPhMEJqRSKRWq1WKpUikYiMEE9CMDXhn8DjsViMvp+w27vKnUC/MGQymUQigbNooVCoVCpJ9BUPkGSxWKxWqxUKBfHGxWKxty7AtFqBb8pXQ9o2xrKFoyzE22o0mvIDIeLww8qFUwmWZbEHpNPppgpdE3jCw3Ec5g2WRqlUqlKpZDIZBoDeNMi4ikQipVIJnyG06GQymU6na49/+kUCF4/i8Xgmk8FeJJPJqsfroyfJxSmO49CTP2OtX0BFY2RPuULDse7Ay6hQKMqDq1gqLAQ3k6BjwwVDIrrfQLNeJ+roGIksoriSghsLIpEIzlji2KClF8AAkMMMRN7lcjna3cUbiXLB/oWJOnoyl8tls1nENrIsK5FIqp/KIGYTHc4wTKFQyGQyNUZxvznUMjRs6d4VWof7YUxpfd/tcIusCGg4Wo0phHta9Y+3vwMToCs5jsvn8+l0GnMOfkJeAB1vRDFIZGNBkDpRoel/6Ud4H15jK17i9OhNgCvdnYQmgs4Ui8W8+AR6jcNNY7FYTKbyWxRgnquylt+T6UEkkC0FVFd/C/YA0mrSaa/eijeNOtqBAbJvEA25uvTSv2FKVjR9R5+UU/4U/aH+laV9gWVZkmCA9BimchUtFEkq6M4k+SvqH6RR8GWSNABo9W7SSEaf5CRBq8kFtTpHHe3ABGQHIx94c67iYPBiGGq/rNMQC23t4PUDV8p6xdTWWNob1HAgkST0hKlytYi2y+ifvVwQzltB3e3ATNmOWuO0o58lj1fZXcuLLfeRNOK2THdFuW5SsTOJnJe7eWjbpM5BNw1zgCnZEfSlYt5TPKGlHxcIBPXvx3r7Alxx0pCr5OV7aUWZpJdemM0kWdnLVanOh606iDSSfsAmjERT5T+mpz6ZxyhBLBa/xOWEtwLiQ6EdV8QRUPER0nBy1xqPo9VsbZdA3y7qToVmWRYp4NhSJidyQZzZxaAlbkPiUcQ1o+rGLb3Dv+lGvV6UawrlwEREP8BxBdMuk8mUGxe8eQwHPvOie78hQNwlZAKQHbhckeYo5PP5RCKBXB84byNxB3WO+hJgqHxyuVytVkNzy+VyiUSCHOpW7FOEv5FjA7FYrFAoSOTNbk4s+qVver/9Ofdz2vaTSqW46MeUfLPIcVP+CHHeIPADW5ZQKERP/myVf3VgCikUCgSEcqVTyYo/JtMpm83G43FE/mH+NMqyVV8CzDAMy7IymQyhM9ha4/E4MiTtZg8jxxou3GDweNlMa5Gfhn7Cj6oAACAASURBVNaZaZD1CBsRrhOjKxAhw/Ov0vt5LpeLx+PJZBLpZpEIknf5oZ6B6YF1B4E9WNyTyWS5V5nMJXoHZkqt3i0rU72h7gQYwau4YcuybC6Xi8ViyO1G37ZnqAHI5/PhcDgWi3GliF+tVkvOS/Ylva9Fa6J9m69XReeVVl4yaQjeTi79sSxbKBTi8XggECg3CElV0+k0EsphL5LJZEgTVWPd9vzmVbBnT5IfkNBarhSZG4vFKtoO5MFMJoPwSUwhxE43xJpejwKsVqtxSx7p5jKZjN/vx/3McoGEjuT3+8PhMFO62GAymWqUW1IgvR7vhj0LJOp6xdRNP4NNRdcTAmwwGMxms1AoRCY6l8uFM3ZeZfBNPB53u91INyuVSnGJB0Hme76UVyDJz/4SraYLREoDuhv3HFmRSGQymQwGA45/cbmNJAYl9cGhN5a2aDTqcrlwgUEmk9ntdp1OV8u73jrqToChQhsMBpvNhguc2WwWqZtpkSAnIoVCAfnKg8EgwzBisdhisVitVpovozpel1yRcsqt7te7DzM1qwxisdhsNtvtdrFYXCgUAoGA0+mEGcx7kGXZYrEYDAZXV1eRfRpZr3Q6XY3KJFkHmf3ELe8G3kpEPuzpy4DlbzKZrFYrUlsnk8mdnR2Xy0USDPJelEwmfT6f1+tFwxUKRVtbm1arfbma/8yoRwGGDtPZ2YlVMJVKra2teTwe8ht6V8xkMrizHgqF4ABrbW1tbW1lKXKwii/iSrfJ6CQBryJmqE+5ns+8Vj/ZvmooFottNltXVxd0GSRA9vv9mUyGVu/xIZvNbm9vz83NpVIpXHPv7e1FFot91Y17kZ3s5UD3ZJEio8RCs1sn4I2YPzabraWlRSwW53K5nZ2d+fl5GFl0scViEZeH19fXye1/k8nUFOBXAsuyGo0G2T1Zlk0kEouLi2tra7gkSGcb5jjO7/c/ffp0fX09kUgQipCWlhb6ELh8vHnSS0c4VNGc99xIael97bsuD7WIh1gsttvtfX19yBcTiURWV1eRKId5saUwQ5aWlubn5xOJBLTQoaGhWrKcE52IofJpAzi+erk8O1Cv6M4k5ezZt0gBPTQ0pFQqC4WCx+N5+PAhEoORtPs4FU8kEktLS8+fP4cT1Gg09vb24nL/Gx2+14V6PKOHAI+MjHR3d09PT6dSKbfbPTk52d/ff+jQIY1Gg9AC3NucnZ29du3a9vY2wzBqtXp4eJimBaFVTbZ0KkgiXTE5wADAURxC8NbSJeC2ym5ZznlJ4XEBgLg9udLxDMokLi5ctKp4tSCXy5HbVABuBZIZjCzK8XicpuTCXQX65g32oq6ursHBQVDD+Xy+mzdvtrS0IHUeBAw5aB4+fHjv3j0kwTIYDD09PYODg7ttRHgKR/SkSplMBieuMLnxm1QqFYvFSDOh4pan14R8ouHkz1QqhT+Z0vaLtyQSCfqCmlgsRpYCUppEIunu7j5x4sT09HQkEvH5fE+ePJmcnEROEtJF2WzW6XQ+ePDg0aNHSEXY09Nz4sQJvV7fKPFndSrAMpmss7NzdHR0dnZ2ZmYmEok8evRIoVDk8/mBgQGj0ciyLFKQX7ly5fHjx+FwGIl1Tpw40d3djVP4cs9HLpdzu91bW1vBYFAgEGDyxWKxhYWFSCTClBaFubm569evk8eRjKarq4uX6ZJhmGKxGIlENjY2dnZ2iF6ay+XAwASvJhJTgTGEYRh4VmQymc1mQ345UhpkFZVcX18nl6JRyaWlJXxTLBaR9FilUqnVaq500whUb1arlSw06Mmurq5Tp05tbW2Fw+FIJHL//n29Xi8SiQ4ePIjkssjG/sMPPzx+/BjJK3t7e9955x2k1+HKwgm5UuoibNdoFDJ4zMzMEFMT+aULhYJSqSSrjFqtRvJnnmkNDX9zc9PpdJK3gMMFqzNTkrfbt2/TBUqlUhDc0UQwIpHIZrMdOXLkwIEDwWAwEAhsbm5evXpVKBSeOnUKedtTqdTW1taNGzfu3LmztbXFcZzBYHA4HMePH6cHpc5RjwIM1ctgMBw/fnxzc9Pj8UQikYWFhWg0mkgkjh492tHRIRAI1tbW7t27d+/ePZfLxTAMBmx8fLylpYUpuwuOD6lUam5u7ubNm7Ozs+SGCvLgeb1epkRWdvv27c3NTTJFxGJxT0/P5cuXywW4UCjs7OzcvHnz+fPnMMIhYJFIZG1tLZFIcByXTCaXlpbS6TSEDfNMp9MdO3YMySJ4ZWYymdnZ2e+++47ksmJZFswjwWAQG77L5bp169bKygrJDosUx+fOndPpdLSmIBQKbTbb2bNnQSjj9/tXVla+++67cDh86tQpo9FYLBa3trYmJiYmJiacTqdUKrXb7ePj46dOndJqtRXDUTmOS6VSy8vLf//73z0eD5HwdDpNs7qFw+ErV648ffqUjorr6OhQKpVKpZInwFi2bt269dNPPzGUOR2JRNbX1/E5Ho9PTU1lMhmy3yKh9JkzZzo7O8m1QeJGGRgYOH36NNIzxWKxGzduRKNRv9/f398vlUpDodDMzMxPP/20tLSUy+WQ8v748eMHDhzg7ef1jHoUYIZhOI7DjLx48aLX652cnPR4PC6X63/+53/u3LmDSR8MBpGxSSwWm0ym99577w9/+ANob4rFYsWZBzF4/Pjx/fv3Gcp4g16N92JDXl1dpRMyBwKBw4cPlxeIs5mpqak7d+7s7OygNKLpQTNPp9Mul8vn88EBg3lmtVqVSuWJEyfo0ohet7GxcffuXRz5EM8NuaQOjTcejy8vLxNnLzIqDg0NlcdpgJXz448/TqVS165dS6VSGxsbgUDg9u3bSEAJOs94PA4t5syZM++///6BAwcQg1k+lWF3bG9vT0xMbG5uki+5EkUoxC+RSMzMzNDX9AQCwfDw8KVLl4hiTPckVKobN25wlD8fwTxMKWAW3IXkKZFIZDQabTZb+XmVQCAwm82XLl1CjMDGxkY0Gn3w4MHy8rJOpxOJRKCYBXepTqcbHBy8fPnyu+++SxLlNoQM16MA077Eo0ePMgxjNpvv3bu3vr4OAhSICsZVpVK1t7ePj49fuHDhnXfe4aUOJeCqHu0g9r28DuSXu0XSMtRtNY66uCcUCokXBGcbpA6QcK7S7R/yY+KiAyDA5fcKSPlcmd+bLhCUjsePH+c4TqlUPnnyxOVyIb6NeBMYhgHD6IkTJz7++ONDhw7RamrFMSKtJn+i8uXWI72mVPEMkVbTP0M8SblLiQgYffmMB6lU2tvbe/nyZYVCce3ataWlpVAotLOzAwMKTiyk5nc4HBcuXDhz5ozdbuddZatz1KMAM6W+gxMVqdg7OjqmpqY8Hg94rrFFa7Xa1tbW4eHhd955B8zUVQ4w8Eh3dzesIHIgwVKXTsjIkcmBH/T29pbrz0yJo+Dw4cNSqTQcDhO7mqGSxWNa06+ACj02NlbRRQTiEqgeuKFBJJluC0uBYRiRSDQ4OIgj3/KeFIlE7e3tcrncYrH09fXNzc1BhqEjIN6jtbUVOuTo6KhOpyOCtJtstLe3X7hwAYspVqgqiwhTWgc7OztbWlqQ/5EGuJEOHToEjxdpL3k7vS2TL5EVfHh4uOLlM5Zl1Wr1kSNH9Hq91Wp99uzZ2tpaIBCAOxAJwNAhR44cOXbsmNVqJYHfDSG9DMPU3YUpeqITaUSi0M3NzcXFRa/XG4/Hi8UipLe/v7+np0cul5MhLN9sGWr3Q9JZbD6EpJPMGFok6J1TJpMZjcZyeYOnlE6CS15Hb03k9+RP6BdgFeKVmc/no9FoMBiEV4wprQW0DKOq9OsYhlGpVHq9XqVSle+BpDJwWa2trS0vL7vdbjicVCpVZ2cnIbggGi+UBV4TiKqcSCTgumNKAkwYjOnHSU9CvOVyuc1mQ5Y5Xk9Cpw2FQkQv4DiO56/mqENmlCAWi7VardlsrnJxv1jialhdXQXHN458LRZLT09Pb2+v1WqFT4QYLFW0j7pCnQowVzpC5KjjH0Slw7ZkGEYkEslkMoVCQXIOVulx0kw4gZAxj3lR2ssln3xmd7kZy5Uu2ZK8U7z/raKC7nZpmRxRVrz3xyuE/hM3aSoSoNHKNo6gcD+E8A8jdSOyf5LHd5vHqBiMUjJG5U2ma0t6GAdyFYWNHMjtNhy8YsnqQF8g3w3FYjGdTieTyWQyCb0DB1qYP8SjRuZbQ0gvU4cCzJTW+P324J6/f0Oj0kCDvV9UF6FGbHX1FbARUY8CzOw/pPEXMBJNNPESqMdQyiaaaKJGNAW4iSYaGE0BbqKJBkad2sBNNNFELWjuwE000cBoCnATTTQwmgLcRBMNjKYAN9FEA6MpwE000cBoCnATTTQwmgLcRBMNjKYAN/H/oxkU0HBoCnAT/4um9DYimgLcGChPyvHqBVb5sz7xenvgl4GmADcAOArM65jHFUuoz4vNvIa/XI74XzDqNCdWRdAX/SumgPiFgU7KQ2fGevX79OWZQ4iE1E9nli8xJFNH/VTyraNhLjOQGUZ/Sae8eQt1esPg5Y7hKnEOvUrqJl6X0uLx1vuTXlPwDb1wv/Xq1Q8aYAem8zmBfQNpk5BwuGIKqF8GWCrHKskXBVJMutX7bT5Xyu+H3GDIU0WnBMSHt9irRGiRbAyVROIr5Otr3Jw+rx0NIMAMw+RyuXQ6HY/HI5FILBZDLkWFQqEuQS6XVyQu2g0kGV2uBKKfi8VihUJB0ovWXiARs2w2S2SDYRihUIjkafuqIVPKw5ZIJJLJZDQaBT2SSCRSq9VarVaj0ZBsbDVqlVyJih5MBdFoNJPJgNJRqVSqVCqlUgli64pp8elyGCotPsmMz+OIQlXL+Z92K5OoALlcLplMopLxeBzc7gqFQqvVqtVqVLI8wWD1wslwg7aKZBR+ueGuH9S1AGNyZDKZra2thYWFmZmZzc3NYDCYSqVYlpXL5TqdrqOjY2RkxOFw2O12ZBuuMpWx7WSz2UwmA7r6nZ0dr9eLXMHYfKxW69GjR8fGxphKeRV5gEhkMplcLpdKpcCjtbOzs7OzEw6HofGqVKqBgYHDhw/bbLZaWo2XFgqFcDiMVi8uLvp8vlgslsvlRCKRXq+32Wx9fX2jo6OdnZ1arZZl2d3IuGj1O51OezyeZ8+ezc3NbWxsBIPBbDYLATYYDF1dXUNDQw6Hw2g0yuVyQlPCqxgpDeRm6XQ6FosFAgG/34+c6el0Gg03Go3nzp3r7OxUKBQ1NpzjuGQyubm5OTs7Ozc353a7g8EgCMdVKpXZbO7q6nI4HA6Hg1BAVRluorZkMhmQqmC4w+EwxFgoFNrt9qNHjzocjlpqWIeoXwHGcCYSieXl5Z9++un+/fsLCwtICp3L5aBCq1Qqq9U6NTV16tSpU6dODQ0N0bxe5QWmUqnFxUWn0+nxeAKBgNfr3dnZ8fl8oVAIbIAikWhgYECr1Y6OjpY/Xu77IdyzXq/X5/P5fD6Px+P3+/1+P6EmM5lMp0+fbmtrq1GAGYYBae3ExMSdO3eePHmyvr4eDoeRjhzU2waDob29fX5+/r333jt8+LDZbObZinQlGYYpFougjLl169b9+/fn5+e3t7cTiQRqiK2ytbV1cHBwfHz89OnTvb29YHgkmWXptQyU9k6nc3V1FR2I/vT7/ZANCHBXV1d3d3dLS0uNAoxKLi0tXb169cGDB0tLSz6fLx6Pg4IDefztdvvw8PDp06dPnjw5MDBAkzmUNzyZTC4uLm5tbXk8Hoiuz+cLBAKRSAQCLJFIHA6HwWAYGhpqUIW8rgU4k8msra198803n3/++cLCQqFQEIvFSqUScyuTyWDHW1paWl5ejkQiSqWyra0N+zBvR8IYh8PhH3744datW8vLy+DFoZVnhmEkEolQKAwEArUopVgR5ubm/vKXv2C7CIVCqVSKliWhUGixWDo7O+PxeI1lFgoFv99/7969P/3pT48ePdrZ2UHeZo1GIxaLoT5sbGysra3NzMyAW+z06dNKpbJismVCobq0tPTVV1/993//t9vtzmQyYrFYpVJJJBL8bygU8vv9s7OzT58+xf8eOHCA8L/xkM/nnU7njz/+ePXq1dXVVZ/PF41GieZM/EygeiynQdqt4clkcmFh4csvv/z73/++vr5eLBYlEgk0Z4ZhUqlUIBDweDwLCwtLS0vRaFSpVNpsNkLvxpTpC8Fg8Lvvvrt9+/by8jJJvk+qx3GcTCaTy+XhcLhxPdv1K8Cglrxy5crnn3++sbEBHrrOzs7BwcHW1laWZZ1O5/z8/OrqajKZXF1d/e6771iW/Zd/+Zf29vZyaxPDA3mbmZnx+XxQmJVKJagxkeUcaceFQiH2uuqDiqkP7mKXywUlXCaT4e3E2SYQCCQSCU3bW6VAsGxOTEx8/vnnT58+jUajcrncbDY7HI6enh6tVhsKhVZWVpaWltxudyQSuXnzplAoVKvVIyMjWq22vNoCgQCsnF9//fX333/v9Xo5joPCPDw8DHZCj8czPz/vdDqj0ejW1tY//vEPqVQKOpKKMgx6h6WlJej2YBgSCoWgXyDZ3om/rZbhzmazy8vL33777V//+lev1wt6yt7e3oGBAavVWiwWMdzgx1pYWPjmm2+EQuFvf/vblpaWcjZZpsRTB1UchOYSiQSZ6wkRMV3DBpXhOhVgjuPi8fjk5OT169dXVlYKhYLFYhkbG7t06dLg4KDRaGQYZmdnZ3p6+ubNmxMTE4lEYm5uTi6XDw4OKpVKMIyWAxZ1LpeTSCQajcZgMJjNZrVaHQgEIBJcia+sFr8LKRAcuRqNRqvVGo1Gk8lUKBQ2NjacTic25BoPZliWxbI1MTFx9+7dQCAAlf7cuXPHjx8HuVEymVxfX79z587169dhCzx48MButxuNRrVaXe6Tx4rw6NGje/furays5PN5vV5/4sSJc+fODQ0NaTQajuNCodD09PSVK1cmJydheN+8ebO1tfXChQsqlaqiMQKiDBCUGI1Gg8FgMBhUKlU4HH769CnUDRCdVWk47biKRqMPHz68efPmxsaGUChsaWl55513Pvzww97eXp1OxzDMzs7OkydPbty4cf/+/UQiMTs7q9FoBgYGpFIpmK7KywcHBSqp0+kMBoPJZFIoFH6/f3l5GcoL4fRoROll6laA8/m82+1+8ODBkydPstmsSqU6ePDgJ598cvnyZYvFgm0hn8/39fVB/MDQPTc3d/fu3Y6OjnIBhmTKZLL+/v58Po8pYrVabTabXC6fmpqKRqMul2tfYRLwYZpMpiNHjhQKBYPB0NLSYrFYzGZzOBy+du0a1LaKJ9i7IZFIPHv2bHJycmtrC8R5p06d+td//df+/n4iSw6Ho6WlpVgsfvPNN16vd2Nj48aNG0ePHm1ra8Ncp9+Vz+dBY72wsBCPxzUajcPhuHz58kcffWQymcBIAtp0gUAAAs5oNPr06VO73T46OiqVSnlEvgzDCIVCjUbT09MDbler1YqGy2Sy+fl56LekGrXoHfBT3r9/f3p6muM4pVI5Ojr66aeffvzxx3q9HjtkNpsFd6zH44Evc3p6+u7duzabzWg0VlxwwauKYWptbbXZbC0tLWKx+OnTp+Fw2O12k3GsZWjqE/UowNh+5+bmFhYW/H4/y7IWi+Xdd9+9dOkSOKzA6CMSiVpbW0+cOAHu+Wg0GolEHj58ePz48ZGREZr/jswkvV5/+fLl8+fP63Q6i8WC0wjwxyqVSuZFUrI968myrEKhGB4e/uMf/6jRaKxWq16vFwgEuVxuampqcnKSaPKwD/dU0rBbTk5OrqyscBwnl8tHR0fPnTs3MjLCUoxbYNxLpVIzMzPhcDiZTG5sbDx//ry/vx8CTDc8kUisrq4+evQIVoPBYDh//vz4+Dj8XkTjsNls58+f39nZmZubS6VSXq93dnZ2ZWUFGxev5mKxuL29/YMPPjh37pxerzeZTGB1hZ8c7NgchT2HOxKJzMzMLC0tBYNBwkh+8eJFnU7HljjuMNwnT57c3Nz86quvotHozs7OvXv33nnnnYMHD5avMizLGo3GTz75JJvNwhyQSqUikSgYDAaDQZCnMlSg257DXZ+oRwHGPIaHplAoqFSqvr6+wcFBWDtsia2T4zixWNzW1nbs2LGJiYm1tTVYpGtra16vt62tjazKZHjkcvmBAweKxaJUKpXJZGyJcbvG7ZEG5rREImltbdXpdCgQPqFUKsWjxq6l/GKxmEgktra2VldXQWCr0WhGR0cdDgcoy+m2KJVKGLEul2ttbQ3G3rFjxxwOBz0Xc7mcx+OBCyeXy8nl8tbW1sOHD9vtdvQk8TALBIK2trahoaHu7u6VlZVMJuP1emdmZnp6egwGA6+qIFVFB8pkMqlUKhAIoFTXvvwxVHBOMBicmpryer3FYlGlUvX39/f395vNZlSSK4WgyeXy7u7ukydPPnz4ENSKTqcTZOXlHn6WZVUq1dDQEMdxsH4xZ3ihII0rukA9XmYoFovRaHRpacnv92MjAj0vlnYaAoFArVb39va2t7er1Wocb2xubrpcropR7yKRSKfT6fV6hUJBm2e1bBQVIRQKFQoF7E+yCbzcnCgWi+FweGVlZWdnJ51OSyQSq9Xa19dnt9sZikacvFev1x88eNBkMjEMk06n19fXXS4XHEjkZ7lczuVyLS8vx+NxhmH0en1vb29HRwfc+LwyFQpFR0fH0NCQQqEoFAqhUGhxcTEcDhMzla4tDnW0Wq1cLifUofl8HsR/5b+vCHR7LpcLBALz8/PBYJAp6b1YYmjPNhxOBoPhwIEDra2tSqUyn8+Hw+GNjY3t7e2K5YPZXKfTEf5K8tLdqIwbDnUnwDhHiUQiLpcrFothje/s7DSbzfTPcEIjFArFYrFOp2tvbzeZTJgN29vbuwkwQy26bInCG1GE+5W6cp8nPRVeQoYLhUIwGFxZWYnFYvBm2+12q9WqVCppZw95i0Kh6OrqMhqNLMtms9mdnR2PxxOPx2FfAOiNjY2NbDYrFArNZnNfXx+Oo2huYQTMwFQZGhpSqVSwYjY2NsLhMI+KlXwgpN4k5oyu4Z4qNPnfTCbj9/u3trawysjlcrSLBFHSS7ZUKsUZuF6v5zgunU5vbW253e7dhpvWCAQllNehccW47gQYp/lerxdxQjgCNZvNGo2GKfOLkEG1Wq3Q9LLZLAIq6BElg0QC6Ei4Lz7X6HPeDa+lEI7jYrGYy+VKJpNQ/1paWuC4Qslw6kJxgPZusVgMBgMU7Hg8jiAwcu4K71QoFPL5fIVCAduX3W6nD04ZakWDOtPa2oq4wnQ6jbCHZDJZ3l7UCkdH9FJIlF5mL/Eg/5VMJoPBYDQaRaS3TCbD0QBZW+nhKxaLMpnMZrNBgPP5fCAQCAaDZEctryRquCeDdIOiHgU4Ho/7/f5kMomDWaVSqdfr4XUoHwCWZTE1IeHYvUOhEL0RVQS9FrziAvxaZgZs4J2dnWw2C73DbDYrFIqKTYYAE/2QKTXc7/ej4ZCiTCYTDocR1IlFwWKxVDwkxxRXKBQmkwlacS6Xi8VioVCICDBdE94a+tI9gFbDXQ/fBNxmWEToMiG9cHxguNlSrEg0Gq34dl6taIvpFyPM9SjAyWSSROQJhUKVSoWYIbrT6Q8ikUij0UDVLBQKyWQyHo/DGKuu2b4WDYo3Fbj9eHF4lUmlUuFwGOEfMDLhFavYECxtarUa9jy2smg0SjRenFHH4/FEIlEoFBC1otfrSUgJKZZIII7HEQiN2GlydaSiJJR/U7sdQeqQSCRIwJZEIsHtFKlUSq+t9DKBwBVieycSif+vvWt7aurq4vskJ5ALkGggBCghQhDRKohoFbW12mmnPnT6d/apM32oU2sZRoGKyqUVCLdEDEkgJIZcyD2c7+E3Wd2cnISIogc+1oMTQ84++7bWXntdfiuZTELhqr6Ox1dPrkKqY2BcbHCXw5YymUx6vR7ZJ4qCE3oXlhy7NpPJINiV7U8oVbPcLRaLyD0CAyNLpvy0pOFoNBr8BtZgnLepVIpcVvgmk8lQEDUiBxVVfcwMNYjYJnQpm83Kfll9IPw8V59zrFcmk8EhD1kMY355/BaFhSD7QqfTIakIj1MA9v8bqY6BKbaJ4uzBnFVierCi5PgtFApgYDq1Ku2hI+Ln92qTmA1hQ+l0GnIHl3/FpDkal0ajIX+YJEm5XA6Zd6BisQgGhkRAlKher6/CwJhtxBuyUj6jjIGrjPcQ2gdxIBQBURTr6+sRXlI+anyAqo/lliQJqaYQUrW/98SQ6hiYMZbP5xFXzBiDnbm6lRhnEe11JJEhu+gT9fjDCAxJ2arEnLytWJGw4zFwqZSNzNt7crkcjiah5IZR5A1qjexkNOGYSf43tYzowJ+he6zEgcR+WG5FwUqP8KOGnMLUnUgN+UBSHQPzGxHf1HJO8mll0n6HpPqJLntwnNCXBwYSs5JrRCrlDPK3BqTsQs8kVVZRFMpUFXovZpLvUo0jqm5WIBHDd5uGwwda8I/IfMK8X5ccTjV27ySR6hgYVGUHKP6J98uTRnosVrRc/zyEYs+fuvyoMQ/4Ev8qHukSh7ZFvCEznr0X9/K9qrSUxH48c9KfZK/jRY9sinjuVa2B4+hIjQxMYpiImFPx97RLaP2E/X4/lXMy7UtCpaqy73mSDVx2aBM38g1Wv1ZInKsc3/Bn3ccingPp4BVKlvNyjy71pNKRe0S2jGNBqmNgsmTwq3XgbsY5g8+4R5Gz5FgsLXiP7zYU4AP5DZcFPIIWiIdhtSIgOMYYrotVzsO9EtIdHcho4cDO85Ncy4Tzj/C3ff4aX+kRmWIvG/X/G6mRgevq6gCtxkpbivax4uajfcxKKX6wZB6XVE+pBAFXV1cHeztjDCao6uEokiTBTIUWdDodXLh03UWD4EDMZLm1ltd4CZSPrs319fV8XteBA6lR2RE4giEdmgJEzIFiC2AJrLTckDIfGAl3TWQdNwAAD21JREFUTEl1Y8aKUnACXCM4N/jrItkw8Rlp+rjjwVlSIxiiSgj8Bg7EVgZKHrZpJYIPJpPJYOD19fUUwASCKAR7QCLAz6TYAcZYsVgEZA9NJmayliEc7p4CbxlwUUiC8PqU4qjxG1ZypBkMBsT5HFEn1Uyq2+Jw6jY1NSGWAAF9iUQCyGZEJOxx/AJ8lJWCOkwmU40reqTEX92rX+NZaeCIAcbAgb1W6UoMsZVKpZDEh8CspqYmCv2lBsHVUilCRhYlzjjtNJ/PI3ILriNRFBHXceAwDxyjtJ/oe3TbbDZD2uZyuWQyiSha/nF+KZFzBhQU+IQpUK8W/qROSvvNZgc+qE5SIwObTCar1Yr4hFwuF4/HEZFbvonxDUL2gQKh0WgaGhoQhFjLCXwUIpnvZ43cy0oDt9lsUFlzuRwSCcoNS6Bisbi7uxuPxyG5EGBosVj4LGi9Xg8gZY1GUywWgaTLXzKJgfGWdDoNGFeAlkCS1g4Ky/azRyXRw7hoZIzaYrHgnKfg7UwmU/4KPIL0w0QiwRjT6XTIajwQcky2KPRZ/Tes6qRSBm5pacGiYpsCpZVxBlt+0guFAqBhGWNIbEAuOP1AcQPxm1i2orLfVNqFVdpkSudSpaaEUjaP2Wzu7Ow0Go2SJO3u7iI9kLiXJ8ZYNpuNRCLRaBR7HbkNBEADAvbN2bNntVot0hU3NjZwDaboDkEQ8N9CoRCLxZAoLwgCwKKtViuwSo6OjEYj8LREUSwUColEIhQKYbkVCQyMBAadTme1Ws+cOXOsmfBDSHUMjK3T3Nzc2tqKZDrgbIA/eXclPZJKpYLBYCQSwYra7fa2tjY+35VV5eFKHHUIUmxT1lql/vAMjJSsYDAIwGoK1eAbyeVywWAQmUYQW3a7HbkK9DNRFFtaWpAcXywWI5EIUB2FEhA837e9vb1oNAqUT0EQTCaTw+GQNfjRCfIaqFpIvcpms36/H8stGzL+TSaTPp8P0L+iKNpsNpvNxo5GmVI/qZGBkaOPmgOMsXQ67fF4gCFYHrCRzWY3Nzd9Pl80GoXW197e3tbWRi4HxbdUP3tlP6uRqh/XvNag2KxGo7FYLE6ns6mpSavVYlwbGxu0lWV9TiQSy8vLAEzV6/UAbSOoJ1BdXV17e7vT6UTofyQSAV6PLDoSj0AiLC4uJpNJSBMgQh7p4QZLm9Vq7erqQkJoKpVaXV0NhUL8LGHpoY4FAgG/3x+LxXBH6OjoaG1treVFRzeKz0iqY2DGmCAIZrP5woULgAvNZDLLy8tra2uxWIyCilhpUSORyOvXr9fX13d3d0VRtFqtnZ2dNputukmDVHH6L/8ZHxQfl+0qnqnoUld+rVLcPbL2NRpNU1OT0+lsb28HPBCAZt68ecMLBalUJCUQCPzzzz+AUAZsWHt7uyzoAmiMALvTaDTxeNzr9S4vL797904mufZKUM9utzudToui2Nzc3N/fr6idKkooxiUMMS6M5MA4EEiuvr4+QDIA3t3r9Zbb2wDxNTc35/f7gTrU0tLS1dVls9lqEbXUjQ9HX1APqRHUjjEGpPJz584tLi6mUqlAIPDy5UuXyzU4OGixWODYhDVyfn7+yZMnm5ubeOrSpUs9PT0oF6S483K5HB8GgPRj3tWMHDqYxNh+Jy2fCUA7hkDhpZKdCa4d3hcC+xBd40FUbo+aAtsMDAysra0BbnJmZsblcrlcroaGBrIGp1Ipr9f7999/Ly4u7uzsQGxdvnzZ4XBI+1PVoVqfP3/+0qVLMCVsb2+Pjo4C4QQuK0EQCoVCOByenp5++fJlOBze29s7c+ZMV1dXf3+/DOaScYoAeYxJvqAqklTCPMHFGwOnjiG8RMY/FotlYGBgYmJiZWUll8utr6+/ePECxZ/gYcK6RKPRubm5P/74Y3t7GzrClStXnE4nrAa8zkWfkYxBy40znI9mQQ8JBxftoB7d+xaj+yykRgaWJKmurs7hcAwMDCwtLS0sLCQSiVevXplMpr29vb6+PgC7h8Ph+fn5P//88+XLl9FoFLffW7dudXd3V0qjBUbUxsYG8NOwWslk0u12R6NRHG7xeHxpaWlsbIz2JUAYnU5nR0cH3yYOrng8/ubNm1AolM1myRnj8XiCwSAS8XK5XCAQmJmZIbhzoQQD5HA4oDdSg2az+dq1awsLC8vLy4VCYW1t7cmTJ42NjdeuXevo6DAajZlMZm1t7enTp7///nswGJQkCZD3Fy9ehMLCiy0omU6nc2RkxO/37+zsxGKx58+fw9Z14cKFxsZGQRDevXs3PT396NGjV69eFQoFg8HQ29s7PDzc1tZWX18vKaHhZrPZUCi0traGxE9MbzKZnJ+fJwCAVCr1+vXrvb09oOSBpS0WC6pP8aXJjEZjT0/P4OCgx+Nxu92ApzaZTMVikYDdw+Hw7Ozso0eP5ubmkslkfX19Z2fnyMhIZ2cnPI6y5Ya92u/3+3w+QPNJpcIXQBFnpQpyCwsLUDRouc+cOdPd3V17LavPSGpkYMjv5ubmGzduoPjAzs6Ox+PJZDLpdPrKlSsAavT5fNPT0y9evPD5fIyxjo6O69ev37x5E39VpHQ6vbS0ND4+vrS0hOXUaDSo9BMKhcCQ4XB4cnIyGAxS/lp9fX13d/cPP/zAMzDWu1AohEKh8fHx169fQwQwxiRJ2tnZ8Xq9sA+n0+mVlZVisTg1NUXHb1NT09WrVxsaGngGZowZDIaLFy9+9dVXy8vLS0tLkUhkamoKBftQcCyZTC4sLExMTExPT+fz+YaGhr6+vgcPHpw7d07R3wMI+9u3b6M0XDAY9Hg8jx8/jkajQ0NDzc3NgiAEg8GpqanJycm3b9+KotjW1oYSZ7iNl18HoMN7PJ5ff/01FAqRopHNZoPBIOQUYywajY6Ojv777786nQ7gKlqttqury2Aw8OVgYfVobW29deuWz+cLBAKpVGplZQVebqDYM8ZwLL948WJzc1MURYfDcePGjeHh4XKxBZIkKZVKLSwsPHv2zOPxoNswmvj9/nA4zBgrFotbW1vPnj1bX18nBtbpdC6X68cffzxl4EOSUHIPDgwMoGDC7Ozs1taW1+sNBAKjo6Nnz54VBAElPNPptEajsdlst2/f/vnnn10uVxW/ZTab9Xg8T58+nZyc5C+u5FaBSJ6dnZ2dnaUf6PV6HHF8U/grPFhTU1Pj4+M4D8vbzGQyKLNCF0JBEFpaWorF4vDwsNPp5JvFWO7evRuLxX755RcY5yYmJhYXF61Wq9FoTKVS29vbsVgMiNm9vb337t27f/8+8GUVJ9NkMl28ePG7775DLaVUKuV2u71e719//QUzIWrEAc7abrffvHnz22+/vXz5cqXUXNxE/H7/48eP37x5Q99TggFYOh6PP3/+HIxBSvWXX355+/btrq4umXfKZDJdvXoVjq75+flIJII6knAoMsa2trZisVgmkxFFsb29/euvv/7pp58gDhTNFpIk7e7uLi8vj42NTU9Pa0rYt6xkR8Byh8PhaDQ6MzOD/zLGDAbD0NDQlStXFFUPtZEaGZiVNKvGxsbh4eG9vb3m5uapqSmfz4eYjUQiodFooKBaLBa73Y66DdevX0eJgHKiqxEipWUFnWmbYl3Z/q3Ag1TI2hQ4zBBCxhC43Dc6xvlxIfyIavDyf9VqtXq9vqen5+HDh1qtdmxszO12JxIJoMYgHgNartlsBlvev38fUHWKGw4yxWw237lzB++dnp7e2trK5XLv3r2DLRfH49mzZ7/44oubN28+fPhwaGjowAAsDJxmkmZY4Op9yuZTFEXAjJT3UxAEi8UyMjIiiuJvv/326tUrCEQK0QFEKbxl9+7d+/77769duwZHIwZebsei1SmHyKNelXdbr9cDzEj93MtUy8AgHAionelyuebn5+H5BOuigl5HR0dfXx9qNLe2tipOOsldKMN37tyx2Wy8c5XWj7YCv651dXVOp9PhcJS3DLDl69evG41GwkAnPZlu0Yzb3+Bts9kMgxzfGrG32WxGuZCOjo65uTmPx4OoLARINTY2tra24tI4ODh47tw5lB2oMpOoS3L37l2z2Xz+/PmlpSV4YuBkNhgMmMn+/v6hoSFULeSPtXItWq/Xd3Z2PnjwAH4sXvVgHHvwS4D7f1dXF67Wsh4KpTIX33zzjclk6u3tdbvd0DVgXNDr9Vartb29va+v78aNG/39/XxVZMXh6/V6l8t19+7dzs5OVgKy5selyPN1dXUul0tm71At1RQ++tkJmurq6io8hKgYBuTk7u7u3t5ewCNXaQHHIKKRQqFQPB7nk2/pZzJlDDuSKonLioxAJUun05ubm4i4UFQ42X5JD8EB5yeAY6v0GXW03W43ionmcjmUU3M4HL29vQ6HA8c+23+8KHYAH/L5/NbWFioqb25uZrNZ4H7a7faenp7u7m5Un6o0EGoNVRHevn0ri1FnnDrDOI2GpgtFYVBIsVL7+Xw+EAisrq56vV6EdgqC0NjYiOXu6enhw0toYsvbyeVyMLyjQgARPcg/S3IK4Wt2u73cAq9COgYMjInmE2UI9g36sKJ+W6Ud3o0kOx5pgWlaKDegUqlbSo6RuMR6xbfzn6HMV4/gxVUNoyZwHMYYEugI/O29ND2phEHFO7owOmQOUs2kA9uplLtbzsCkj+C/BDpZ6S24YwOqjrQYyo7E46Q5V+8k8kx5XKHyn8nUfpqQIw1B+1h0PBhY9oFx0fCs5iAbxZESA0v7Paj8K2rZzQdOo6yr/OartBFlbUol8IrqL6qFCF5H4jA6ys+oKlRlyLJTjh0qCqr8dipxF933XXdZa2z/3Mq+oWYP0e1PT8dBxnCXUlY2vwJnvah+mrH9SyUT4eXPvu/JVvuPD/EIzUD5XjzEe2keqhye79VUlVccjntZGbMJtWULlrfDlMZ1iNbUSSdkGNUlvYzDZedtLfxfC1GixSG6eqAqKGM2El6H6DMpk6TTwsVyaIlw1FQuZWp8pFyreq83qnM2ZPSfcvK5e/JJ6SMOuRZlWPZ79v6bQ1HOfuAJzCooIyeAPpZQVj/9F2+gWgGscjphW//E0DE6RT+EBCqsDovuiR/wKZ3SSSIROT2IDrfb7WqAkjqlUzqlGkksFIqCIESj0Ww2azAYCJ3olE7plNRPmp2dHZ1OB0QiBOt97i6d0imdkpzKfX5wImjm5uby+bzD4ejp6eHTaCWOPnlvT+mUTkmBeGZElJ5Wq9W2traazWaj0YgquycGbeRTkqoMB6cy98QQH2jEB6Xl8/nd3V2fz/c/7WTHNoGe3eQAAAAASUVORK5CYII=;textShadow=1;labelBorderColor=default;" vertex="1" parent="1">
          <mxGeometry x="462" y="381" width="20" height="20.9" as="geometry" />
        </mxCell>
      </root>
    </mxGraphModel>
  </diagram>
</mxfile>
